<?xml version="1.0" encoding="UTF-8"?>
<svg id="Layer_1" data-name="Layer 1" xmlns="http://www.w3.org/2000/svg" version="1.1" viewBox="0 0 175 48.7">
  <defs>
    <style>
      .cls-1 {
        fill: #256686;
        stroke-width: 0px;
      }
    </style>
  </defs>
  <g id="Page-1">
    <g id="PROVIDENCEBUSINESSFIRST">
      <path id="path-1" class="cls-1" d="M34.6,21v-9.3h1.9c3.2,0,5-1.7,5-4.8v-1.9c0-3.3-1.9-4.7-5-4.7h-4.1v20.7h2.2ZM36.6,10h-2V2h2c1.8,0,2.8.8,2.8,3v1.9c0,2.1-.9,3.1-2.8,3.1ZM46.1,21v-9.7h1.8l3.3,9.7h2.4l-3.5-9.9c1.9-.5,3.1-1.7,3.1-4.5v-1.7c0-3.2-1.8-4.6-5-4.6h-4.2v20.7h2.2ZM48.2,9.6h-2.1V2h2.1c1.9,0,2.8.8,2.8,2.9v1.7c0,2.1-.8,3-2.8,3ZM61,21.3c3.3,0,5.4-2.2,5.4-6V5.9C66.5,2.2,64.3,0,61,0s-5.4,2.1-5.4,6v9.3c0,3.8,2.1,6,5.4,6ZM61,19.4c-2.2,0-3.2-1.5-3.2-4.2V6c0-2.7,1-4.2,3.2-4.2s3.2,1.6,3.2,4.2v9.3c0,2.6-1,4.2-3.2,4.2ZM74.7,21L78.5.3h-2l-3.2,18.2L70.1.3h-2.1l3.8,20.7h3ZM83,21V.3h-2.2v20.7h2.2ZM90.3,21c4,0,6.1-2,6.1-6.1V6.4c0-4.2-2.2-6.1-6.1-6.1h-4.1v20.7h4.1ZM90.2,19.3h-1.8V2h1.8c3,0,4,1.5,4,4.4v8.5c0,3-1,4.4-4,4.4ZM107.7,21v-1.7h-6.1v-8.5h4.7v-1.7h-4.7V2h5.8V.3h-7.9v20.7h8.3ZM112.2,21V4.4l5.6,16.6h2.3V.3h-1.9v15.4L112.8.3h-2.6v20.7h2ZM128.2,21.3c2.9,0,5-1.5,5-5.3v-.6h-2v.6c0,2.5-1.2,3.5-3,3.5s-3.1-1.5-3.1-4.2V6.1c0-2.8,1.1-4.3,3.1-4.3s2.8,1,2.8,3.3v.3h2.1v-.3C133.1,1.4,131,0,128.2,0s-5.3,2.1-5.3,6.1v9.2c0,3.9,2,6,5.4,6ZM144,21v-1.7h-6.1v-8.5h4.7v-1.7h-4.7V2h5.8V.3h-7.9v20.7h8.3ZM6,48c3.9,0,5.9-1.4,5.9-5.2v-1.3c0-2.6-1.4-3.9-3.6-4.3,1.9-.4,3.1-1.6,3.1-3.7v-1.4c0-3.2-1.8-4.6-5.6-4.6H.2v20.7h5.8ZM5.5,35.6h-.9v-5.2h.9c1.2,0,1.8.3,1.8,1.9v1.3c0,1.5-.5,2-1.8,2ZM5.6,44.8h-1v-6.2h1c1.4,0,2,.4,2,2.3v1.5c0,1.7-.6,2.4-1.9,2.4ZM21.1,48.3c3.8,0,6.1-1.8,6.1-5.8v-15.2h-4.5v15.1c0,1.7-.5,2.3-1.6,2.3s-1.6-.6-1.6-2.3v-15.1h-4.5v15.2c0,4,2.2,5.9,6,5.9ZM35.9,48.3c3.7,0,5.7-1.9,5.7-5.7v-.4c0-4.1-2.1-5.3-4.6-6.9-1.8-1.2-2.4-1.7-2.4-3.2h0c0-1.3.4-1.7,1.2-1.7s1.3.4,1.3,1.9v.7h4.2v-.6c0-3.7-2-5.4-5.5-5.4s-5.6,1.9-5.6,5.4h0c0,3.5,1.4,5.1,4.1,6.8,1.9,1.2,2.9,1.8,2.9,3.7v.2c0,1.3-.4,1.9-1.4,1.9s-1.5-.6-1.5-2.2v-.8h-4.3v.7c0,4.1,2.3,5.8,5.8,5.8ZM49.4,48v-20.7h-4.5v20.7h4.5ZM56.9,48v-12.9l4.1,12.9h4.2v-20.7h-3.9v11.1l-3.5-11.1h-4.8v20.7h3.9ZM78.5,48v-3.5h-5.2v-5.7h3.9v-3.3h-3.9v-4.6h4.9v-3.5h-9.4v20.7h9.7ZM87,48.3c3.7,0,5.7-1.9,5.7-5.7v-.4c0-4.1-2.1-5.3-4.6-6.9-1.8-1.2-2.4-1.7-2.4-3.2h0c0-1.3.4-1.7,1.2-1.7s1.3.4,1.3,1.9v.7h4.2v-.6c0-3.7-2-5.4-5.5-5.4s-5.6,1.9-5.6,5.4h0c0,3.5,1.4,5.1,4.1,6.8,1.9,1.2,2.9,1.8,2.9,3.7v.2c0,1.3-.4,1.9-1.4,1.9s-1.5-.6-1.5-2.2v-.8h-4.3v.7c0,4.1,2.3,5.8,5.8,5.8ZM101.2,48.3c3.7,0,5.7-1.9,5.7-5.7v-.4c0-4.1-2.1-5.3-4.6-6.9-1.8-1.2-2.4-1.7-2.4-3.2h0c0-1.3.4-1.7,1.2-1.7s1.3.4,1.3,1.9v.7h4.2v-.6c0-3.7-2-5.4-5.5-5.4s-5.6,1.9-5.6,5.4h0c0,3.5,1.4,5.1,4.1,6.8,1.9,1.2,2.9,1.8,2.9,3.7v.2c0,1.3-.4,1.9-1.4,1.9s-1.5-.6-1.5-2.2v-.8h-4.3v.7c0,4.1,2.3,5.8,5.8,5.8ZM119.4,48v-8.3h4.1v-3.4h-4.1v-5.6h5v-3.5h-9.4v20.7h4.4ZM132.1,48v-20.7h-4.5v20.7h4.5ZM140.2,48v-8.6h.8l2.3,8.6h4.6l-2.7-9.3c1.4-.7,2.1-1.8,2.1-4.1v-2.1c0-3.5-1.6-5.2-6-5.2h-5.7v20.7h4.5ZM141.2,36.5h-1v-5.8h1c1.2,0,1.8.5,1.8,1.9v1.9c0,1.5-.6,2-1.8,2ZM155.9,48.3c3.7,0,5.7-1.9,5.7-5.7v-.4c0-4.1-2.1-5.3-4.6-6.9-1.8-1.2-2.4-1.7-2.4-3.2h0c0-1.3.4-1.7,1.2-1.7s1.3.4,1.3,1.9v.7h4.2v-.6c0-3.7-2-5.4-5.5-5.4s-5.6,1.9-5.6,5.4h0c0,3.5,1.4,5.1,4.1,6.8,1.9,1.2,2.9,1.8,2.9,3.7v.2c0,1.3-.4,1.9-1.4,1.9s-1.5-.6-1.5-2.2v-.8h-4.3v.7c0,4.1,2.3,5.8,5.8,5.8ZM171.7,48v-17.2h3.3v-3.5h-11.1v3.5h3.3v17.2h4.4Z"/>
      <path id="path-1-2" data-name="path-1" class="cls-1" d="M34.6,21v-9.3h1.9c3.2,0,5-1.7,5-4.8v-1.9c0-3.3-1.9-4.7-5-4.7h-4.1v20.7h2.2ZM36.6,10h-2V2h2c1.8,0,2.8.8,2.8,3v1.9c0,2.1-.9,3.1-2.8,3.1ZM46.1,21v-9.7h1.8l3.3,9.7h2.4l-3.5-9.9c1.9-.5,3.1-1.7,3.1-4.5v-1.7c0-3.2-1.8-4.6-5-4.6h-4.2v20.7h2.2ZM48.2,9.6h-2.1V2h2.1c1.9,0,2.8.8,2.8,2.9v1.7c0,2.1-.8,3-2.8,3ZM61,21.3c3.3,0,5.4-2.2,5.4-6V5.9C66.5,2.2,64.3,0,61,0s-5.4,2.1-5.4,6v9.3c0,3.8,2.1,6,5.4,6ZM61,19.4c-2.2,0-3.2-1.5-3.2-4.2V6c0-2.7,1-4.2,3.2-4.2s3.2,1.6,3.2,4.2v9.3c0,2.6-1,4.2-3.2,4.2ZM74.7,21L78.5.3h-2l-3.2,18.2L70.1.3h-2.1l3.8,20.7h3ZM83,21V.3h-2.2v20.7h2.2ZM90.3,21c4,0,6.1-2,6.1-6.1V6.4c0-4.2-2.2-6.1-6.1-6.1h-4.1v20.7h4.1ZM90.2,19.3h-1.8V2h1.8c3,0,4,1.5,4,4.4v8.5c0,3-1,4.4-4,4.4ZM107.7,21v-1.7h-6.1v-8.5h4.7v-1.7h-4.7V2h5.8V.3h-7.9v20.7h8.3ZM112.2,21V4.4l5.6,16.6h2.3V.3h-1.9v15.4L112.8.3h-2.6v20.7h2ZM128.2,21.3c2.9,0,5-1.5,5-5.3v-.6h-2v.6c0,2.5-1.2,3.5-3,3.5s-3.1-1.5-3.1-4.2V6.1c0-2.8,1.1-4.3,3.1-4.3s2.8,1,2.8,3.3v.3h2.1v-.3C133.1,1.4,131,0,128.2,0s-5.3,2.1-5.3,6.1v9.2c0,3.9,2,6,5.4,6ZM144,21v-1.7h-6.1v-8.5h4.7v-1.7h-4.7V2h5.8V.3h-7.9v20.7h8.3ZM6,48c3.9,0,5.9-1.4,5.9-5.2v-1.3c0-2.6-1.4-3.9-3.6-4.3,1.9-.4,3.1-1.6,3.1-3.7v-1.4c0-3.2-1.8-4.6-5.6-4.6H.2v20.7h5.8ZM5.5,35.6h-.9v-5.2h.9c1.2,0,1.8.3,1.8,1.9v1.3c0,1.5-.5,2-1.8,2ZM5.6,44.8h-1v-6.2h1c1.4,0,2,.4,2,2.3v1.5c0,1.7-.6,2.4-1.9,2.4ZM21.1,48.3c3.8,0,6.1-1.8,6.1-5.8v-15.2h-4.5v15.1c0,1.7-.5,2.3-1.6,2.3s-1.6-.6-1.6-2.3v-15.1h-4.5v15.2c0,4,2.2,5.9,6,5.9ZM35.9,48.3c3.7,0,5.7-1.9,5.7-5.7v-.4c0-4.1-2.1-5.3-4.6-6.9-1.8-1.2-2.4-1.7-2.4-3.2h0c0-1.3.4-1.7,1.2-1.7s1.3.4,1.3,1.9v.7h4.2v-.6c0-3.7-2-5.4-5.5-5.4s-5.6,1.9-5.6,5.4h0c0,3.5,1.4,5.1,4.1,6.8,1.9,1.2,2.9,1.8,2.9,3.7v.2c0,1.3-.4,1.9-1.4,1.9s-1.5-.6-1.5-2.2v-.8h-4.3v.7c0,4.1,2.3,5.8,5.8,5.8ZM49.4,48v-20.7h-4.5v20.7h4.5ZM56.9,48v-12.9l4.1,12.9h4.2v-20.7h-3.9v11.1l-3.5-11.1h-4.8v20.7h3.9ZM78.5,48v-3.5h-5.2v-5.7h3.9v-3.3h-3.9v-4.6h4.9v-3.5h-9.4v20.7h9.7ZM87,48.3c3.7,0,5.7-1.9,5.7-5.7v-.4c0-4.1-2.1-5.3-4.6-6.9-1.8-1.2-2.4-1.7-2.4-3.2h0c0-1.3.4-1.7,1.2-1.7s1.3.4,1.3,1.9v.7h4.2v-.6c0-3.7-2-5.4-5.5-5.4s-5.6,1.9-5.6,5.4h0c0,3.5,1.4,5.1,4.1,6.8,1.9,1.2,2.9,1.8,2.9,3.7v.2c0,1.3-.4,1.9-1.4,1.9s-1.5-.6-1.5-2.2v-.8h-4.3v.7c0,4.1,2.3,5.8,5.8,5.8ZM101.2,48.3c3.7,0,5.7-1.9,5.7-5.7v-.4c0-4.1-2.1-5.3-4.6-6.9-1.8-1.2-2.4-1.7-2.4-3.2h0c0-1.3.4-1.7,1.2-1.7s1.3.4,1.3,1.9v.7h4.2v-.6c0-3.7-2-5.4-5.5-5.4s-5.6,1.9-5.6,5.4h0c0,3.5,1.4,5.1,4.1,6.8,1.9,1.2,2.9,1.8,2.9,3.7v.2c0,1.3-.4,1.9-1.4,1.9s-1.5-.6-1.5-2.2v-.8h-4.3v.7c0,4.1,2.3,5.8,5.8,5.8ZM119.4,48v-8.3h4.1v-3.4h-4.1v-5.6h5v-3.5h-9.4v20.7h4.4ZM132.1,48v-20.7h-4.5v20.7h4.5ZM140.2,48v-8.6h.8l2.3,8.6h4.6l-2.7-9.3c1.4-.7,2.1-1.8,2.1-4.1v-2.1c0-3.5-1.6-5.2-6-5.2h-5.7v20.7h4.5ZM141.2,36.5h-1v-5.8h1c1.2,0,1.8.5,1.8,1.9v1.9c0,1.5-.6,2-1.8,2ZM155.9,48.3c3.7,0,5.7-1.9,5.7-5.7v-.4c0-4.1-2.1-5.3-4.6-6.9-1.8-1.2-2.4-1.7-2.4-3.2h0c0-1.3.4-1.7,1.2-1.7s1.3.4,1.3,1.9v.7h4.2v-.6c0-3.7-2-5.4-5.5-5.4s-5.6,1.9-5.6,5.4h0c0,3.5,1.4,5.1,4.1,6.8,1.9,1.2,2.9,1.8,2.9,3.7v.2c0,1.3-.4,1.9-1.4,1.9s-1.5-.6-1.5-2.2v-.8h-4.3v.7c0,4.1,2.3,5.8,5.8,5.8ZM171.7,48v-17.2h3.3v-3.5h-11.1v3.5h3.3v17.2h4.4Z"/>
    </g>
  </g>
</svg>