<svg width="191" height="27" viewBox="0 0 191 27" fill="none" xmlns="http://www.w3.org/2000/svg">
<g clip-path="url(#clip0_1432_289)">
<path d="M46.5084 11.3087L46.1815 12.9049H46.0998C45.6912 12.0121 44.5471 10.7676 42.0138 10.7676C37.9277 10.7676 33.76 13.9059 32.8338 18.8568C32.0439 23.1854 34.1414 27 38.9901 27C40.7607 27 42.8037 26.3237 43.8661 24.8357H43.9478L43.6482 26.459H48.17L51.003 11.3087H46.5084ZM45.0374 18.8568C44.7378 20.3447 43.3213 22.7525 40.4883 22.7525C37.7098 22.7525 37.1378 20.3177 37.3829 18.9109C37.7098 17.1794 39.2625 15.0151 41.9048 15.0151C44.4926 15.0421 45.3643 17.0712 45.0374 18.8568Z" fill="black"/>
<path d="M53.5639 11.3087H57.8134L57.5138 12.9049H57.5955C58.1403 12.1744 59.2026 10.7676 61.8177 10.7676L60.9733 15.3668C58.8213 15.3938 57.2686 15.8267 56.86 18.1533L55.3073 26.459H50.731L53.5639 11.3087Z" fill="black"/>
<path d="M64.8956 5.38379H69.472L67.32 16.8006H67.4017L72.6863 11.3086H78.0526L71.0791 17.9639L75.0834 26.4589H69.9078L66.9659 19.1543H66.8842L65.5494 26.4589H60.9458L64.8956 5.38379Z" fill="black"/>
<path d="M85.3805 10.7676C80.7496 10.7676 76.6364 14.7175 75.8737 18.9379C75.0292 23.4289 78.0801 26.973 82.4658 26.973C84.0185 26.973 85.6256 26.5131 87.0421 25.5932C88.4858 24.7275 89.8206 23.4289 90.8557 21.7245H86.1977C85.4349 22.5091 84.5633 23.1313 83.1468 23.1313C81.3762 23.1313 80.0414 22.0762 80.1231 20.2636H91.564C91.7002 19.9119 91.7819 19.6413 91.8909 19.0732C92.7625 14.4469 90.0385 10.7676 85.3805 10.7676ZM80.7496 17.2065C81.1038 16.3137 82.3568 14.6093 84.7267 14.6093C87.0966 14.6093 87.6686 16.3137 87.6686 17.2065H80.7496Z" fill="black"/>
<path d="M26.7867 5.38379L18.7237 17.3958H18.6692V5.38379H14.7738L0.5 26.4589H6.02975L14.0384 14.4469H14.1201V26.4589H18.0427L26.0513 14.4469H26.133V26.4589H30.7093V5.38379H26.7867Z" fill="black"/>
<path d="M103.468 11.3084H100.58L101.425 6.81738H97.4206L97.0938 8.54885C96.7396 10.5238 95.4866 11.119 93.8249 11.3084H93.7977L93.1167 14.7442H95.3776L93.1984 26.4587H97.7475L99.9267 14.7442H102.841L103.468 11.3084Z" fill="black"/>
<path d="M174.074 20.7234C172.576 24.1593 169.008 26.9729 164.894 26.9729C160.264 26.9729 157.403 23.3477 158.221 18.8297C159.065 14.3928 163.205 10.7675 167.782 10.7675C171.813 10.7675 174.592 13.4459 174.674 17.1523H170.043C169.743 16.0972 169.062 15.015 167.128 15.015C164.976 14.9068 163.205 16.6653 162.797 18.8567C162.388 21.0751 163.532 22.7255 165.712 22.7255C167.591 22.7255 168.735 21.6433 169.389 20.6964H174.074V20.7234ZM136.265 0L127.385 5.38377H129.891L121.855 17.3958H121.773V5.38377H117.851L109.815 17.3958H109.733V5.38377H105.157V26.4589H109.134L117.17 14.4469H117.251V26.4589H121.174L135.393 5.38377H137.654L136.265 0ZM144.927 26.4589H140.405L140.705 24.8357H140.623C139.561 26.3236 137.518 27 135.747 27C130.899 27 128.801 23.2124 129.591 18.8567C130.49 13.9058 134.685 10.7675 138.771 10.7675C141.277 10.7675 142.448 11.985 142.857 12.9048H142.939L143.266 11.3086H147.788L144.927 26.4589ZM137.246 22.7796C140.079 22.7796 141.495 20.3447 141.795 18.8838C142.122 17.0711 141.25 15.0421 138.662 15.0421C136.047 15.0421 134.467 17.2064 134.14 18.9379C133.895 20.3447 134.467 22.7796 137.246 22.7796ZM159.174 11.3086H156.314L157.158 6.81764H153.154L152.827 8.5491C152.473 10.524 151.22 11.1192 149.558 11.3086H149.504L148.85 14.7445H151.111L148.932 26.4589H153.481L155.66 14.7445H158.575L159.174 11.3086ZM178.378 5.38377H182.927L181.538 12.9048H181.62C182.6 11.498 183.908 10.7675 185.924 10.7675C187.367 10.7675 189.029 11.3086 189.792 12.4719C190.773 13.9599 190.664 15.2856 190.146 17.991L188.593 26.4589H184.044L185.57 18.2074C185.706 17.477 186.142 15.015 183.717 15.015C181.157 15.015 180.721 17.2876 180.585 18.0451L179.032 26.4319H174.483L178.378 5.38377Z" fill="#00AC4E"/>
</g>
<defs>
<clipPath id="clip0_1432_289">
<rect width="190" height="27" fill="white" transform="translate(0.5)"/>
</clipPath>
</defs>
</svg>
