<?xml version="1.0" encoding="UTF-8"?>
<svg id="Layer_1" data-name="Layer 1" xmlns="http://www.w3.org/2000/svg" viewBox="0 0 886.32 102.93">
  <defs>
    <style>
      .cls-1 {
        fill: #083667;
        stroke-width: 0px;
      }
    </style>
  </defs>
  <path class="cls-1" d="M207.38,102.92V13.8c6.55,0,13.01-.12,19.47.12,1.05.04,2.23,1.49,3.02,2.54,11.74,15.42,23.43,30.88,35.13,46.33.96,1.27,1.96,2.52,3.42,4.4V13.98h21.44v89.13c-6.39,0-12.84.14-19.27-.13-1.12-.05-2.35-1.71-3.22-2.86-11.81-15.53-23.56-31.1-35.34-46.66-.67-.89-1.41-1.72-2.64-3.2v52.66h-22.02Z"/>
  <path class="cls-1" d="M86.82,102.9V14.12c.58-.12,1.06-.29,1.54-.29,13.78,0,27.55-.07,41.33.07,9.13.1,17.77,2.19,24.83,8.35,14,12.21,12.58,38.19-2.57,49.23-1.13.82-2.3,1.58-3.75,2.57,3.09,4.85,6.15,9.63,9.19,14.41,2.97,4.68,5.93,9.37,9.3,14.67-8.78,0-16.77.09-24.75-.11-1-.02-2.3-1.36-2.87-2.4-3.62-6.58-6.97-13.31-10.66-19.85-.63-1.12-2.37-2.19-3.65-2.26-4.8-.26-9.63-.11-14.72-.11v24.5h-23.22ZM110.16,32.47v26.98c6.79,0,13.42.48,19.96-.12,7.92-.73,11.96-5.97,11.73-13.81-.22-7.66-4.83-12.6-12.72-12.99-6.22-.31-12.47-.06-18.98-.06Z"/>
  <path class="cls-1" d="M435.92,61.15c-4.13,13.29-8.15,26.01-12,38.8-.75,2.48-1.82,3.41-4.51,3.29-5.6-.25-11.23.02-16.83-.18-1.03-.04-2.6-1.06-2.95-1.98-8.02-21.72-15.91-43.5-23.81-65.27-.17-.46-.12-.99-.2-1.7,7,0,13.88-.13,20.74.14,1.03.04,2.5,1.81,2.88,3.06,3.98,13.02,7.78,26.1,11.63,39.17.32,1.08.69,2.15,1.28,3.97,4.07-14.01,7.94-27.29,11.8-40.58q1.67-5.74,7.82-5.75c3.83,0,7.68.29,11.47-.09,3.46-.35,4.5,1.21,5.34,4.2,3.74,13.36,7.72,26.66,11.62,39.97.14.47.4.9.91,2.01,4.66-15.72,9.14-30.83,13.63-45.99h22.18c-1.85,5.03-3.63,9.86-5.39,14.7-6.19,16.97-12.44,33.91-18.5,50.92-.93,2.61-2.16,3.51-4.92,3.39-5.22-.23-10.46-.19-15.69,0-2.44.08-3.51-.67-4.23-3.1-3.58-12.08-7.39-24.09-11.13-36.12-.25-.81-.63-1.58-1.15-2.85Z"/>
  <path class="cls-1" d="M621.99,61.04c-4.08,13.14-8.08,25.61-11.79,38.17-.91,3.09-2.2,4.24-5.49,4.04-5.34-.32-10.72.02-16.07-.18-1.04-.04-2.61-1.05-2.96-1.97-8.02-21.73-15.9-43.51-23.8-65.29-.17-.46-.15-.99-.26-1.71,7.01,0,13.9-.11,20.77.13.95.03,2.33,1.62,2.67,2.74,4.11,13.39,8.05,26.82,12.05,40.24.25.82.62,1.61,1.15,2.98,4.56-15.69,8.96-30.79,13.4-46.07,6.73,0,13.22-.11,19.7.13.96.04,2.36,1.6,2.69,2.71,4.08,13.4,7.99,26.85,11.95,40.28.2.69.45,1.37,1.06,3.2,4.77-16.1,9.22-31.11,13.69-46.18h22.1c-1.11,3.17-2.14,6.21-3.24,9.23-6.9,18.88-13.85,37.75-20.7,56.65-.79,2.19-1.75,3.24-4.32,3.12-5.35-.25-10.73-.28-16.07,0-2.79.15-3.71-.96-4.42-3.39-3.35-11.36-6.86-22.67-10.35-33.99-.44-1.43-1.04-2.82-1.8-4.83Z"/>
  <path class="cls-1" d="M23.28,103H0V14.04c.87-.09,1.74-.25,2.61-.24,13.01,0,26.03-.02,39.04.08,6.98.05,13.65,1.47,19.75,5.07,6.98,4.12,11.51,10.12,12.85,18.1,2.24,13.28.55,25.55-10.91,34.5-6.38,4.99-14.01,6.53-21.9,6.78-5.96.19-11.92.04-18.16.04v24.63ZM23.49,59.37c6.21,0,12.31.47,18.31-.12,7.21-.71,10.97-5.66,11.05-13.15.08-7.19-3.6-12.45-10.52-13.24-6.22-.71-12.59-.15-19.06-.15,0,8.55,0,16.94,0,25.32,0,.48.14.96.2,1.35Z"/>
  <path class="cls-1" d="M834.47,80.01c3.97,4.01,7.72,7.81,11.68,11.81-5.55,6.26-12.62,9.96-20.87,11.24-12.79,1.99-25.18,1.07-35.11-8.35-11.13-10.56-12.36-23.9-8.48-37.83,3.74-13.43,13.45-20.91,26.94-22.7,6.29-.83,13.09-.46,19.27,1,13.21,3.12,21.52,14.8,22.66,30.22.22,2.9.03,5.84.03,9.15h-47.76c1.34,5.54,4.21,9.27,9.01,11.03,8.58,3.15,15.95.36,22.63-5.56ZM828.39,62.39c.03-7.67-4.69-12.79-11.7-13.05-7.49-.27-13.43,5.19-14.03,13.05h25.73Z"/>
  <path class="cls-1" d="M372.56,74.59h-46.92c-.55,2.13,3.11,9.11,5.33,10.45,6.38,3.85,17.41,1.75,25.46-4.81,3.79,3.88,7.57,7.76,12.08,12.37-3.77,2.49-7.56,5.73-11.91,7.69-9.47,4.27-19.55,4.81-29.56,2.22-18.19-4.7-27.88-20.89-24.53-40.41,3.3-19.23,19.4-30.54,39.63-28.65,25.37,2.37,32.3,23.53,30.44,41.14ZM324.62,62.28h26.04c-.37-7.61-4.54-12.35-11.14-12.93-7.54-.66-13.14,4.13-14.9,12.93Z"/>
  <path class="cls-1" d="M497.97,94.33c2.48-5.08,4.76-9.74,6.58-13.46,7.52,2.48,14.5,5,21.63,7.03,2.2.63,4.88.35,7.12-.28,1.39-.39,3.06-2.11,3.3-3.48.2-1.1-1.25-3.11-2.47-3.74-2.8-1.45-5.9-2.32-8.89-3.4-4.19-1.5-8.52-2.68-12.54-4.52-6.69-3.07-11-8.11-11.35-15.87-.37-8.24,2.75-14.67,9.91-18.9,9.23-5.46,19.26-5.64,29.28-3.43,6,1.32,11.73,3.9,18.15,6.11-2.9,5.64-5.37,10.43-7.76,15.07-5.44-1.95-10.62-3.96-15.91-5.62-2.14-.67-4.52-.77-6.79-.8-2.65-.03-5.38.53-5.89,3.68-.49,3.07,2.11,4.15,4.38,4.94,4.68,1.65,9.46,3.02,14.16,4.59,2.05.68,4.08,1.46,6.03,2.38,14.05,6.66,15.53,25.1,2.75,34.06-5.18,3.63-11.09,5.21-17.27,5.42-12.36.42-24.03-1.93-34.41-9.78Z"/>
  <path class="cls-1" d="M730.71,34.26h22.45v11.04c5.95-7.86,12.81-12.16,22.17-12.01v20.3c-3.28.36-6.47.41-9.52,1.1-8.21,1.86-12.49,7.47-12.5,15.89,0,10.7,0,21.4,0,32.35h-22.61V34.26Z"/>
  <path class="cls-1" d="M713.09,102.96h-22.32V34.31h22.32v68.64Z"/>
  <path class="cls-1" d="M701.97,2.45c7.03.1,11.83,5.13,11.7,12.25-.13,7.06-5.14,11.92-12.17,11.82-6.94-.09-11.79-5.19-11.71-12.31.08-7.07,5.06-11.87,12.18-11.77Z"/>
  <path class="cls-1" d="M886.32,15.76c.04,8.63-7.14,15.87-15.77,15.89-8.69.03-15.87-7.15-15.83-15.81.05-8.75,7.08-15.81,15.79-15.84,8.78-.04,15.76,6.93,15.8,15.76ZM870.66,3.95c-6.66-.03-11.97,5.09-12.12,11.67-.15,6.65,5.39,12.21,12.09,12.15,6.51-.06,11.87-5.45,11.91-11.97.05-6.56-5.22-11.81-11.89-11.84Z"/>
  <path class="cls-1" d="M874.81,18.09c.81,1.37,1.58,2.66,2.41,4.05-2.42,1.01-4.03.62-5.25-1.79-.48-.96-1.84-1.48-3.32-2.59-.26,2.19-.41,3.39-.56,4.69h-3.37V7.97c3.95.33,8.44-1.71,11.57,2.24,2.16,2.73.66,5.53-1.49,7.88ZM868.5,10.63v5.37c1.8-.62,3.31-.98,4.62-1.71.34-.19.28-2.11-.06-2.28-1.34-.65-2.86-.91-4.56-1.39Z"/>
</svg>