<?xml version="1.0" encoding="utf-8"?>
<!-- Generator: Adobe Illustrator 28.3.0, SVG Export Plug-In . SVG Version: 6.00 Build 0)  -->
<svg version="1.1" id="Layer_1" xmlns="http://www.w3.org/2000/svg" xmlns:xlink="http://www.w3.org/1999/xlink" x="0px" y="0px"
	 viewBox="0 0 3194 166" style="enable-background:new 0 0 3194 166;" xml:space="preserve">
<g>
	<path d="M3195,9c-13.9,1.8-22.6,11.1-29.7,21.7c-5,7.5-9.2,15.9-11.9,24.5c-10.8,33.7-21,67.7-31.2,101.6c-1.1,3.6-2.7,4.6-6.2,4.5
		c-6.7-0.3-13.3-0.4-20,0c-4,0.2-5.8-1.1-6.9-5c-6.5-21.2-13.3-42.2-19.9-63.3c-0.5-1.4-0.9-2.8-1.8-5.2c-1.5,3.6-2.8,6.4-3.9,9.3
		c-7.8,20-15.7,39.9-23.3,60c-1.2,3.2-2.7,4.3-6.1,4.2c-7.3-0.3-14.7-0.2-22,0c-3.1,0.1-4.3-1-5.2-3.9c-13.6-40-27.1-80-41-119.9
		c-2.4-6.9-6-13.3-9.1-19.9c-0.6-1.2-1.5-2.2-2.5-3.1c-2.6-2.7-5.4-5.4-9.5-3.8c-4.1,1.7-3.6,5.7-3.4,9.1
		c0.8,15.6,1.7,31.2,2.5,46.9c0.1,1.9-0.2,3.7-0.4,5.6c-0.5,0.1-0.9,0.3-1.4,0.4c-0.9-1.4-2.1-2.6-2.6-4.1
		c-7.1-18-18.5-33.2-32.7-46c-4.6-4.1-10.3-7.5-16.1-9.4c-10-3.4-18.6,2.1-19.1,12.7c-0.8,16.9-0.2,33.9-0.2,50.8
		c17.2,2.6,29.7-8.1,37.6-32.4c0.8,1.4,1.6,2.2,1.6,3c0.1,22.3,0.1,44.7,0,67c0,0.9-1.2,1.9-1.8,2.8c-0.6-1-1.5-1.9-1.7-2.9
		c-2.5-11.4-8.1-20.7-17.9-27.3c-5.3-3.6-11.3-4.4-18-3.6c0,4.8,0,9.5,0,14.1c0,14-0.1,28,0,42c0.1,13.2,7.3,18.5,19.9,14.7
		c9.7-2.9,17.2-9.3,23.9-16.6c11.7-12.5,20.9-26.8,28-42.3c0.9-2,2.1-3.8,3.2-5.7c0.4,0.1,0.9,0.2,1.3,0.3c0.1,1.2,0.3,2.4,0.2,3.6
		c-2.2,20.5-4.6,41-6.7,61.6c-0.5,4.5-2.3,6.4-6.9,6.4c-43.2-0.1-86.3,0-129.5-0.1c-1.3,0-2.6-0.8-3.8-1.2c1-0.7,2-1.8,3.2-2.1
		c10.5-3.2,17.4-11.5,18.2-23.2c0.6-8.6,0.5-17.3,0.5-26c0-24.5,0.2-49-0.4-73.5c-0.3-12.6-6.8-21.6-19.5-25.4
		c-1-0.3-1.6-1.7-3.1-3.5c106,0,210.8,0,316.9,0c-1.3,1.7-1.9,3.2-3,3.7c-10.8,5.1-15.3,14.9-11.9,26.8c4.7,16,9.5,31.9,14.2,47.8
		c3.5,11.9,7,23.8,10.6,35.9c0.5-0.5,0.9-0.7,1-1c6.8-24.3,17.2-47.7,20.1-73c0.8-6.6-0.1-13.7-1.4-20.2
		c-1.8-8.7-7.9-13.9-16.5-16.4c-1.4-0.4-2.7-1.5-4-2.3c0.2-0.6,0.5-1.1,0.7-1.7c22.9,0,45.9,0,68.8,0C3195,7,3195,8,3195,9z
		 M3045.6,122.9c0.4,0,0.8-0.1,1.1-0.1c5.6-14.1,11.2-28.1,16.6-42.3c0.7-1.8,0.5-4.3-0.1-6.2c-4.9-16.1-9.9-32.1-15.3-48
		c-1.5-4.4-4.1-8.8-7.2-12.3c-3.9-4.6-9.6-5-15.2-3.3c-5.5,1.6-8.4,5.8-8.5,11.1c-0.1,5.4,0.2,11,1.8,16.2
		c5.6,19,11.9,37.8,17.9,56.6C3039.6,104,3042.6,113.4,3045.6,122.9z"/>
	<path d="M1982,1c1.8,5.5,3.5,11,5.4,16.5c13.5,38.1,26.9,76.2,40.9,114.1c2.8,7.6,7.2,15,12.4,21.3c5.7,7,15,5.8,18.9-2.3
		c2.8-5.8,4.6-12.6,4.7-19.1c0.5-30.3,0.3-60.7,0.2-91c-0.1-15.4-6.8-24.3-21.1-28.9c-0.6-0.2-1.2-0.5-1.8-0.7
		c0.2-0.5,0.5-0.9,0.7-1.4c31.1,0,62.1,0,94.5,0c-1.7,1.1-2.4,2-3.3,2.2c-12.3,3-20.3,12.2-20.4,25c-0.2,35.3-0.2,70.7,0,106
		c0.1,11.6,7.6,16.7,18.8,13.6c11.6-3.2,19.9-11.1,27.6-19.8c10.5-11.9,19-25.2,25.5-39.8c0.8-1.8,2-3.5,3-5.3
		c0.5,0.1,1,0.2,1.5,0.4c0,1.3,0.1,2.7,0,4c-2.2,20.2-4.4,40.4-6.6,60.6c-0.7,6.1-1.5,7-7.9,7c-69.5,0-139,0-208.5,0
		c-1.4,0-2.8-0.3-4.9-0.5c0.9-1.1,1.1-1.8,1.6-2c11.1-5,16.6-15.1,13.4-26.8c-2.5-9.1-6.1-18-9.4-26.8c-0.4-1.1-2.4-2.1-3.7-2.1
		c-11.5-0.2-23-0.2-34.5,0c-1.2,0-3.2,0.8-3.6,1.7c-4.3,11.8-8,23.7-3.1,36.4c4,10.4,10.2,17.9,22.7,18.9c-0.8,0.5-1.5,1.5-2.3,1.5
		c-18.3,0.1-36.7,0.1-55,0.1c-1.8,0-3.6,0-6.6,0c1.1-1.9,1.5-3.5,2.4-3.9c10.4-4.9,17-13.5,21.8-23.3c5.8-11.9,10.8-24.3,15.5-36.7
		c6.9-18.4,13.2-37,19.9-55.4c1.5-4.1,2.2-7.9,0.1-11.9c-2.2-4.4-1.2-7,3.6-9.3C1955.2,18,1964.9,11,1972,1
		C1975.3,1,1978.7,1,1982,1z M1963.4,98.8c-6-16-11.7-31.3-17.4-46.5c-0.7,0.1-1.4,0.2-2.1,0.3c-5.5,15.3-11.1,30.6-16.7,46.3
		C1939.5,98.8,1951,98.8,1963.4,98.8z"/>
	<path d="M1157,167c-3.5-0.7-7-1.4-10.5-2.2c-39.6-9.1-64.8-42.3-63.6-84.1c1-35.6,30.4-68.1,67.8-74.7
		c53.2-9.5,98.8,29.9,97.2,83.7c-1.1,35.8-30.4,68.8-67.2,75.4c-3.6,0.6-7.1,1.3-10.7,2C1165.7,167,1161.3,167,1157,167z M1195.7,88
		c-1.1-16.4-1.6-28.2-2.8-39.9c-1-10.5-3.2-20.8-9.1-29.8c-8.9-13.5-27.6-13.9-36.3-0.3c-3.6,5.6-6.1,12.3-7.3,18.9
		c-4.9,27.4-4.3,55-2.5,82.6c0.7,10.5,1.9,20.9,7.4,30.2c9.4,15.9,30.5,15.8,39.4-0.4c2.4-4.3,4.6-9.1,5.3-13.9
		C1192.4,118.2,1194.2,100.9,1195.7,88z"/>
	<path d="M1837,1c8.3,2.9,16.6,5.8,24.9,8.8c5.6,2,9.5-1.1,13.7-3.8c1.3-0.8,2.9-1.3,4.3-1.9c0.4,1.5,1.1,3.1,1.1,4.6
		c0.1,16.7,0.1,33.3,0,50c0,1.9-1.3,3.7-2,5.6c-1.3-1.5-3.1-2.8-3.7-4.5c-4.9-14.9-11.8-28.6-22.1-40.5c-3-3.5-6.6-6.7-10.4-9.3
		c-12.9-8.8-28.2-6.2-37.7,6.1c-8,10.3-11.5,22.5-13.3,35.1c-4,27.4-4.2,54.8,2.4,81.9c1.3,5.6,3.7,11.1,6.8,15.9
		c7.9,12.3,23.9,15.9,35.9,7.7c6.3-4.3,11.9-10.2,16.6-16.3c10-13,17.2-27.7,21.9-43.5c0.3-1,0.4-2,0.9-2.8c0.7-1.2,1.8-2.1,2.7-3.2
		c0.7,1.3,2,2.6,2,4c0.1,20.5,0.2,41,0,61.5c0,4.5-2.8,5.9-6,2.9c-5.2-4.8-10.6-4.4-16.6-2.1c-13,5-26.3,8.4-40.3,8.6
		c-48.4,0.6-82.3-32.6-83-81.2c-0.5-38.8,23.6-71,61-81.6c2-0.6,4-1.3,6-2C1813.7,1,1825.3,1,1837,1z"/>
	<path d="M2638.3,7.7c-1,0.4-1.9,1.1-2.9,1.3c-13.1,3.3-20.2,14.3-16,26.9c8.6,26,17.9,51.9,27.1,78.4c0.8-1.4,1.5-2.2,1.8-3.2
		c6.5-16.2,13.1-32.4,19.3-48.7c5.1-13.3,6.9-26.8,1.3-40.4c-2.5-6.1-5.5-11.9-13-13.3c-0.6-0.1-1-1.1-1.8-2.1
		c45.7,0,90.8,0,137.4,0c-1.8,1.5-2.3,2.2-2.9,2.3c-10,2.6-14.6,9.9-16.5,19.3c-0.6,2.7-0.6,5.6-0.6,8.5c0,31.7,0.1,63.3-0.1,95
		c-0.1,12.8,4.1,22.4,16.9,26.9c0.5,0.2,0.7,0.9,1.5,2c-28.7,0-56.7,0-86,0c1.7-1.2,2.2-1.9,2.8-2.1c10.8-3.7,16.6-10.5,16.7-21.6
		c0.2-35,0.1-70,0-105c0-6.3-2.1-12.1-6.4-17c-5-5.6-9.6-6.3-15.1-1.3c-4.5,4.1-8.5,8.9-11.9,14c-10.8,16.5-16.1,35.4-22.8,53.6
		c-9.3,25.1-18.3,50.3-27.3,75.5c-1.1,3.1-2.5,4.5-6,4.3c-6.1-0.3-12.3-0.3-18.5,0c-3.7,0.2-5.1-1.3-6.3-4.6
		c-13.9-39.3-27.8-78.7-42.2-117.9c-2.8-7.7-7.9-14.5-12.1-21.7c-0.7-1.3-1.8-2.6-3.1-3.2c-2.7-1.2-6.2-3.4-8.3-2.5
		c-1.9,0.8-3.4,5.1-3.3,7.8c0.4,15.6,1.4,31.3,2.2,46.9c0.1,2.2,0,4.4,0,6.6c-0.6,0.1-1.1,0.3-1.7,0.4c-0.9-1.4-2-2.7-2.6-4.2
		c-7.4-18.7-19.1-34.3-34.2-47.3c-4.6-4-10.7-7-16.6-8.5c-9.2-2.4-16.3,3.6-17.3,13.1c-0.2,1.7-0.2,3.3-0.2,5c0,15.1,0,30.3,0,45.9
		c10.1,1.4,18.2-1.7,25-8.6c6.5-6.5,10.7-14.3,12.3-23.7c0.5,0.2,1,0.4,1.5,0.5c0,23.8,0,47.6,0,71.4c-0.4,0.2-0.8,0.4-1.2,0.7
		c-0.7-1.3-1.7-2.6-2-4c-1.9-8.9-6.4-16.4-12.9-22.7c-6.1-5.9-13.4-8.3-22.4-7.3c-0.1,1.6-0.3,3.2-0.3,4.8c0,16.8,0,33.7,0,50.5
		c0,1.8,0,3.7,0.3,5.5c1.4,8.3,6.5,12.1,14.9,11c10.3-1.3,18.1-7.2,25.2-14.1c13.6-13.3,23.8-29.1,31.7-46.3c0.8-1.8,2-3.4,4.2-4.6
		c0.1,0.9,0.3,1.9,0.2,2.8c-2.3,21-4.7,42-6.9,63.1c-0.4,4.3-2.7,5.7-6.5,5.9c-1.2,0.1-2.3,0-3.5,0c-52.5,0-105,0-157.5,0
		c-16.3,0-27.8-7.6-33-23.1c-3.9-11.6-6.4-23.8-10.1-35.5c-1.4-4.4-4.1-8.7-7.2-12c-1.5-1.6-5.7-1.7-8.2-1c-1.2,0.3-2.1,4.1-2.1,6.4
		c-0.2,11.2,0,22.3-0.1,33.5c-0.1,14.6,8.4,26.1,21.8,29c0.8,0.2,1.4,1.1,3.3,2.6c-34,0-66.4,0-100.4,0c1.9-1.4,2.6-2.4,3.4-2.6
		c16.4-3.2,23.7-12,23.7-28.7c0-30,0-60,0-90c0-18.3-3.8-24.1-21.1-31.5c1.4-0.6,2.3-1.4,3.2-1.4c33.8,0.1,67.6,0,101.5,0.6
		c11,0.2,20.9,5,29.5,12.1c18.9,15.5,14.6,49-8,57.7c-6,2.3-11.9,4.6-17.8,7c0.1,0.4,0.1,0.6,0.2,0.6c19.7,3.4,28.1,17.3,32.5,34.9
		c3.3,13.3,8.9,25,21,32.7c3.9,2.5,6.6,1.8,9.4-1.3c4.7-5.2,7.4-11.3,7.5-18.1c0.2-33,0.3-66,0-99c-0.1-11.7-8.1-21-19.3-24.6
		c-0.9-0.3-1.6-1.2-2.3-1.9c0.9-0.7,1.7-1.5,2.7-2c0.7-0.3,1.6-0.1,2.5-0.1c76.2-0.1,152.3-0.1,228.5-0.2c1.6,0,3.3,0,4.9,0
		C2638,6.6,2638.1,7.1,2638.3,7.7z M2311.5,82.4c14.1,1.8,22.3-2.6,25.9-15.6c2.2-8,2.6-16.7,2.8-25.1c0.2-7.7-1.6-15.2-6.1-21.8
		c-3.7-5.3-9.4-7.8-14.6-6.5c-6.1,1.6-7.9,6.4-8,11.8C2311.4,44.2,2311.5,63.1,2311.5,82.4z"/>
	<path d="M807.2,8.2c23.6,0,47.3,0,71.3,0c-0.4,1-0.5,2.2-1,2.4c-12,3.9-17.3,14.2-22.5,24.2c-5.2,10.1-7.1,21.1-7.1,32.4
		c0,30.8,0,61.7,0,92.5c0,0.7-0.1,1.3-0.2,2.8c-7.6,0-15.2-0.3-22.7,0.1c-5.1,0.3-8-1.5-10.8-5.7C790,120.5,765.4,84.2,741,47.8
		c-0.9-1.3-1.9-2.6-2.9-4c-0.4,0.4-0.8,0.6-0.8,0.8c0.2,23.3-0.2,46.7,0.9,69.9c0.7,16,8.1,29.5,21.2,39.1c4.4,3.2,9.8,5,14.7,7.3
		c-2.5,1.8-68.7,2.3-74,0.4c0.1-0.5,0.2-1.3,0.4-1.3c15.9-4,23-16.2,27.3-30.3c2.3-7.7,3.3-16,3.5-24.1c0.5-19.5,0.1-39,0.2-58.5
		c0-12.9-5.4-23.1-14.7-31.6c-4.3-3.9-6.4-4.1-9.4,1.3c-5.9,10.8-12.3,21.5-16.3,33c-9.7,28-18.1,56.4-27,84.6
		c-2.7,8.4-5.2,16.9-8,25.2c-0.4,1.3-2.2,3.1-3.4,3.1c-9,0.3-18,0.1-27.3,0.1c-7.7-24.3-15.4-48.4-23.5-74
		c-6,15.3-11.4,29.2-16.9,43.1c-3.6,9.3-7.2,18.6-11,27.8c-0.5,1.3-2.4,2.9-3.7,2.9c-9,0.3-18,0.1-27.1,0.1
		c-6.5-18.9-12.9-37.6-19.3-56.3c-8.6-25.2-17.2-50.4-25.9-75.5c-3.2-9.1-7.9-16.9-18.3-19.4c-0.9-0.2-1.4-1.9-2.6-3.5
		c58.3,0,115.6,0,174,0c-1.2,1.7-1.6,3.1-2.5,3.5c-11.4,5-16.1,14.2-12.6,26.2c6.7,23.2,13.6,46.3,20.5,69.4
		c1.4,4.9,2.9,9.8,4.8,16.1c7.1-22.9,14.2-44.2,19.9-65.9c1.9-7.4,0.7-15.8-0.1-23.7c-0.9-7.6-5.1-14.1-10.9-19.1
		c-2.2-1.9-5.4-2.7-8.2-3.9c-1-0.4-2-0.8-2.9-1.2c0.1-0.4,0.2-0.9,0.3-1.3c1.6-0.1,3.1-0.3,4.7-0.3c34.8-0.1,69.7-0.1,104.5-0.3
		c4.1,0,6.6,1.1,9,4.6c20.1,29,40.5,57.9,60.7,86.8c1,1.4,2.1,2.8,3.1,4.2c0.5-0.3,0.7-0.3,0.7-0.4c0-19.2,2.5-38.6-3-57.6
		c-3.5-12-10.3-22-20.1-29.7c-3.5-2.7-7.9-4.3-11.9-6.4C807.2,8.8,807.2,8.5,807.2,8.2z M580.6,125.8c1.2-2.6,1.8-4.1,2.4-5.6
		c4.8-12.2,9.8-24.4,14.4-36.7c0.9-2.4,1-5.6,0.3-8c-4.8-15.7-9.6-31.5-15-47c-1.7-4.9-4.5-9.8-8.1-13.4c-7.3-7.4-20.3-3.6-22.5,6.4
		c-1,4.7-1.1,10.2,0.2,14.7C561.3,65.7,570.8,95.1,580.6,125.8z"/>
	<path d="M274.2,85.6c0.6,0.7,0.8,1.1,1,1.1c19.2,3.1,27.4,16.7,31.8,33.6c3,11.7,7.3,22.5,16.9,30.4c6.2,5.1,13.3,8,21.4,8.5
		c1.3,0.1,2.5,1.2,3.7,1.9c-1.3,0.6-2.7,1.6-4,1.6c-16.8,0.1-33.7,0.4-50.5,0c-14.7-0.4-25.6-7.5-30.6-21.5c-4-11.2-6.7-23-10-34.5
		c-1-3.3-1.6-7-3.5-9.8c-1.8-2.7-4.8-5.2-7.8-6.4c-4.5-1.8-6.8,0.2-6.9,5.2c0,12.5-0.1,25,0,37.5c0.1,12.9,7.8,22.8,20.3,26.5
		c1.1,0.3,2.1,1.1,3.1,1.6c-0.1,0.4-0.3,0.8-0.4,1.2c-32.3,0-64.6,0-98.7,0c1.9-1.4,2.7-2.4,3.5-2.6c16.2-3.3,23.7-12.2,23.8-28.8
		c0.1-30,0-60,0-90c0-18.1-4.2-24.5-20.6-32.3c1.6-0.3,3.2-0.8,4.7-0.8c29.5,0,59-0.1,88.5,0c5.8,0,11.9,0.2,17.3,2
		c7.6,2.5,15.5,5.5,21.9,10.2C316.8,33.6,317,61,300,74.3c-5,3.9-11.5,5.9-17.4,8.5C280.1,84,277.3,84.6,274.2,85.6z M235.8,83.1
		c15.3,1.5,22.1-2.8,26.5-16.7c1.1-3.5,1.9-7.1,2.2-10.7c1-12.1,0.8-24-6-34.7c-3.5-5.5-9.8-8-15-6.5c-5,1.4-7.7,5.7-7.7,13.1
		c-0.1,14.1,0,28.3,0,42.4C235.8,74.2,235.8,78.5,235.8,83.1z"/>
	<path d="M124.1,79.9c6.1,1.6,12.5,2.7,18.5,5c13.6,5.1,22.7,14.5,24.1,29.6c1.4,15.3-3.4,28.3-16,37.7
		c-10.1,7.6-21.9,10.5-34.3,10.5c-33.5,0.2-67,0.1-100.5,0c-1.4,0-2.9-0.4-4.5-0.6c0.4-1.2,0.4-1.7,0.6-1.8
		c12.8-4.8,20.4-15,20.4-28.8c0.2-32.5,0.1-65,0-97.5c0-10.4-7.5-20-17.3-23.3c-0.9-0.3-1.6-1-2.1-2.5C14.4,8.2,15.8,8,17.2,8
		c32,0,64-0.2,96,0.1c13,0.1,25.2,3.2,34.8,12.6c12.3,11.8,12.6,32.8,1,45.3C142,73.2,133.7,78.1,124.1,79.9z M79.8,116.4
		C79.9,116.4,79.9,116.4,79.8,116.4c0,9.1-0.2,18.3,0.1,27.4c0.3,9.5,8,15.4,17.4,13.7c7.3-1.3,12.2-6,15.3-12.3
		c5.2-10.5,6-21.6,4.5-33c-2.5-19.8-12.8-28.7-32.5-28.3c-3.8,0.1-4.9,1.6-4.9,5.1C79.9,98.2,79.8,107.3,79.8,116.4z M79.9,49.5
		C79.9,49.5,79.9,49.5,79.9,49.5c0,6.5,0,13,0,19.5c0,11.1,0,11.1,11.1,11c8.4,0,12.8-2.6,15.4-10.6c1.8-5.6,2.7-11.7,3-17.6
		c0.5-10.5,0.2-21-4.2-30.8c-3.3-7.3-9.3-10.4-16.5-8.9c-5.4,1.1-8.4,5.6-8.6,13.5C79.7,33.5,79.9,41.5,79.9,49.5z"/>
	<path d="M405.4,165.2c-45.4,0-81.7-36.7-81.4-82.3c0.3-44.8,38-80.8,84.4-80.9c34.5-0.1,80.7,26.8,80.7,82.5
		C489.2,129.4,452.1,165.2,405.4,165.2z M379,86.1c0,11-0.4,22,0.1,32.9c0.5,10,2,19.9,7,28.8c9,15.9,29.7,16.6,39.1,0.9
		c3.2-5.3,5.4-11.5,6.7-17.6c5.7-28.3,5.4-56.9,2.5-85.5c-1.1-11-3.2-21.8-9.9-31C416,3,399.1,2.4,390.3,14
		c-3.3,4.4-5.8,9.8-7.3,15.1C378,47.8,378.2,67,379,86.1z"/>
	<path d="M928.3,162.5c5-2.9,10.6-5.2,15-8.9c5.9-5,7.5-12.4,7.5-20c0-31.3,0.2-62.6-0.2-94c-0.1-6-1.8-12.2-3.8-17.9
		c-1.8-5.1-5.5-9.1-11.4-10.2c-0.6-0.1-1.1-0.9-2.8-2.3c2.7-0.2,4.2-0.4,5.8-0.4c29.2,0,58.3-0.1,87.5,0c15.2,0.1,29,3.9,39.9,15.2
		c16.5,16.9,13.7,46.2-5.7,59.6c-11.9,8.2-25.5,11.1-39.7,11.4c-7.6,0.1-15.3,0-23.6,0c0,4.7,0,9.2,0,13.6c0,8.8-0.1,17.7,0.1,26.5
		c0.4,13.9,7.8,22.7,21.3,25.7c0.9,0.2,1.7,0.6,2.8,0.9C1017.5,164.1,931.4,164.2,928.3,162.5z M997.1,89.3
		c18.5,2.9,28-3.1,30.7-21.1c1.6-10.6,1.3-21.5,0.9-32.3c-0.2-4.6-2.2-9.4-4.5-13.6c-3.7-6.8-11.7-9.2-19.6-6.8
		c-5.8,1.7-7.7,5-7.7,13.9c0,18.5,0,37,0,55.5C996.9,86.4,997,87.9,997.1,89.3z"/>
	<path d="M1544,15.6c-8.1-2.2-13.9,0.7-18.4,6.3c-11.7,14.7-23.2,29.5-34.7,44.4c-2.8,3.6-2.6,3.8-7.8,3.4
		c1.6-9.8,3.2-19.6,4.9-29.3c1.7-10,3.2-20.1,5.2-30c0.3-1.5,2.6-3.6,4-3.6c9.8,0.3,19.5,1.6,29.3,1.6c35,0.1,70-0.2,104.9-0.4
		c1,0,2,0,3-0.1c8-1.2,8-1.2,9.4,6.7c3,18.2,6,36.4,9.1,54.8c-3.4,1.6-5.2,0.2-7.4-2.6c-11.8-15.3-23.6-30.5-35.7-45.5
		c-4.2-5.2-9.9-7.8-17.6-5.6c0,1.6,0,3.5,0,5.5c0,36.3,0,72.7,0,109c0,15.6,7.5,25.5,22.7,29.9c1.6,0.5,3.3,0.9,5.5,1.5
		c-4.1,2.7-102.7,2.7-106.6,0c2.5-0.6,4.5-1,6.5-1.5c15.3-3.6,23.8-14.1,23.8-29.6c0-37,0-74,0-111C1544,18.2,1544,16.9,1544,15.6z"
		/>
	<path d="M1246.4,9.4c31,0,62.1,0,93.1,0c0.2,0.3,0.3,0.5,0.5,0.8c-0.8,0.6-1.6,1.4-2.5,1.7c-12.3,2.9-20.3,12.4-20.4,24.9
		c-0.1,35.2-0.1,70.3,0,105.5c0,11.8,7.2,17.2,18.8,14.3c10.7-2.7,19.4-8.7,26.9-16.5c12.1-12.4,21.3-26.8,28.5-42.5
		c0.9-2,2.1-3.9,3.2-5.9c0.5,0.1,1.1,0.2,1.6,0.3c0,1.5,0.1,2.9,0,4.4c-2.3,20.8-4.6,41.7-7.1,62.5c-0.2,1.6-2.3,3.3-3.9,4.3
		c-1.1,0.7-2.9,0.4-4.4,0.4c-43.6,0-87.3,0-130.9,0c-1.2,0-2.4,0.2-3.5-0.1c-0.8-0.2-1.3-1.1-2-1.7c0.7-0.7,1.3-1.9,2.1-2.1
		c14.2-3.2,21.8-12.5,21.8-27c0-30.8,0-61.6,0-92.5c0-14.8-6.5-23.7-20.8-28.4c-0.6-0.2-1.3-0.4-1.9-0.7
		C1245.8,10.5,1246.1,9.9,1246.4,9.4z"/>
	<path d="M1485.7,162.9c-28.8,0-56.8,0-85.3,0c0.7-1.1,0.9-1.7,1.2-1.8c12.4-4.4,17.5-11.3,17.5-24.6c0.1-22.8,0-45.6,0-68.4
		c0-10.3,0.5-20.7-0.2-31c-0.4-5.6-1.6-11.7-4.4-16.5c-2.1-3.7-7.1-5.9-10.9-8.6c-0.9-0.7-2.1-1-3.2-1.5c0.1-0.4,0.2-0.9,0.3-1.3
		c28.3,0,56.6,0,85.6,0c-0.9,1-1.2,1.8-1.6,1.9c-12.1,2.4-17.8,15.6-17.8,25.9c0.1,17,0,34,0,51c0,15.5,0.1,31,0,46.5
		c-0.1,12.8,4.6,22.3,17.3,26.7C1484.6,161.1,1484.8,161.7,1485.7,162.9z"/>
	<path d="M1734.6,162.9c-28,0-56,0-83.9,0c-0.3-0.5-0.6-1-0.9-1.4c0.6-0.2,1.3-0.5,1.9-0.6c10.1-1.4,17.2-12.2,17.2-23.4
		c0.1-11.2,0-22.3,0-33.5c0-21.7,0.1-43.3-0.1-65c0-4.3-0.6-8.7-1.7-12.8c-2.1-7.5-6.6-13-14.8-14.7c-0.8-0.2-1.5-0.9-2.1-2.4
		c28.3,0,56.6,0,84.9,0c0.4,0.5,0.8,1,1.2,1.4c-0.8,0.2-1.6,0.3-2.4,0.6c-11.3,4.2-16.9,11.9-17.1,24.1c-0.2,10.2,0,20.3,0,30.5
		c0,21.7,0.4,43.3-0.1,65c-0.4,14.4,3.3,25.7,18.4,30.7C1734.9,162,1734.8,162.5,1734.6,162.9z"/>
</g>
</svg>
