<svg width="102" height="102" viewBox="0 0 102 102" fill="none" xmlns="http://www.w3.org/2000/svg">
<path d="M50.9907 4.09338C50.9906 3.68329 51.0746 3.27753 51.2375 2.90117C51.4004 2.52482 51.6387 2.18585 51.9378 1.90522C52.2368 1.62458 52.5902 1.40824 52.9761 1.26955C53.3621 1.13085 53.7723 1.07276 54.1816 1.09885C63.6645 1.70344 72.7787 4.99766 80.4568 10.5957C88.1349 16.1937 94.0589 23.8636 97.5348 32.7072C101.011 41.5507 101.895 51.2016 100.083 60.5295C98.2718 69.8574 93.8398 78.4759 87.3065 85.3757C87.0246 85.6734 86.6845 85.9103 86.3075 86.0715C85.9304 86.2327 85.5243 86.3149 85.1142 86.313C84.7041 86.311 84.2987 86.2251 83.9232 86.0603C83.5476 85.8956 83.2098 85.6557 82.9306 85.3553L69.9518 71.3897C69.448 70.8477 69.1624 70.1386 69.1497 69.3987C69.1371 68.6588 69.3984 67.9403 69.8833 67.3814C72.8759 63.9323 74.8667 59.7295 75.6396 55.229C76.4125 50.7285 75.938 46.1022 74.2675 41.8524C72.5971 37.6025 69.7946 33.8913 66.1642 31.1215C62.5337 28.3518 58.214 26.6292 53.6738 26.1409C52.938 26.0618 52.2575 25.7135 51.7629 25.163C51.2684 24.6125 50.9947 23.8987 50.9946 23.1587L50.9907 4.09338Z" fill="#505050" stroke="white" stroke-linejoin="round"/>
<path d="M82.8963 85.3877C83.1752 85.6884 83.3894 86.0431 83.5259 86.4298C83.6623 86.8166 83.718 87.2272 83.6895 87.6363C83.661 88.0454 83.5489 88.4443 83.3602 88.8084C83.1715 89.1725 82.9101 89.494 82.5922 89.7531C73.301 97.3271 61.5979 101.311 49.6153 100.979C37.6327 100.647 26.1682 96.021 17.3106 87.9441C17.0076 87.6678 16.7645 87.3323 16.5962 86.9583C16.4279 86.5843 16.3381 86.1798 16.3323 85.7697C16.3265 85.3597 16.4049 84.9528 16.5625 84.5742C16.7201 84.1956 16.9537 83.8534 17.2488 83.5686L30.9679 70.3295C31.5004 69.8157 32.204 69.5167 32.9436 69.4902C33.6831 69.4637 34.4063 69.7114 34.9743 70.1858C39.2879 73.7886 44.6897 75.8328 50.3078 75.9885C55.926 76.1442 61.4327 74.4023 65.9392 71.0438C66.5325 70.6016 67.2684 70.3944 68.0053 70.4618C68.7422 70.5293 69.4282 70.8667 69.9314 71.4092L82.8963 85.3877Z" fill="#505050" stroke="white" stroke-linejoin="round"/>
<path d="M17.216 83.5344C16.9206 83.8189 16.5701 84.0397 16.186 84.1834C15.8018 84.3271 15.3924 84.3905 14.9828 84.3697C14.5732 84.3489 14.1723 84.2443 13.8047 84.0625C13.4371 83.8806 13.1107 83.6254 12.8457 83.3124C4.52299 73.4857 0.312597 60.8268 1.09165 47.9728C1.11646 47.5635 1.22494 47.1636 1.41037 46.7978C1.59581 46.432 1.85426 46.1081 2.16978 45.8462C2.4853 45.5842 2.85118 45.3897 3.24481 45.2747C3.63845 45.1597 4.05149 45.1266 4.45841 45.1775L23.3764 47.5432C24.1107 47.6351 24.7851 47.995 25.2701 48.554C25.7551 49.1129 26.0163 49.8313 26.0037 50.5712C25.9066 56.2606 27.7533 61.8128 31.2387 66.3106C31.6919 66.8956 31.913 67.6274 31.8594 68.3655C31.8058 69.1035 31.4814 69.7957 30.9484 70.309L17.216 83.5344Z" fill="#505050" stroke="white" stroke-linejoin="round"/>
<path d="M4.46412 45.1313C4.05724 45.08 3.66521 44.9458 3.31222 44.7371C2.95924 44.5283 2.6528 44.2494 2.41184 43.9176C2.17088 43.5858 2.00051 43.208 1.91126 42.8078C1.82201 42.4075 1.81578 41.9932 1.89294 41.5904C2.96883 35.9744 5.00011 30.5845 7.89841 25.6552C8.10627 25.3017 8.3844 24.9946 8.71562 24.7528C9.04685 24.5109 9.42413 24.3396 9.82416 24.2494C10.2242 24.1591 10.6385 24.1518 11.0415 24.2279C11.4444 24.3041 11.8275 24.462 12.167 24.692L27.9516 35.3847C28.5643 35.7998 29.0019 36.4266 29.1805 37.1447C29.359 37.8629 29.2658 38.6216 28.9188 39.2752C27.9198 41.1569 27.1655 43.1586 26.6741 45.2315C26.5034 45.9516 26.0726 46.5831 25.4645 47.0048C24.8564 47.4265 24.1139 47.6085 23.3797 47.516L4.46412 45.1313Z" fill="#505050" stroke="white" stroke-linejoin="round"/>
<path d="M12.1934 24.653C11.8541 24.4227 11.5656 24.1252 11.3458 23.779C11.126 23.4328 10.9795 23.0452 10.9153 22.6402C10.8512 22.2351 10.8708 21.8212 10.9729 21.424C11.075 21.0269 11.2574 20.6548 11.509 20.3309C14.4401 16.5563 17.8973 13.2215 21.775 10.4281C22.1078 10.1884 22.4861 10.0195 22.8867 9.93176C23.2873 9.84403 23.7017 9.83936 24.1042 9.91805C24.5066 9.99673 24.8887 10.1571 25.2268 10.3892C25.5648 10.6214 25.8517 10.9204 26.0697 11.2678L36.2032 27.417C36.5965 28.0438 36.7443 28.7939 36.6181 29.5231C36.492 30.2522 36.1007 30.909 35.5197 31.3672C34.2145 32.3965 33.0151 33.5534 31.9395 34.8207C31.4607 35.3849 30.7902 35.7522 30.057 35.852C29.3238 35.9518 28.5795 35.7772 27.9673 35.3615L12.1934 24.653Z" fill="#505050" stroke="white" stroke-linejoin="round"/>
<path d="M26.1096 11.2426C25.892 10.895 25.7479 10.5065 25.6864 10.101C25.6248 9.6956 25.647 9.28183 25.7516 8.8853C25.8562 8.48878 26.041 8.11791 26.2946 7.79561C26.5482 7.4733 26.8651 7.20641 27.2259 7.01142C28.5641 6.28813 29.9346 5.62629 31.3331 5.02795C31.7102 4.86665 32.1163 4.78436 32.5264 4.78616C32.9365 4.78797 33.3418 4.87384 33.7174 5.03846C34.093 5.20308 34.4309 5.44296 34.7102 5.74329C34.9894 6.04361 35.2041 6.39801 35.341 6.78457L41.7061 24.756C41.9531 25.4536 41.9336 26.2178 41.6514 26.9019C41.3691 27.5859 40.844 28.1415 40.177 28.4619C40.1447 28.4774 40.1124 28.493 40.0801 28.5086C39.4144 28.8319 38.6528 28.8977 37.9416 28.6934C37.2303 28.4891 36.6197 28.0292 36.227 27.402L26.1096 11.2426Z" fill="#505050" stroke="white" stroke-linejoin="round"/>
<path d="M35.385 6.76946C35.2485 6.38276 35.1927 5.97217 35.2211 5.56306C35.2495 5.15395 35.3614 4.755 35.55 4.39086C35.7387 4.02672 35.9999 3.70512 36.3177 3.44592C36.6355 3.18672 37.0031 2.99544 37.3977 2.88387C37.9471 2.72856 38.4991 2.58267 39.0535 2.44626C39.4517 2.34828 39.8658 2.33298 40.2701 2.40131C40.6745 2.46965 41.0606 2.62016 41.4045 2.84355C41.7484 3.06694 42.0428 3.35847 42.2696 3.70014C42.4965 4.0418 42.6508 4.42633 42.7232 4.82999L46.1522 23.9572C46.2661 24.5929 46.1389 25.2482 45.7954 25.7951C45.4518 26.3419 44.9166 26.7409 44.2945 26.9142C44.5071 26.8609 44.7191 26.8049 44.9303 26.7461C44.3038 26.9029 43.6413 26.8204 43.0724 26.5147C42.5036 26.209 42.0692 25.7021 41.8542 25.0932L35.385 6.76946Z" fill="#505050" stroke="white" stroke-linejoin="round"/>
<path d="M42.5282 3.46662C42.4884 3.24317 42.4939 3.01398 42.5446 2.79273C42.5952 2.57147 42.6899 2.36269 42.823 2.17882C42.9561 1.99495 43.1248 1.83976 43.3192 1.72251C43.5135 1.60526 43.7295 1.52835 43.9542 1.49637C43.9377 1.49873 43.9212 1.50109 43.9047 1.50344C44.1294 1.47123 44.3583 1.48459 44.5777 1.54274C44.7971 1.60088 45.0025 1.70262 45.1818 1.84187C45.361 1.98113 45.5104 2.15505 45.6209 2.35327C45.7315 2.5515 45.801 2.76996 45.8254 2.99563L48.2037 25.0574C48.2345 25.343 48.1538 25.6295 47.9784 25.857C47.8031 26.0845 47.5466 26.2354 47.2626 26.2784C47.3976 26.2602 47.5325 26.241 47.6673 26.2206C47.3826 26.2589 47.0941 26.1857 46.862 26.0164C46.63 25.8471 46.4723 25.5947 46.4219 25.3119L42.5282 3.46662Z" fill="#505050" stroke="white" stroke-linejoin="round"/>
<path d="M45.8527 2.79875C45.8314 2.59857 45.8504 2.39613 45.9088 2.20346C45.9671 2.01078 46.0636 1.83178 46.1924 1.6771C46.3213 1.52241 46.4799 1.39518 46.6588 1.30296C46.8378 1.21074 47.0334 1.1554 47.2342 1.14024C47.2176 1.14151 47.2009 1.14278 47.1843 1.14403C47.3851 1.12867 47.5868 1.15378 47.7777 1.21789C47.9685 1.28199 48.1445 1.38378 48.2953 1.51721C48.446 1.65063 48.5684 1.81298 48.6553 1.99463C48.7421 2.17627 48.7915 2.37349 48.8007 2.57461L49.8218 25.0569C49.8334 25.3119 49.7457 25.5614 49.5773 25.7531C49.4088 25.9448 49.1726 26.0638 48.9182 26.0851C49.0426 26.0765 49.1669 26.0671 49.2912 26.0567C49.0366 26.0741 48.7851 25.9923 48.5896 25.8282C48.394 25.6642 48.2697 25.4308 48.2426 25.177L45.8527 2.79875Z" fill="#505050" stroke="white" stroke-linejoin="round"/>
<path d="M48.8102 1.69226C48.8064 1.60738 48.8196 1.5226 48.8488 1.44283C48.8781 1.36306 48.9229 1.2899 48.9806 1.22759C49.0384 1.16528 49.108 1.11506 49.1853 1.07985C49.2626 1.04463 49.3461 1.02513 49.4311 1.02246C49.4144 1.023 49.3978 1.02353 49.3811 1.02406C49.466 1.0213 49.5506 1.03545 49.63 1.06566C49.7095 1.09587 49.7821 1.14156 49.8437 1.20006C49.9053 1.25856 49.9547 1.32872 49.989 1.40646C50.0232 1.4842 50.0418 1.56797 50.0434 1.65292L50.5076 25.5922C50.5097 25.7007 50.4691 25.8058 50.3944 25.8846C50.3198 25.9635 50.2172 26.0099 50.1086 26.0137C50.1717 26.012 50.2347 26.01 50.2977 26.0077C50.1892 26.0108 50.0838 25.971 50.0043 25.8971C49.9248 25.8231 49.8775 25.7209 49.8727 25.6124L48.8102 1.69226Z" fill="#505050" stroke="white" stroke-linejoin="round"/>
<path d="M50.0889 1.45416C50.0879 1.39527 50.0985 1.33674 50.1201 1.28196C50.1418 1.22719 50.1741 1.17724 50.2151 1.13502C50.2562 1.09279 50.3052 1.05912 50.3594 1.03594C50.4136 1.01277 50.4718 1.00055 50.5307 1C50.514 1.00017 50.4973 1.00034 50.4807 1.00049C50.5396 0.999883 50.598 1.01095 50.6526 1.03304C50.7072 1.05514 50.7569 1.08784 50.7988 1.12924C50.8407 1.17065 50.874 1.21994 50.8967 1.27428C50.9195 1.32862 50.9312 1.38693 50.9313 1.44583L50.965 25.713C50.9651 25.7884 50.9355 25.8608 50.8825 25.9145C50.8296 25.9682 50.7576 25.9989 50.6821 25.9998C50.7293 25.9995 50.7765 25.999 50.8236 25.9984C50.7482 25.999 50.6756 25.9697 50.6216 25.9171C50.5676 25.8644 50.5366 25.7926 50.5352 25.7172L50.0889 1.45416Z" fill="#505050" stroke="white" stroke-linejoin="round"/>
</svg>
