<svg xmlns="http://www.w3.org/2000/svg" height="40" viewBox="0 -960 960 960" width="40"><path d="M480-80q-82.333 0-155.333-31.5t-127.334-85.667Q143-251.333 111.5-324.333t-31.5-155Q80-637 185.667-750.667q105.666-113.666 261.667-126.666v107.999q-111.001 12-185.168 94.5Q188-592.333 188-479.333 188-358 273.333-273 358.667-188 480-188q70 0 131.834-31 61.833-31 104.833-86.333L810-251.334Q753.333-171 666.667-125.5 580-80 480-80Zm363.333-232L750-364.666q11-28.667 16.5-57.501Q772-451 772-480q0-113-73.833-195.834Q624.333-758.667 514-770v-108q155.333 12.333 260.667 125.667Q880-639 880-482.667q0 44.667-9 87.334-9 42.666-27.667 83.333Z"/></svg>