<?xml version="1.0" encoding="UTF-8"?>
<svg id="Layer_1" data-name="Layer 1" xmlns="http://www.w3.org/2000/svg" viewBox="0 0 959 593">
  <defs>
    <style>
      .cls-1 {
        fill: #d0d0d0;
      }
    </style>
  </defs>
  <path class="cls-1" d="m236.4,435.1c10.45.84,17.59,6.67,17.1-8,34.85.51,36.23,11.53,57.5,31.9,7.52,14.91,3.7,28.5,24.9,35.09,10.49,14.19,13.02-13.77,24.1-13.89,13.78,3.26,24.68,5.44,30.9,21,4.87,13.84,12.8,23.88,21.3,34.89-1.07,2.05.6,4.5.9,6.6-1.32,3.24,1.88,5.01,3.6,7.9.16,8.44,8.31,10.27,14.7,12.9,6.69,5.84,14.86,2.04,20.6,8.3,1.34.43.71-.11.7-1.1,0,0,1.6-1.4,1.6-1.4,4.77,1.58-2.32-6.57-1.8-9.5-1.06-.44-2.33-1.87-.5-2.3,1.8-4-2.55-6.14-1.8-9.8,1.86-1.91,1.44-3.87,2.3-6.6-.7.07-2.93.95-3.7,0,6.06.39,4.89-5.78,7.4-9.4-1.62-1.69-4.18-2.58-.8-4.1,3.15,1.95,4.86-2.71,5.4-5.1,3.49-2.08,4.99-1.95,5-6.1,1.28,2.98,10.51-.89,5.7-3-1.44-.58-5.37-4.21-1.9-3.8.25,2.53,2.61,3.45,4.7,1.6,4.85-4.99,2.16,4.19-1,5.3,10.79-5.85,23.91-11.72,31.7-21.1-5.42-1.78-6.47-8.02,0-9.3,1.83,2.61-1.68,5.4,3.7,4.7-.64,2.23-5.61,2.33-3.7,4.4,14.25-18.73,80.29,3.2,49.7-9.2,6.57-4.94,3.12-.51,6.4-.7,3.53-1.64,4.36,2.07,5.5,4.3,1.87-.51,5.47,1.47,6.5,2.6-7.61,5.08,5.51,2.58,7.1,7.4,0,0,4.4-1,4.4-1-2.13.65-6.73-.04-1-1.1.11-1.46.05-1.88,1.4-2.1.2-3.57,1.19,1.42,3.6.4,1.24-4.84,3.54,2.25,1.3,3.1,1.94.42,8.37-4.75,6.8-5.3-3.42,2.97-.98-1.19-1.3-3.2,2.02-1.4,5.66-1.37,3.8,2.2,3.67-.65,7.6,1.82,9.6,4.4,1.09-.75,3.27.55,4.1.8,11.48-8.06-17.09-5.98-9.7-13.3,5.81,1.37-1.57-.17-.5-1.8,2.81.34,4.98-.89,6.2-3.5-6.63-9.13-2.81-.91-7.5.7-8.13-3.67,5.16-5.01,5.7-10.7,5.96-.98,16.04-1.06,21-1.9,2.88-.79,2.03-5.77,3.9-7.3,11.72,9.96-4.28,10.39,5,9.6,9.33-1.26,7.4-10.21,1.3-14.2.54-4.06.57-2.63,0,0,4.25,2.71,5.97,7.08,4.7,12,6.24-3.09,37.69-6.3,41.9,9.1,28.48-5.07,13.05-25.22,43.8,4.4,19.72,7.59,2.19,21.39,12.4,34.9-.55-2.74,4.64-6.47-1.3-7.3,2.05-4.65,4.9,6.07,4.8.2,5.17,3.59-8.93,9.14.5,13.9,2.93,1.88,10.22,21.59,12.9,15.8-2.27,1.68-5.49-3.88-4.9-5.6,3.27-1.08-.16-3.05,1.8-4.5,1.62,2.33,1.7,5.23-.9,5.7,5.25,4.76,9.22,9.09,12.7,16.91,8.65-7.62,10.34,11.84,14.7,13.4,5.04-1.31,15.94-2.32,13.5-10.4,13.77-38.58-36.32-75.47-40.8-116.2,3.3-9.63,2.82-14.99,7.7-23.6-2.44-2.49,9.84-7.6,5.11-10.81,9.13-1.55,12.45-14,18.3-15.2,12.43-30.84,13.76-18.19-12.91-37.89-8.38.73-19.42,5.51-23.08-2.79,3.07,8.35,17.02,3.25,23.1,2.8,20.9,15.54,29.57,25.29,42.8-1.72,15.63-13.62,10.01,3.91,20.58-16.59-.62-1.43-4.9,6.49-5.1,6.5-.56-1.67,3.66-4.68-.89-4.98.09.12,1.08,1.38.98,1.29-.15,0-1.32.12-1.19.09-1.84-3.78-1.5,1.13-3.99.4.96-2.31,2.1-5.1,1.49-7.29-3.32.2-1.73-1.23-.18-.7,12.16,2.53,14.14-21.57,5.48-14.21-.88-4.02-15.44,6.23-11.09-.18,3.05,1.67,7.01-3.82,9.4-5.3,2.33-1.1,5.67,4.36,4.39.59-4.2-16.27-24.62,1.37-14.53-5.07,6.53-7.31,4.15-2.46,9.13-4.76-1.28-4.17,2.24.53,2.2,1.4.18-2.09-5.92-12.6-4.94-6.66-1.48.18-.83-1.85-1.79-.13-.52-1.37-3.35-1.64-3.15-.44.58,1.11,2.54,2.88.06,1.33-.64-1.8-.73.25-1.71-.04-3.13,3.51,1.46-2.07-4.48-2.57.61-4.84-4.49-.82-4.86-3.47,2.01.25,3.58-.65,4.98-.06.99,2.43,3.31,2.5,4.51,4.54,1.64-.8,3.6-5.15.55-2.7-1.77-1.44.9-.74.89-1.09-2.15-1.39-3.6-1.66-6.39-2.91-4.57-4.68.96-.2,1.86.04,4.18.52.22-2.07.99-3.59.41.83,1.56.91,1.48.11,2.09,4.47,1.98.43,1.55-1.54-3.86-1.74-9.65-4.49-13.82-8.88,5.79,2.62,7.38,5.7,11.36,5.74-1.05-4.57,2.3-6.05-2.74-7.66-4.28.05-1.33-1.57-4.07-1.93-.75-1.13-3.88-.38-5.53-.78-4.67-2.92-.66-5.45-5.9-1.88-6.83-3.11,1.64-6.62,1.02-11.53-4.64-3.88.35-1.08.17.95,4.52-8.42-8.69,15.98,1.42,8,3.93,4.27,9.51,3.24,13.73,5.69-.91-5.48-5.44-9.69-6.87-14.5.74-3.94,2.32-6.74-.51-9.16-3.08-.91.73-.65.6-1.15.22-1.2.75-2.77,1.35-2.98,3.03.77,2.57-5.02,3.31-5.66,2.48-1.43,1.08,2.51,1.07,3.1.34,1.1-3.45,2.93-3.14,4.81.31,3.44,4.65,5.79.33,4.28-2.27,3.47-.73,5.55,1.53,1.89,3.14,3.54-2.13-.28-.99,6.1.77-.9,2.04-2.34,2.41-.53,3.64.83-3.9,1-.05,3.41-3.72.96,5.49,9.11,4.51,3.78,1.38-3.67.95.8,1.85,1.2,3.3.39-.52.53.69,2.64,2.93-2.64,1.21,3.38,2.11,4.21,1.74-.51,3.01-3.13,2.59-.73,1.82,1.52-.72,1.85-1.29,2.7-1.75,9.05.34,23.99,2.86,6,.94-1.72,1.35,1.56,1.04,1.66.74,9.52,1.9-15.45,4.36-18.36,2.56-2.5.57,4.28-.09,4.55-2.64,10.68,3.44-7.16,1.72-10.62-1.15-8.93-4.76-6.06-7.17-11.4-3.12-1.36-.82-5.89-5.19-7.72-4.14-2.32,1.73-8.79-1.92-9.12-9.9-.86,4.49,28.84,3.38,30.54-.58-1.56-8.18-30.04-7.75-27.03-16.98,3.29,1.28-1.17-8.89.14,19.38-4.08,2.9,3.99,16.49-4.83,3.51-1.63-4.99,4.72-2.24,4.14-3.46,2.13,5.19-7.03,3.56-4.63-9.97,5.23.55,11.51,4.28,14.56,2.54-1.66,5.7-.66,4.47,2.54.89,7.28,8.22-12.34,8.52-13.5,1.09-6.05,3.05-16.79-.43-22.02,1.92,3.14-4.68,1.63-4.55.12,10.92-23.89,28.53-19.23,34.9-29.02-2.3-8.09-5.27-13.55,3.25-14.11-11.41,1.05-2.45,10.54-3.08,17.08,5.17-2.3,7.07-6.19,4.3-9.96,1.96.07-.09-1.98.31-1.9,1.52.42,1.99,1.2,2.03,2.17,1.38,2.71-.7-.42-.69.4.9.97,1.18,2.6.65,2.65-1.29-2.83-.24,1.94-.46,1.41.38-1.58.95.3,1.02,0,.38-.62,1.51-1.45,1.19-1.55-1.15-5.56.97.84,1.33.66,1.31-1.2,1.19-1.96,2.5-1.7,2.84-1.64-1.35-3.29,2.28-3.41,1.04-.75.83-2.06,1.14-2.37,1.88.07,1.38,3.63.95,4-8.72,10.35,10.06-9.99,11.01-5.06,3.1,3.55-2.34-14.2-6.78-8.46.69,1.5,1.43.41,1.62,0,1.31-.84,1.74,4.08,2.21,3.46,0-2.23,1.65,1.72,1.31,1.38-4.45,3.13-7.58,3.63-9.72-1.35-2.8.72-1.26-2.34-1.95-2.8-3.77-5.31-6.68-.49-6.98-3.19-.04-2.8,3.32-5.38,4.31-8.32-1.31-2.12-.88-.07-1.97.07-.95-.15-2.37-3.4-2.71-3.68-2.93-.59.86.32.19-.2-.18-2.64,1.08-5.09,2.23-5.08.8-4.71,2.03-7.39,1.84-10.8,5.91-2.29-1.04-3.25,1.91-6.67,1.91-4.69,1.3,1.37,1.92,1.02.86-2.07,2.13-1.5,2.94-1.04.47-.41,1.28-.64,1.01-.9-.91-2.38,3.23-2.08,3.23-3.02-.8-3.3,2.2-2.59,2.92-3.05.89-1.94,4.09-3.94,1.65-4.95-.6-2,.25-5.88.9-2.65,1.86-.17.28-3.52.41-3.54-2.2,3.05-2.36-1.6-.29-1.34,1.78-1.46.78,2.89,1.62,2.44,3.23-.53,6.09,1.31,3.8-1.75,1.8,1.09.83-2.54,1.3-2.05.41,3.27,3.59,5.2,3.84,1.91,1.53-1.12-.09-2.83-1.29-2.2-3.72,1.84.06-1.38.55-1.81,2.04-1.01,2.15,3.62,3.22,2.5-.13-3.67,4.01-1.53,1.77-4.59-.54-1.77.66-1.37,1.39-.98.98.13,2.12-1.48,2.24-1.62.52-5.1,2.65,1.41,2.94-3.86.85,3.58,4.02-3.73,4.21-4.15.77-3.4-3.57-5.71-4.72-7.17-3.65-.18-1.18,4.7-5.3-.99.8-12.75-8.62-1.06-8.05-10.27-4.63-14.51-9.57-41.99-25.15-23.03-8.89-14.29-9.79,10.63-13.05,14.94-1.69,9.47,2.49,17.86-2.54,24.55-4.13,15.18,2.2,5.54-10.21,11.55,2.74,11.1-41.36,13.88-48.62,17.94-10.49,1.8-13.44,17.98-20.85,23.05-1.34,6.3,8.04,2.37,2.18,7.47,7.95,9.25-12.33,14.91-17.81,16.68-6.77-4.24-29.63,1.42-20.96,10.28,4.63,1.95,2.58,5.17.02,7.07-14.88,17.07-37.72,33.59-57.65,37.08-5.13-1.66,5.27-1.64,3.3-3.31-1.32.4-2.34-1.03-2.72-.6.23,2.42-10.41-1.83-10.41-2.33,5.39-6.75,8.8-25.81,10.97-21.14-1.84.73-.18,2.23.36,1.84,6.29-7.36-2.52-19.09-3.07-25.99-5.69-15.69-12.25-.32-17.03,4.9-7.96-2.31-2.8-8.18.43-10.42,1.41-6.1,6.67-15.22-.43-19.69-1.11-5.1,7.09,2.91-1.81-8.46-9.42-.77-15.91-8.32-23.74-5.8,1.67,1.57-1.83,2.29-1.82,3.34-1.08,3.98,6.32,4.18,1.35,5.15-7.07-1.97-4.72,22.36-5.73,9.49-1.34-2.38-1.13,6.19-1.63,4.6-1.79-3.63.06-7.37-.11-9.88-3.09,3.01-4.25,7.85-7.77,7.92,1.19,3.86-.84,3.39-2.61,4.71,2.36,8.64-1.81,16.9-1.1,24.6,12,15.76,4.36,36.18-.5,49.21,3.4-10.59-.16-7.92-6.75-4.9-15.04-6.88-15.34-44.28-9.19-56.05-4.23-7.73,11.01-25.62,3.72-24.07-2.33,7.04-8.07,11.23-11.47,16.83-4.53-1.82,11.84-23.72,12.09-29.45,1.55,8.17,2.33-1.91,5.89-.5,3.72-3.61-3.78,4.67.3,4.91,3.03-5.99,7.18-10.03,14.32-9.4,2.9-7.85,11.48.85,14.26.26-1.52-5.53,3.01-2.42,5.23-2.39,8.02-1.76,10.12,1.66,3.85-5.06-4.12.82-2.1-2.51-.71-1.13.79-2.64-.12-2.53-.91-4,1.15-3.44-.76-3.4-2.68-1.96-5.96,4.52-2.64-1.39-7.77,2.16-.95.07-.38-1.12-.93-.83-5.58,2.48-.19-7.37-2.37-6.41-5.99,3.37-12.82,3.94-18.08,4.92-2.93,1.55-5.87,6.73-6.72,3.36-2.7-1.61.69,2.06-.61,2.01-3.43.05-4.74-2.37-7.02.08-7.13-2.22-12.98-15.6-20.04-5.71-2.04-5.35,6.96-12.11,10.35-13.79-3.93-4.89-11.93,3.03-14.55,5.19-8.91,12.69-13.52,6.37-19.25,13.41-8.86,3.22-3.45,3.12-1.18,7.29-3.72-7.11-10.44-4.81-12.55-5.55,3.14-4.17,2.74-10.5-2.76-5.22-38.23,16.89,15.48-23.77,22.16-26.35-5.74,1.98-6.38-.31-8.91-1.72-13.49,2.49-6.78.02-12.35-1.63-3.7,2.73-10.19,6.78-11.94,1.05-7.19-2.07-13.62-6.64-21.53-8.3-15.68,5.93-2.67-.14-15.8-.17-.08-2.56-3.67-.48-4.23-.92-5.33-3.77-1.03-16.43-9.41-13.91.01,2.61.35,9.09-.13,7.74-137.23,1.2-275.42-20.9-400.89-54.37,2.36,4.49-.67,5.76,1.23,7.56,2.31-4.84,2.06.44,1.8,1.76-1.9-1.39-.56,3.16-1.09,2.13-2.02-7.73-3.29,3.71-5.36,4.31,2.04,2.78,1.47,6.01,2.98,7.81,3.31.82.67-4.37.16-4.01-.39.53-.97,1.56-.74.9.98-2.47-.31-4.3-1.25-4.62,5.52-1.7,1.37-.46,2.69-3.66,4.98,7.29-1.4,1.36-.42,6.52,3.25,5.75-.02-2.32,1.75-1.39-.67,3.02,2.07,4.6.78,6.04-6.48.66-3.33,16.55-7.56,13.2-1.03-1.22-.61.9-1,.88-1.61,2.66-4.34,3.03-4.62,1.03-.36,2.35-.8-1.42-.92-.39-1.19,3.95-.58-.98-.92-.54-.71.14-2.56.83-1.8.38,2.39-2.64,4.18,1.62,3.89-3.4,2.75-3.12-.51,3.22.69,2.99.75-1.07,1.29-3.52,2.33-3.52.48.36.8.31.47.56-1.97,2.66.86,3.6.69.56,5.03-7.28-1.82-2.23.38-5.47-1.17-.41.47-1.53.3-1.03.29,1.94.59,1.1.96.45-.08-3.5-.03-1.18,1.62-2.48,1.99-.33,2.97-7.43-3.04-.1-3.12,2.33-11.32,6.43-3.38,5.49-10.44,4.08.8-5.26,2.01-8.24,3.56-1.79-.91,3.67.35,2.87,3.7-4.04,3.89-5.4,4.14-8.12-1.17-.57-1.55,1.94-1.61,1.27-.23-1.43.61-1.69.9-2.13-1.45-2.3-2.6,2.79-2.33,2.04,0-1.09-.59-3.39-1.37-2.28-1.29,4.11-.79-2.31-1.32-1.59-5.44.16-9.89-3.59-12.95-4.49-1.58-1.2-9.05-10.14-8.61-6.72-.84,3.49-3.61,9.13-.44,12.52-.45,3.97-.91,20.25.39,17.75-.11,1.22,4.61,3.13,3.51,2.93-.93.17-3.35-.31-3.04.21.37,1.9-1.56,1.25-1.45.68-.09-3.98-.7,3.56-.16,2.97,2.07.11,3.41.78,3.17,1.99-3.52-1.98-2.24,6.29-2.38,5.84-.15-1.28-1.64-2.88-1.8-1.67.78,2.13-.76,1.77-.47,1.03,2.2-14.51-5.27,7.64,3.86,3.38,5.08,3.93-2.35,1.33-3.06,1.71-2.87-4.28-1.42,1.98-1.99,2.72-6.92,14.04-13.53,42.91-23.47,55.13-6.22,7.05-9.65,18.7-6.77,28.81m0,0c1.31,14.42-10.54,24.7-13.8,36.6,9.6,13.96,2.58,17.69,2.2,31.8,6.81,6.37,8.27,40.85,16.4,21.9,4.42,4.54-2.46,2.8.1,6.2-1.45,2.85,5.45,14.36-2.8,6,.1-14.54-7.23,11.95,1,15.6,5.9-1.28,4.27,7.8-.3,8,.08,12.54,8.45,25.8,14.2,37.3-9.16,15.76,6.61,15.81,16.71,22,2.85,4.39,6.46,11,12.7,10.4,6.15,2.12-1.9,10.12,7.4,8.5,30.24,38.53-17.75,26.48,55.8,35.3-1.62,16.13,78.89,50.47,99,47.6m573.81-128.91-239.51-98.99l.9,1.1s-.9-1.1-.9-1.1Zm152,89.7s0,0,0,0c0,0,0,0,0,0Zm-31.7,55.1h.09s-.09,0-.09,0Zm-97.4-229.1s-.7-.5-.7-.5c0,0,.7.5.7.5Zm-52.8-12.1s-1.4-1.2-1.4-1.2c0,0,1.4,1.2,1.4,1.2Zm-3,1s-.9-.4-.9-.4c0,0,.9.4.9.4Zm47.9,362.6c-2.49.47-.92-3.06.4-3.7,2.8.5.69,2.59-.4,3.7Zm13,.7c-1.45-2.15-17.08,8.57-8.1-5.1,2.28,1.01,9.48,1.91,8.1,5.1Zm145.1-27.7s1.4,2.1,1.4,2.1c0,0-1.4-2.1-1.4-2.1Zm87-336.8l.6-1.9-.6,1.9Z"/>
</svg>