<svg width="114" height="157" viewBox="0 0 114 157" fill="none" xmlns="http://www.w3.org/2000/svg">
<g id="outline-il 1" clip-path="url(#clip0_1467_283)">
<g id="single_state_map">
<path id="Vector" d="M100.016 72.7437L100.011 73.0369L100.008 73.3146L100.006 73.3908L100.006 73.5026L99.996 76.0005L99.9978 78.048L99.9997 78.2472L99.9997 78.4649L99.9995 78.8759L100.007 82.1854L100.013 82.7163L100.015 82.7156L100.023 85.0368L100.024 85.5498L100.023 86.0839L100.029 86.971L100.031 87.0787L100.03 87.4901L100.031 87.7085L100.031 87.7975L100.034 88.27L100.037 88.6012V88.6315L100.03 91.1331L99.7607 90.9918L99.5342 91.3416L99.0123 91.3456L98.7778 91.529L98.5311 92.1182L98.5846 92.4961L98.5933 92.5831L98.3206 92.9814L98.4189 93.5753L98.6818 93.9598L98.8988 94.0687L98.9942 94.3673L99.0946 94.7766L99.0407 94.9812L98.7881 95.355L98.0863 96.0023L97.658 96.2288L97.5368 96.8418L97.5989 97.3006L97.8366 97.5774L97.8229 97.701V97.8062L97.8365 97.9114L97.8773 97.9815L97.9863 98.0516L98.1225 98.0867L98.1634 98.2094L98.177 98.3846L98.2451 98.5073L98.354 98.5949L98.6189 98.6737L99.1376 99.3007L99.0844 99.952L99.2007 100.363L98.9952 100.862L99.0126 101.221L100.077 101.693L100.455 102.184L100.31 103.058L100.118 103.492L99.7591 103.845L99.6875 104.39L99.5564 104.733L99.619 104.839L100.156 105.14L100.248 105.761L100.124 105.997L100.796 107.103L100.744 107.684L100.797 108.104L100.356 108.841L100.293 109.375L100.04 109.742L99.7275 109.921L98.6777 110.206L98.101 110.985L98.0518 111.559L97.9434 111.934L98.0133 112.17L98.0188 112.253L97.9631 112.334L97.8995 112.365L97.7165 112.405L97.416 112.972L97.434 113.304L97.2153 113.726L97.3233 114.28L97.3665 114.386L97.3585 114.539L97.2949 114.671L97.1506 114.789L96.8306 114.914L96.5075 115.203L96.0526 115.43L95.688 115.462L95.4971 115.564L95.4096 115.767L95.4175 116.01L95.5798 116.178L95.7018 116.358L95.6895 116.458L95.464 116.662L95.3721 117.401L94.6144 118.461L94.0457 118.675L93.6827 119.126L93.4645 119.739L93.4809 120.227L93.442 120.452L93.3442 120.602L93.1974 120.689L93.0213 120.726L92.8648 120.664L92.6789 120.452L92.5322 120.39L92.4246 120.44L92.3659 120.614L92.2624 120.836L92.0235 121.087L91.818 121.149L91.7006 121.075L91.6322 120.851L91.5246 120.714L91.368 120.639L91.1528 120.726L90.8606 121.156L90.8791 121.295L90.9963 121.622L90.8887 121.896L90.684 122.173L90.4933 122.165L90.3506 122.294L90.2626 122.418L90.1941 122.605L90.1604 122.926L90.3439 123.262L90.6998 123.635L91.1869 123.972L91.368 124.072L91.505 124.308L91.5246 124.631L91.0057 125.234L90.3776 125.363L90.018 125.674L89.8224 125.948L89.8517 126.245L89.93 126.432L90.1061 126.63L90.1452 126.829L90.0278 127.176L89.6071 127.375L89.3723 127.449L89.2647 127.685L89.1669 128.045L89.2532 128.537L89.5423 129.371L89.5346 129.661L89.0288 130.319L88.8538 130.759L89.0006 131.13L89.1278 131.452L89.0887 131.663L88.8734 131.849L88.7169 131.972L88.6289 132.121L88.5799 132.269L88.5408 132.455L88.5799 132.727L88.6582 132.938L88.756 133.049L88.8441 133.136L88.8734 133.247L88.8538 133.408L88.7462 133.532L88.7169 133.643L88.6875 133.766V133.878L88.7365 133.952L88.8147 134.051L88.9638 134.098L89.1758 134.158L89.2053 134.279L89.1092 134.357L89.0352 134.48L88.9711 134.69L88.9252 135.027L88.8875 135.163L88.7274 135.523L88.5171 135.838L88.4252 135.948L88.2346 136.095L88.0299 136.175L87.9432 136.225L87.7282 136.373L87.5955 136.515L87.4812 136.574L87.2475 136.665L87.147 136.745L87.0898 136.816L86.9305 137.09L86.8881 137.246L86.6449 137.491L86.5095 137.697L86.3664 137.987L86.341 138.062L86.3232 138.179L86.3259 138.268L86.3569 138.412L86.3627 138.664L86.3965 138.861L86.4867 139.135L86.7149 139.66L86.747 139.786L86.7585 139.893L86.7429 140.014L86.764 140.135L86.8471 140.304L86.9075 140.471L86.9461 140.505L87.1665 140.637L87.3232 140.802L87.514 140.967L87.6102 141.1L87.7925 141.421L87.8964 141.545L87.9368 141.571L88.1145 141.63L88.2411 141.718L88.3114 141.815L88.4359 142.077L88.4521 142.137L88.4464 142.287L88.4799 142.366L88.4522 142.621L88.4183 142.729L88.4437 142.801L88.4607 142.81L88.458 142.843L88.4157 142.934L88.3395 143.015L88.3226 143.006L88.238 142.961L88.1158 143.054L87.981 143.259L87.9048 143.304H87.8455L87.8286 143.286V143.259L87.727 143.25L87.4304 143.268L87.0249 143.319L86.9242 143.29L86.8694 143.288L86.3914 143.417L86.0707 143.453L85.994 143.503L85.7032 143.555L85.304 143.602L84.9095 143.679L84.631 143.695L84.2513 143.697L83.674 143.81L83.3217 143.969L82.9997 144.14L82.892 144.261L82.8118 144.301L82.6063 144.449L82.5505 144.507L82.2185 144.959L81.9998 145.12L81.9317 145.173L81.8464 145.207L81.7211 145.178L81.6725 145.134L81.5839 144.984L81.3623 144.801L81.1514 144.659L81.0033 144.591L80.9013 144.561L80.8075 144.582L80.6878 144.65L80.5267 144.72L80.3697 144.755L80.2356 144.803L80.0002 144.932L79.8721 145.02L79.657 145.238L79.5619 145.356L79.423 145.613L79.3809 145.937L79.3026 146.223L79.2917 146.489L79.2514 146.744L79.1972 146.908L79.1238 147.033L79.0404 147.234L78.9002 147.505L78.8016 147.778L78.7237 147.901L78.6618 148.033L78.5928 148.24L78.5649 148.43L78.7035 148.721L78.7611 148.905L78.7091 149.029L78.7374 149.08L78.8956 149.263L79.0786 149.404L79.19 149.523L79.24 149.614L79.3546 149.919L79.3884 149.984L79.5285 150.178L79.6326 150.263L79.8118 150.359L79.9887 150.536L80.0517 150.632L80.1784 151.029L80.2313 151.228L80.2694 151.275L80.3638 151.662L80.3566 151.711L80.4066 151.814L80.4411 151.859L80.4806 151.883L80.5612 152.029L80.553 152.098L80.3366 152.74L80.312 152.777L80.1439 153.21V153.229L80.1612 153.247L80.1206 153.499L79.8078 154.177L79.4332 154.329L79.2864 154.359L79.1291 154.338L78.8158 154.41L78.5995 154.41L78.4451 154.401L78.2239 154.357L77.9224 154.28L77.6033 154.116L77.3996 153.947L77.2395 153.848L77.1322 153.719L76.9671 153.471L76.8643 153.413L76.7068 153.268L76.4822 153.113L76.1671 152.93L76.0643 152.888L75.9035 152.879L75.7532 152.837L74.8177 152.386L74.6821 152.337L74.4952 152.296L74.1099 152.351L74.0397 152.336L73.8508 152.261L73.7236 152.191L73.5463 152.053L73.3936 151.967L73.1256 151.749L72.8946 151.582L72.8179 151.481L72.6548 151.314L72.4274 151.143L72.2454 151.041L71.9136 150.942L71.6057 150.825L70.8538 150.463L70.1273 150.201L69.82 150.064L69.734 150.051L69.497 149.974L69.2709 149.941L68.7319 149.911L68.3736 149.944L67.9874 150.061L67.8224 150.166L67.8794 150.149L67.7031 150.289L67.3547 150.424L67.1892 150.621L67.1086 150.65L66.7429 151.036L66.3463 151.409L66.1215 151.669L65.9818 151.92L65.9203 152.085L65.9003 152.199L65.8485 152.342L65.5837 152.941L65.4879 153.03L65.3814 153.093L65.3475 153.152L65.2809 153.221L65.0659 153.372L65.0459 153.401L64.9939 153.546L64.9266 153.629L64.8115 153.715L64.7417 153.739L64.7091 153.721L64.6391 153.764L64.3428 154.165L64.1763 154.497L64.0965 154.744L64.0532 154.927L64.0283 155.173L64.0645 155.458L64.1054 155.619L64.2227 155.879L64.2767 155.97L64.3786 156.099L64.5047 156.189L64.9895 156.597L65.1149 156.676L64.9376 156.751L64.8657 156.759L64.7399 156.8L64.4807 156.933L64.301 157L64.1433 156.984L63.9633 156.912L63.8192 156.736L63.7551 156.469L63.7553 156.189L63.6799 155.87L63.6296 155.749L63.537 155.643L63.0912 155.342L62.9043 155.173L62.8127 155.021L62.6514 154.614L62.449 154.225L62.3398 154.442L62.2406 154.422L61.8941 154.411L61.8262 154.395L61.8219 154.369L61.5961 154.353L61.2976 154.29L61.2853 154.325L61.2301 154.611L61.2611 154.723L61.3048 154.814L61.3624 154.893L61.4363 154.963L61.6583 155.088L61.9521 155.204L62.2013 155.408L62.3383 155.555L62.3906 155.768L62.2615 156.189L62.2023 156.291L62.1298 156.37L62.0288 156.449L61.9322 156.499L61.6377 156.403L61.0917 155.842L60.9649 155.751L60.7865 155.646L60.463 155.494L60.1053 155.368L59.759 155.11L59.6856 155.017L59.6356 154.923L59.6194 154.874L59.6029 154.686L59.6083 154.615L59.7457 154.267L59.815 153.994L59.8171 153.845L59.7496 153.609L59.6304 153.372L59.5459 153.257L59.4286 153.156L59.1228 152.934L59.0295 152.847L58.9697 152.777L58.7274 152.417L58.5176 152.038L58.4506 151.787L58.0617 151.054L57.9362 150.742L57.9184 150.637L57.8104 150.231L57.8132 150.131L58.0138 149.625L58.0241 149.564L58.015 149.441L58.0024 149.398L57.9617 149.345L57.9188 149.32L57.7473 149.269L57.558 149.278L57.3244 149.325L57.1833 149.129L57.0542 148.985L56.9568 148.854L56.8012 148.618L56.733 148.488L56.7045 148.39L56.7034 148.284L56.7186 148.211L56.7612 148.12L56.786 148.011L56.7982 147.889L56.8462 147.696L56.893 147.602L56.9262 147.564L57.1243 147.404L57.21 147.314L57.2965 147.134L57.3443 147.079L57.4488 147.016L57.6591 146.947L58.0919 146.917L58.2482 146.884L58.4993 146.776L58.5692 146.704L58.6367 146.57L58.6706 146.455L58.8047 145.787L58.8261 145.591L58.8203 145.47L58.7954 145.332L58.7196 145.048L58.541 144.517L58.418 144.233L58.3368 144.098L58.1737 143.88L57.7325 143.43L57.6382 143.295L57.2778 142.674L57.1549 142.374L57.0994 142.154L57.0409 142.019L56.9418 141.842L56.8341 141.691L56.7458 141.533L56.7326 141.486L56.6445 141.032L56.6263 140.842L56.6405 140.34L56.6508 140.28L56.6725 140.237L56.7438 140.188L56.8004 140.18L56.8964 140.198L57.2342 140.309L57.4084 140.289L57.5163 140.23L57.5941 140.15L57.6272 140.031L57.6293 139.955L57.6167 139.885L57.5756 139.794L57.4143 139.566L56.9613 139.074L56.8749 138.889L56.7632 138.76L56.7181 138.629L56.7308 138.558L56.7586 138.51L56.7577 138.365L56.7375 138.22L56.7524 137.893L56.8008 137.656L56.8419 137.535L56.8426 137.41L56.7936 137.289L56.7406 137.211L56.6258 137.109L56.5434 137.055L56.4191 137.002L56.2615 136.983L55.6498 136.814L55.5012 136.762L55.2875 136.647L55.2025 136.53L55.1136 136.362L54.9986 136.106L54.8712 136.007L54.7327 135.919L54.6515 135.909L54.5838 135.846L54.5705 135.792L54.5762 135.685L54.5663 135.658L54.5469 135.643L54.3998 135.659L54.3128 135.686L54.1959 135.751L53.9329 135.742L53.8435 135.759L53.6489 135.698L53.5421 135.633L53.4942 135.577L53.4409 135.374L53.474 135.244L53.5251 135.125L53.5892 134.926L53.6102 134.78L53.6069 134.635L53.5864 134.582L53.5283 134.511L53.4049 134.259L53.2313 134.118L53.1169 134.042L52.8179 133.862L52.6808 133.794L52.3617 133.548L52.1011 133.29L52.0289 133.195L51.9482 133.058L51.8733 132.963L51.6533 132.962L51.563 132.979L51.4919 132.944L51.3909 132.86L51.3205 132.829L51.1224 132.82L51.002 132.771L50.9538 132.738L50.8593 132.831L50.6991 132.684L50.6474 132.616L50.5542 132.365L50.5657 132.289L50.6127 132.211L50.6048 132.06L50.5766 132.009L50.4767 131.969L50.2644 131.838L49.7714 131.449L49.632 131.356L49.5854 131.345L49.4488 131.389L49.1893 131.584L49.1012 131.678L48.8917 131.96L48.7852 132.062L48.4401 132.283L48.3413 132.332L48.0908 132.337L47.8756 132.308L47.566 132.197L47.2779 132.009L47.2363 131.962L46.8187 131.078L46.7753 131.011L46.7626 130.968L46.7474 130.761L46.8903 130.631L47.0232 130.55L47.0805 130.389L47.3469 130.385L47.5541 130.224L47.6732 130.188L47.8276 130.004L47.8402 129.958L47.8342 129.842L47.6442 129.866L47.5986 129.854L47.5759 129.813L47.5582 129.704L47.4632 129.563L47.1838 129.659L46.6602 129.765L46.4993 129.781L46.2636 129.753L46.198 129.716L46.0183 129.561L45.4936 128.868L45.1993 128.736L45.1295 128.69L45.0804 128.638L45.0472 128.574L45.0328 128.504L44.9923 128.407L44.9515 128.34L44.9058 128.307L44.7819 128.271L44.6241 128.267L44.4349 128.311L44.2757 128.301L44.1554 128.244L43.7902 128.003L43.6397 127.86L43.4484 127.612L43.4393 127.521L43.4525 127.339L43.444 127.219L43.4055 127.088L43.3482 127.013L43.048 126.828L42.7431 126.67L42.6771 126.666L42.6368 126.681L42.4447 126.811L41.4308 126.127L40.8986 125.621L40.7459 125.278L40.6943 125.208L40.2048 124.376L40.0268 124.187L39.8594 124.02L39.6473 123.888L39.4262 123.795L39.2908 123.771L39.1705 123.712L38.9699 123.546L38.9109 123.481L38.4825 122.818L38.4329 122.717L38.3592 122.522L38.2639 122.194L38.1966 121.814L38.1802 121.654L38.112 121.332L38.0907 121.152L38.0458 120.932L38.0482 120.582L38.094 120.308L38.0765 119.78L38.1136 119.497L38.1703 119.311L38.4298 118.753L38.5732 118.273L38.6523 118.155L38.7177 118.055L39.0361 117.703L39.1713 117.602L39.7602 116.908L39.9019 116.582L39.9805 116.443L40.0066 116.232L40.1113 115.637L40.1833 115.439L40.2051 115.253L40.2836 114.98L40.3381 114.699L40.4472 114.298L40.5235 114.081L40.7721 113.624L41.3108 112.78L41.3566 112.741L41.4744 112.677L41.6183 112.533L41.7841 112.402L41.9258 112.24L42.0174 112.115L42.1766 111.763L42.3009 111.273L42.3184 111.145L42.3249 110.894L42.2508 110.425L42.2181 110.263L42.1352 110.001L41.9433 109.644L41.7906 109.479L41.638 109.22L41.5769 108.969L41.5791 108.796L41.59 108.701L41.6227 108.569L41.7252 108.399L42.0284 108.098L42.2006 107.989L42.3555 107.776L42.3817 107.614L42.4645 107.439L42.5714 107.268L43.001 106.978L43.5157 106.558L43.6335 106.343L43.6989 106.083L43.821 105.457L43.8145 105.287L43.729 105.126L42.8963 104.626L42.5714 104.369L42.1243 104.126L42.0502 104.092L41.9433 104.078L41.891 104.053L41.544 103.695L41.3364 103.501L41.1773 103.403L40.9294 103.292L40.743 103.166L40.6605 103.134L40.5959 103.126L40.4695 103.138L40.3151 103.076L40.1493 103.044L40.0132 103.034L39.6861 103.052L39.5247 103.049L39.4519 103.032L39.2748 102.926L39.1307 102.872L38.9267 102.77L38.6452 102.565L37.8452 102.155L37.5685 102.026L37.3384 101.956L37.1914 101.934L36.938 101.921L36.7413 101.873L36.6032 101.821L36.3695 101.81L36.1162 101.906L35.999 101.977L35.9044 102.06L35.6798 102.463L35.6598 102.528L35.6573 102.575L35.6731 102.736L35.5805 102.98L35.2939 103.416L35.1339 103.63L34.9265 103.74L34.6178 104.069L34.3362 104.405L34.296 104.435L34.0819 104.525L33.8449 104.579L33.6233 104.593L33.4779 104.574L33.2169 104.405L32.5677 104.025L32.4944 103.942L32.3328 103.597L32.2451 103.476L32.0691 103.368L31.9562 103.256L31.867 103.14L31.7766 103.008L31.7336 102.922L31.6858 102.751L31.6059 102.359L31.5488 102.243L31.4593 101.968L31.4491 101.865L31.4495 101.352L31.4104 101.135L31.3259 100.941L31.2906 100.905L31.2026 100.756L31.1788 100.701L31.1529 100.566L31.1005 100.44L30.9218 100.092L30.7628 99.7221L30.6823 99.5949L30.6376 99.3935L30.6385 99.3489L30.6613 99.3069L30.8882 99.0684L30.9089 98.9326L30.9256 98.894L31.3111 98.4293L31.3275 98.3811L31.3473 98.0858L31.2724 97.7215L31.239 97.6031L31.045 97.2692L30.9247 97.1075L30.8711 97.0145L30.8221 96.8909L30.7625 96.6744L30.7353 96.555L30.7177 96.0547L30.7063 95.958L30.6214 95.7067L30.5553 95.3665L30.5548 95.2154L30.5711 95.1049L30.5729 95.0012L30.5616 94.9028L30.4586 94.6162L30.4727 94.4456L30.4639 94.3738L30.3464 93.8551L30.2814 93.7224L30.1938 93.6322L30.0824 93.5536L29.8689 93.4908L29.8095 93.4541L29.4595 93.0435L29.3235 92.7475L29.2845 92.6837L29.1075 92.5612L28.9574 92.3996L28.9352 92.2856L28.8966 92.2141L28.7683 92.113L28.3865 91.9045L28.2894 91.8154L27.8794 91.343L27.7181 91.2068L27.4649 91.0351L26.7089 90.5851L26.5711 90.444L26.5153 90.3591L26.5098 90.298L26.4672 90.2454L26.3987 90.2057L26.2535 90.1734L26.1157 90.1246L26.0367 90.0838L25.9463 90.016L25.8316 89.8868L25.794 89.7402L25.7572 89.6423L25.7221 89.5876L25.6842 89.5526L25.5199 89.4535L25.3201 89.4114L25.1016 89.3281L24.9929 89.2662L24.8805 89.1494L24.7627 89.0881L24.5278 89.0177L24.3119 88.8868L24.1317 88.7442L23.8775 88.574L23.5578 88.2993L23.2353 87.9132L23.0961 87.7231L23.0313 87.5747L22.99 86.9956L22.75 86.7641L22.6528 86.6263L22.5105 86.3605L22.3671 86.0179L22.2049 85.7519L21.8996 85.684L21.6307 85.6522L21.1588 85.5513L21.0421 85.4821L20.9335 85.3465L20.8238 85.1907L20.7195 85.0109L20.6889 84.8802L20.6492 84.5314L20.5927 84.2466L20.5836 84.2088L20.5103 84.0708L20.4247 83.9441L20.3378 83.8751L19.6679 83.5923L19.522 83.5222L19.3914 83.4303L19.1317 83.1698L19.0808 83.085L19.0295 82.9649L18.967 82.864L18.7119 82.6336L18.5748 82.4082L18.3703 82.1602L18.2135 82.0364L17.9854 81.9053L17.7958 81.7677L17.7333 81.6452L17.4615 81.4009L17.1608 81.1789L16.8621 80.925L16.6996 80.7586L16.3724 80.3693L16.3232 80.2703L16.3244 79.9157L16.38 79.6654L16.4096 79.6066L16.4297 79.5282L16.4127 79.3516L16.4173 79.0695L16.4358 78.9426L16.5034 78.7813L16.5072 78.7113L16.4664 78.5624L16.3678 78.347L16.2111 78.1072L16.1496 78.0388L15.9794 77.9174L15.716 77.7595L15.5334 77.6078L15.3527 77.5082L15.0254 77.2865L14.9513 77.2084L14.883 77.0678L14.6576 76.3618L14.6258 76.1474L14.6459 76.0031L14.7202 75.7037L15.0377 75.3021L15.2139 75.0994L15.2356 75.0521L15.259 74.8933L15.247 74.7345L15.193 74.5852L15.1069 74.4491L15.0355 74.3645L14.8603 74.2033L14.7628 74.0646L14.639 73.8315L14.583 73.6674L14.4774 73.4961L14.3857 73.277L14.3709 73.2521L14.2804 73.1966L14.2448 73.1355L14.215 73.0429L14.2016 72.9468L14.159 72.8133L13.9834 72.4248L13.8359 72.1308L13.7642 72.0207L13.6001 71.6438L13.715 71.0468L13.5894 70.6622L13.5393 70.4543L13.4704 70.0928L13.3574 69.6039L13.2867 69.2123L13.2632 69.038L13.2321 68.494L13.2356 68.4319L13.3068 68.2309L13.309 68.1927L13.2276 67.8286L13.2031 67.5978L13.2054 67.5258L13.2469 67.3054L13.2801 67.2329L13.3685 67.1112L13.3907 67.0355L13.343 66.8502L13.3298 66.7196L13.3369 66.5424L13.395 66.2929L13.3948 66.0814L13.3582 66.0074L13.3466 65.9504L13.3613 65.8781L13.4179 65.7458L13.4697 65.6817L13.5297 65.6332L13.695 65.2886L13.7071 65.2075L13.695 65.1369L13.6434 64.991L13.6397 64.8386L13.647 64.7543L13.7093 64.5307L13.792 64.32L14.1028 63.6371L14.1501 63.4923L14.2167 63.148L14.314 62.9207L14.53 62.5991L14.626 62.443L14.6593 62.366L14.6914 62.3275L14.8112 62.2304L15.0271 62.1213L15.0884 62.0755L15.2456 61.896L15.3269 61.8069L15.3854 61.7813L15.7347 61.757L15.923 61.7055L16.0626 61.6282L16.1397 61.5699L16.1981 61.5067L16.2597 61.3L16.2677 61.2402L16.27 60.9463L16.2423 60.7628L16.1571 60.5212L16.0843 60.262L16.0667 60.0571L16.0733 59.9573L16.1073 59.7836L16.1458 59.661L16.3654 59.1386L16.4343 58.8658L16.4562 58.6953L16.4612 58.5782L16.4496 58.4112L16.3697 58.1123L16.3439 58.0535L16.0648 57.6032L16.0065 57.5258L15.9294 57.465L15.7896 57.4228L15.6533 57.3584L15.5792 57.2914L15.5339 57.1891L15.5198 57.0498L15.5302 56.9273L15.5549 56.8468L15.6368 56.7087L16.1107 56.2789L16.2307 56.0454L16.5443 55.4943L16.6726 55.3581L16.7872 55.268L16.9838 55.1592L17.7077 54.7935L18.3695 54.6211L18.6143 54.5737L18.7605 54.4939L18.8733 54.4569L18.9872 54.4446L19.6287 54.4432L20.0764 54.5101L20.3147 54.476L21.0276 54.0081L21.3817 53.7986L21.6898 53.5615L21.7226 53.5177L21.7575 53.4574L21.7834 53.3679L21.8756 52.9103L21.9512 52.7612L21.9733 52.5818L21.9696 52.4375L21.9088 52.1143L21.881 52.0464L21.8684 51.9523L21.9842 51.3671L22.0327 51.2117L22.1574 51.0351L22.2529 50.8581L22.2959 50.7459L22.3925 50.3843L22.4025 50.1825L22.3805 50.0046L22.2763 49.7295L22.2628 49.6401L22.2804 49.4663L22.3644 49.194L22.4281 49.0916L22.7018 48.8392L22.9278 48.5919L23.1112 48.4677L23.1618 48.4079L23.2967 48.1163L23.3599 47.9395L23.4186 47.8329L23.5398 47.6828L23.5901 47.6404L23.7929 47.5213L23.9222 47.3817L24.1036 47.0186L24.1844 46.905L24.3153 46.773L24.4251 46.6873L24.7094 46.5714L24.8462 46.474L25.0685 46.3701L25.1482 46.2978L25.2011 46.202L25.2546 45.8734L25.4341 45.3633L25.4399 45.2425L25.4236 45.1314L25.3713 44.9073L25.3064 44.7116L25.3052 44.6215L25.3694 44.4184L25.4908 44.1748L25.5711 43.8502L25.5906 43.6937L25.5848 43.4812L25.6517 43.036L25.6503 42.9271L25.6212 42.6336L25.6011 42.5291L25.5799 42.2554L25.5016 41.9989L25.4962 41.9382L25.5219 41.6001L25.5644 41.3018L25.5563 41.247L25.3248 40.8293L25.1359 40.5843L25.0281 40.2793L24.8 39.9163L24.6178 39.5387L24.5023 39.3967L24.438 39.3406L24.2269 39.2359L24.1185 39.2434L23.7989 39.3172L23.7375 39.3123L23.4866 39.2372L23.1914 38.6692L22.9553 38.2712L22.8008 38.0503L22.6162 37.8395L22.3638 37.6019L22.1935 37.3733L22.003 37.1985L21.9426 37.1279L21.9139 37.0585L21.9022 36.8086L21.9869 36.633L22.1143 36.4587L22.1867 36.312L22.3853 35.7398L22.4977 35.5236L22.7021 35.3074L22.7602 35.1987L22.7953 34.9708L22.832 34.2106L22.9417 33.468L22.9736 33.3561L23.2675 32.8864L23.28 32.8204L23.2948 32.4577L23.3495 32.1427L23.3916 32.0502L23.4331 31.9975L23.5229 31.9213L23.5826 31.8779L23.7864 31.7737L24.1311 31.7324L24.2649 31.7002L24.7217 31.4755L24.8326 31.4624L24.9339 31.4721L25.1194 31.5864L25.413 31.731L25.4873 31.7575L25.9186 31.8376L26.0423 31.7953L26.1512 31.716L26.5629 31.5544L26.7741 31.4301L27.0142 31.2665L27.2867 31.0587L27.4989 30.9269L27.585 30.8933L27.7387 30.8575L27.9381 30.8435L28.2145 30.877L28.5952 30.8771L29.0532 30.9229L29.2429 30.9702L29.3718 30.9847L29.8413 31.0175L30.1162 31.0032L30.4213 30.9415L30.9095 30.869L31.1321 30.8138L31.4486 30.6921L31.6711 30.6979L31.8979 30.6543L32.02 30.57L32.2381 30.3288L32.406 30.1718L32.7113 29.9886L32.9861 29.7211L33.0232 29.6397L33.069 29.378L33.2195 29.2326L33.3111 29.1802L33.5074 29.1133L33.7451 29.0784L33.8301 29.0435L34.07 28.8486L34.4037 28.7933L34.576 28.8282L35.01 28.9853L35.2826 29.029L35.516 29.0231L35.8562 28.9795L36.1375 28.869L36.4908 28.5024L36.6391 28.2696L36.7634 28.1125L36.8834 28.0543L36.9924 27.9757L37.132 27.7225L37.1974 27.6526L37.5224 27.4517L37.8844 27.3236L38.2595 27.2363L38.7153 26.9975L38.7524 26.916L38.796 26.683L38.7131 25.4529L38.7104 25.275L38.857 24.7628L38.9051 24.3246L38.9497 24.2492L38.9989 24.1965L39.2235 24.0283L39.2804 23.9714L39.3377 23.8793L39.365 23.7844L39.3795 23.6577L39.3769 23.5088L39.3675 23.4515L39.2781 23.1936L39.2727 23.0665L39.3261 22.7287L39.4245 22.4967L39.5974 22.2685L40.124 21.7626L40.4587 21.6238L40.5604 21.5308L40.7783 21.3991L41.3533 21.0098L41.4705 20.9455L42.1012 20.7168L42.232 20.6026L42.2542 20.5359L42.261 20.4592L42.2375 20.1488L42.1884 19.8428L42.1929 19.7501L42.2335 19.5462L42.2444 19.5043L42.3829 19.2417L42.4275 19.1314L42.4328 18.8756L42.4922 18.5746L42.6007 18.36L42.7762 17.9433L42.8511 17.6918L42.8559 17.429L42.8943 16.978L42.8712 16.9178L42.7787 16.7678L42.697 16.6898L42.6273 16.57L42.6034 16.4551L42.621 16.2408L42.6645 16.091L42.8456 15.7153L42.9598 15.5937L43.0116 15.504L43.0157 15.3045L43.1339 15.0742L43.146 14.8616L43.1219 14.6952L43.065 14.5207L42.9708 14.3703L42.9486 14.2921L42.9351 14.1782L42.9093 14.0939L42.8948 14.0589L42.8372 13.9874L42.7367 13.8497L42.636 13.7723L42.6133 13.7225L42.5957 13.4624L42.59 13.1203L42.5289 12.7347L42.6369 12.3875L42.6784 12.0558L42.6859 11.8368L42.6701 11.6194L42.648 11.5331L42.5469 11.3641L42.4719 11.2841L42.112 11.2775L42.0471 11.267L41.8968 11.197L41.8082 11.1156L41.7219 10.8764L41.6999 10.6878L41.677 10.5818L41.6321 10.4769L41.4876 10.3579L41.3101 10.261L41.0773 10.1023L40.7456 9.92485L40.6294 9.91451L40.3323 9.83578L40.0468 9.70805L39.692 9.45146L39.2704 9.26883L39.0414 9.05545L38.8256 8.9886L38.4157 8.92615L38.2375 8.77675L38.0196 8.65074L37.6711 8.33718L37.5917 8.23171L37.567 8.11188L37.463 7.93067L37.2489 7.68189L37.1214 7.56626L37.0558 7.48423L36.9935 7.32438L36.9517 7.13412L36.8037 6.78487L36.8069 6.6088L36.8904 6.4172L36.9467 6.34044L37.0312 5.98568L37.0345 5.79967L37.0182 5.66952L37.0394 5.62321L37.1038 5.55659L37.1239 5.5162L37.1297 5.4754L37.1166 5.40441L37.0623 5.30437L37.0116 5.24642L36.9241 5.18328L36.8111 5.05822L36.5204 4.51724L36.4671 4.46351L36.3274 4.39684L36.1116 4.16251L36.0643 4.09769L35.9447 3.83522L35.8608 3.73574L35.7919 3.67485L35.7293 3.65061L35.6318 3.65315L35.5766 3.63513L35.5072 3.57758L35.3887 3.4209L35.2936 3.32851L35.1475 3.23257L34.9144 3.1079L34.2481 2.8101L34.0966 2.72092L34.0414 2.62888L34.0279 2.57795L34.0141 2.35569L33.9784 2.22645L33.8735 2.05396L33.8142 2.00536L33.7538 1.96664L33.5054 1.88589L33.3246 1.79569L32.9776 1.67727L32.5851 1.45886L32.0966 1.07504L31.9374 0.880182L31.8872 0.729572L31.8829 0.564181L31.8959 0.490341L32.0551 0.301328L32.2231 0L32.7289 0.00664747L32.7974 0.00735653L33.8693 0.02074L34.0782 0.0234285L34.1806 0.0180515L34.3194 0.0174015L34.3293 0.0175788L34.593 0.0215377L35.4771 0.020031L35.7447 0.0261761L35.8426 0.0241671L36.6701 0.0341234L37.348 0.0416866L38.1168 0.035187L38.1778 0.0350983L38.2917 0.0370482L39.5747 0.0246103L40.2498 0.0227785L40.3268 0.0170175L40.3746 0.0194992L40.6804 0.0284214L40.7349 0.023074L41.3331 0.0158652L41.7064 0.016397L42.2407 0.00691336L42.616 0.00088633L43.0836 0.00446119L44.1286 0.01232L44.1717 0.00419529L44.5938 0.000797697L45.7934 0.0299577L45.8291 0.0347143L46.2154 0.0410071L46.2612 0.0457045L46.5135 0.0552766L46.526 0.0543017L47.1755 0.079059L47.8037 0.0743025L47.8061 0.074273L50.5207 0.0844358L50.5685 0.0851153L50.6938 0.0837859L50.9916 0.0872424L51.2241 0.08804L51.8183 0.0862675L52.8849 0.0946281L52.959 0.0919102L53.4495 0.0987346L53.8262 0.108986L53.9603 0.111733L54.6312 0.128809L54.8468 0.140183L54.9236 0.136785L55.0375 0.142812L55.6999 0.167627L56.6129 0.189458L57.2524 0.200536H57.2656L57.4469 0.203136L58.7365 0.223814L58.7635 0.221097L58.7931 0.225173L58.8275 0.227861L59.254 0.23247L60.0261 0.237167L60.1236 0.244906L61.6646 0.279143L62.5399 0.304518L62.6225 0.300501L63.0302 0.302952L63.074 0.305611L64.3725 0.326318L64.4122 0.32363L65.2801 0.33515L65.3836 0.334116L65.4581 0.336538L65.8492 0.348679L66.4571 0.357275L67.073 0.355886L67.7075 0.360554L67.7104 0.360849L68.1686 0.36268L69.2458 0.38959L69.3085 0.391598L72.6606 0.482071L73.1255 0.479561L74.39 0.434694L75.8888 0.391687L78.7618 0.396413L79.7544 0.404241H80.714L83.8915 0.398333L84.3626 0.368647L85.0864 0.365693L85.4512 0.362946L87.3024 0.35695L88.7309 0.383534L90.0307 0.407165L90.4429 0.421934L91.9921 0.451441L93.2275 0.472501L93.832 0.483932H94.1678L94.2202 1.08045L94.1047 2.58866L94.0611 3.64752L93.8168 4.24009L93.7233 4.32961L93.5024 5.25099L93.4199 6.09911L93.5551 7.02941L93.9106 8.15041L94.1767 8.85032L95.4504 11.1951L95.8212 11.7971L96.12 12.161L96.7437 12.7362L96.9813 13.2465L97.0021 13.4036L96.9719 13.5505L97.0354 14.1026L97.8648 16.9156L98.0153 17.7615L98.0394 17.8262L98.1068 17.8446L98.1596 17.9429L98.2309 18.0779L98.2717 18.0804L98.2855 18.1131V18.1572L98.2633 18.1999L98.2304 18.2241L98.2442 18.3394L98.1791 18.4004L98.1854 18.7942L98.3337 19.4872L98.5278 20.0251L98.9553 20.6825L99.0556 21.2172L99.398 21.8012L99.7862 22.2071L100.05 22.3209L100.194 23.0285L100.196 23.4853L100.177 23.6516L100.179 23.9724L100.183 25.6254L100.181 25.6983L100.183 25.9867L100.183 27.7108L100.174 27.8301L100.177 28.6885L100.161 30.4223L100.162 30.9017L100.168 33.0151L100.145 33.7417L100.137 35.4133L100.141 39.3029L100.139 39.4121L100.138 39.4307L100.138 39.5895L100.138 39.7265L100.138 40.0031L100.138 40.5286L100.142 43.3208L100.146 43.7322L100.147 43.7391L100.152 46.578L100.153 47.0486L100.144 47.0881L100.154 47.4797L100.151 47.506L100.158 48.236L100.151 51.6137L100.147 57.398L100.146 57.4065L100.145 58.6538L100.143 59.0666L100.142 59.1095L100.136 59.4957L100.065 65.5405L100.067 65.5586L100.048 67.2194L100.042 67.8403L100.035 68.4673L100.028 68.5743L100.032 68.8953L100.016 72.351V72.3537L100.016 72.6794L100.016 72.7437Z" fill="#595D9A"/>
</g>
</g>
<defs>
<clipPath id="clip0_1467_283">
<rect width="114" height="157" fill="white"/>
</clipPath>
</defs>
</svg>
