<?xml version="1.0" encoding="UTF-8"?>
<svg id="Layer_1" data-name="Layer 1" xmlns="http://www.w3.org/2000/svg" version="1.1" xmlns:xlink="http://www.w3.org/1999/xlink" viewBox="0 0 629 424.2">
  <defs>
    <style>
      .cls-1 {
        fill: #3a3a3a;
      }

      .cls-1, .cls-2, .cls-3 {
        stroke-width: 0px;
      }

      .cls-4 {
        isolation: isolate;
      }

      .cls-2 {
        fill: none;
      }

      .cls-3 {
        fill: #4c3527;
      }

      .cls-5 {
        clip-path: url(#clippath);
      }

      .cls-6 {
        mask: url(#mask);
      }
    </style>
    <clipPath id="clippath">
      <rect class="cls-2" x="2.3" width="253.3" height="424.2"/>
    </clipPath>
    <mask id="mask" x="1.8" y="0" width="254.7" height="424.4" maskUnits="userSpaceOnUse">
      <g id="ff104e481d">
        <image class="cls-4" width="1190" height="1980" transform="translate(1.8 0) scale(.2)" xlink:href="Brown Political Union YT (1)-1.png"/>
      </g>
    </mask>
  </defs>
  <g class="cls-5">
    <g class="cls-6">
      <g>
        <path class="cls-1" d="M187,424.4h-15.6c-.3-.1-.7-.2-1-.3-2.2-.8-4.5-1.4-6.6-2.4-2.7-1.2-5.3-2.5-7.7-4.2-4.2-2.9-7.6-6.6-10.4-10.8-1.7-2.5-3.3-5.2-4.6-7.9-1.4-3-2.5-6-3.5-9.2-.9-2.8-1.4-5.7-2.2-8.6,0-.3-.4-.5-.6-.7-.1,0-.2.1-.4.2,0,1.5.2,3,.3,4.5,0,2.4,0,4.7,0,7.1,0,1.7.3,3.4,1.1,4.9.2.4.7.9,1.1,1.1,1.1.6,2.1,1.4,2.3,2.7.2,1.4.3,2.8.2,4.2,0,.9-.5,2-1.2,2.5-1,.8-.9,1.6-.9,2.6,0,.4-.2,1.1-.5,1.3-.9.5-1,1.4-1.2,2.2-.3,1.4.6,2.5,1.1,3.7.4.8.5,1.8.8,2.7h-20.2c.1-.7.2-1.4.4-2,.3-1.3,1.4-2.1,2.3-2.9,1.1-1,1.3-2.9,0-3.8-.2-.1-.3-.4-.4-.6-.2-.7,0-1.5-.4-2-.6-1.1-1.5-2-2.2-3-1.3-1.7-1.6-3.5-.5-5.5.5-.5,1-1.2,1.6-1.5,2.4-1.1,3.5-3.3,3.8-5.6.4-2.9,0-5.8,0-8.8-.4.9-.6,1.9-.9,2.8-1,3-2.1,6-3.1,9-.5,1.4-1,2.7-1.5,4.1-.2.1-.4.2-.5.4-1.1,1.8-2.2,3.7-3.4,5.5-1.3,1.9-2.6,3.7-4.1,5.4-3.2,3.6-7,6.5-11.3,8.7-2.2,1.1-4.4,2-6.7,2.8-1.3.5-2.7.9-4.1,1.3h-15.8c0,0,0-.1-.1-.2-2-.8-4.1-1.4-6.1-2.3-1.6-.8-3-1.9-4.5-2.8-2.4-1.4-4.2-3.4-5.9-5.6-2-2.5-3.2-5.4-3.9-8.6-.6-3-.5-5.9.3-8.9.6-2.4,1.7-4.6,3-6.7,1.3-2.2,2.9-4.2,5-5.6,4.7-3,9.7-3,14.8-1.3,1.3.4,2.5,1.1,3.9,1.6.3-.8.6-1.6.9-2.4,1.5-4.1,1.9-8.3.9-12.6-1.1-4.7-3-9-6.8-12.3-1.1-.9-2.1-1.9-3.3-2.7-1.4-.9-2.8-1.8-4.4-2.3-1.6-.5-3.3-.9-4.9-.9-1.4,0-2.9.6-4.2,1.2-1.7.8-3.4,1.8-4.4,3.6-1,1.8-2.4,3.6-1.2,5.8.4.8,1,1.6,1.6,2.1,1.4,1.3,3,2.5,5.1,2.3-.4-1.8,0-2.4,1.5-2.7,1.1-.2,3.2.4,3.6,1.1.9,1.8.9,3.9-1.2,5.3-2.5,1.7-5.4,1.9-8.2,1.4-3.3-.6-5.8-2.5-7.3-5.7-1.4-3.2-2.1-6.4-1.4-9.9.8-3.9,2.7-6.9,6.3-9,3-1.8,6.3-2.5,9.7-2.7,1.9-.1,3.9-.1,5.8,0,1.3,0,2.7.3,4,.8,1.4.5,2.8,1.2,4,2,1.6,1,3.2,1.9,4.7,3.1,3.6,3.1,6.1,7.1,7.9,11.4,2,4.7,2.9,9.6,3,14.7,0,1.6-.2,3.3-.4,4.9-.2,2.7-1,5.3-2.2,7.8-1.3,2.8-3.1,5.2-5.7,6.9-1.1.8-2.2,1.9-3.8,1.5-1.1-2.6-2.5-4.7-5.4-5.6-1.7-.6-3.3-.6-5,0-1.6.6-2.7,1.6-3.7,2.9-1.4,1.9-2.7,3.8-2.2,6.4.5,2.6,1.5,5.1,3.2,7,2.6,3,5.9,5,9.9,5.9,2.7.7,5.4,1.1,8.1.6,2.7-.5,5.4-1.3,8-2.2,3.6-1.3,6.5-3.6,9.3-6.3,2.3-2.2,4.3-4.7,6-7.4,1.4-2.2,2.4-4.6,3.5-6.9.5-1,.9-2,1.3-3.1.6-1.8,1-3.6,1.6-5.4.8-2.6.8-2.6-1.3-4-.9-.7-1.9-1.3-1.9-2.6,0-.3-.2-.7-.5-.9-1.8-.9-2.7-2.6-3.3-4.4-.1-.4-.2-.9,0-1.2.5-1.5,1.3-2.9,2.8-3.6.8-.4,1.4-.9,1.2-2-.1-.9.3-1.4,1.3-1.3.7,0,1.5,0,2.3,0-1.2-8.2-3.9-15.8-7.8-23-1.6-2.9-3.4-5.8-5.7-8.1-2.7,1.4-5.2,2.4-8.1,2.3-.2,0-.5-.3-.5-.5-.1-.7-.2-1.3.5-1.9,1.3-1.2,2.4-2.6,3.5-3.9.4-.4.4-.7,0-1.1-1.4-1.1-2.7-2.3-4.1-3.4-1.5-1.1-3-2.3-4.6-3.2-1.7-1-3.5-1.8-5.3-2.7-2.6-1.2-5.2-2.5-7.9-3.6-2.2-.8-4.5-1.4-6.7-1.8-2.4-.5-4.9-.8-7.4-1-2.2,0-4.5.2-6.8.4-1.6.2-3.2.4-4.7.9-2,.6-4,1.4-5.9,2.3-2.6,1.3-5.1,2.5-7.4,4.2-2.6,1.9-5,4.2-7.4,6.5-1.4,1.3-2.7,2.7-3.8,4.2-1.6,2.1-2.8,4.4-4.4,6.5-2,2.8-3.3,5.9-4.2,9.1-1.1,4.1-.6,8,1.8,11.5,1.3,2,3.1,3.6,4.7,5.4.3-.3.3-.5.3-.6.5-3,2.4-5.1,5.7-5.1,1.6,0,3,.3,4.4,1,2.2,1,3.5,2.5,3.9,4.7.3,1.8.3,3.8,0,5.7-.6,3.3-2.3,5.9-5.7,6.9-2.7.8-5.5.7-8.3.2-1.8-.3-3.6-.9-5.1-2-1.4-1-2.9-1.8-4.2-2.9-1-.9-1.7-2.1-2.6-3.1-1.8-2.1-2.9-4.5-3.7-7-.7-2.2-1.1-4.6-1.6-6.9-.6-3.3,0-6.6.3-9.8.3-2.2.8-4.3,1.4-6.4.7-2.5,1.4-5.1,2.4-7.5,1.3-3,2.9-5.8,4.4-8.7,1.6-3.1,3.7-6,5.9-8.8,1.8-2.3,3.7-4.6,5.3-7.1,1.8-2.8,3.5-5.8,5-8.9,1-2,1.6-4.2,2.5-6.2,1.1-2.5,1.4-5.2,1.6-7.9.3-3.7-.4-7.3-2-10.7-1.4-2.9-3.3-5.2-5.7-7.3-.6-.6-1.4-1.2-2.2-1.4-1.6-.5-3.2-.9-4.8-1.1-1.8-.2-3.8,0-5.2,1.2-1.8,1.5-2.5,3.6-2,5.9.3,1.3.4,2.7,1.7,3.7,1.5,1.2,3.8,1.1,4.6-.7.7-1.4,1.1-2.9,1.6-4.4h1.4c.2.3.3.6.5.9,1,1.7.9,3.7.6,5.5-.3,2-2.1,3-3.9,3.6-2.9,1.2-5.9,1.2-8.9,0-2.3-.9-3.5-2.6-4.3-4.8-.9-2.5-.7-4.9-.4-7.4.2-1.4.3-3,1.1-4.1,1.2-1.8,2.8-3.5,4.4-4.9,3.9-3.5,8.5-3.9,13.3-2.7.8.2,1.5.6,2.3.9,2,.7,3.9,1.8,5.4,3.3.5.5,1,.9,1.5,1.3.5.4,1.1.8,1.8,1.4-7.1-14.3-11.1-29.2-11.8-44.9-.8,1.6-2,2.7-3.5,3.7-2.1,1.3-4.3,1.8-6.7,1.2-4-1-5.7-4.1-5.9-7.8-.2-3.8,0-7.6,0-11.5,0-1.4.7-2.8,1.7-3.6,1.2-1,2.7-1.6,4.2-2.1,2.6-1,5.1-.5,7.5.9.8.5,1.4,1.2,2,1.9.4.4.7.9,1.2,1.4,2.8-26.9,13.7-49.8,33-68.4,19.3-18.6,42.6-28.5,69.3-30.2,0-1.4.1-2.7.3-3.9,0-.8-.1-1.1-1-1.3-2.9-.6-5-2.3-6.5-4.9-1.1.2-2.3.5-3.4.6-2.6.2-5.2,0-7.7-1.1-1.9-.8-3.1-2.2-4.5-3.5-1.5-1.4-2-3.4-2.1-5.5-.1-2.6.5-5.1,1.6-7.4.4-.9,1.1-1.8,2-2.3,3-1.7,6.2-1.4,9.4-.5v1.4c-1.2.5-2.6.7-3.4,1.4-1,.9-1.8,2.1-2.1,3.5-.5,2.6-.4,3.9,2.3,5.1,2,.9,4.4.5,5.5-1,1.2-1.6,2.2-3.4,2.1-5.6-.1-3.9,0-7.7,0-11.6,0-3.1.3-6.1,2-8.8.7-1.1,1.7-2.1,2.6-3,.9-1,2.5-1.4,2.9-3,.1-.4.3-.7.5-1,.7-1.1.5-4-.3-5-1.1-1.2-2.3-2.4-3.4-3.7-.8-.9-1.8-1.7-1.5-3.2.3-1.6.5-3.2.8-4.7-8.3,5.3-17,7.1-26.4,1.7v72.8c-.8.4-1.4.8-2.1,1-2.6,1-5.1,1.9-7.7,2.8-.7.2-1.4.4-2.2.6,0-.7,0-1.1,0-1.5,0-19.4.1-38.9.2-58.3,0-3,.1-5.9.2-8.8,0-3.2.1-6.4.2-9.6,0-3.4,0-6.9.2-10.3.1-3,1-5.9,2.6-8.6,1.5-2.6,3.7-4.3,6.6-5,2.4-.6,4.8-.3,7.1.4,2.3.7,4.1,2.2,4.4,4.7.2,1.9.1,3.9-.1,5.8-.2,1.4-1,2.7-2.6,3.1-.6.2-1.2.3-1.9.4,3.3,2.5,6.3,3.2,9.5,2.3,4.1-1.2,7-3.7,8.9-7.4.3-.6.5-1.4.5-2.1,0-.9-.5-1.9-.7-2.8-.2-.7-.3-1.5-1-2-.8-.5-1.5-.9-2.3-1.4-.2-.1-.5-.4-.5-.7,0-1.7,0-3.3,0-5,1.2-.4,2.4-.7,3.6-1.1V.2h28.4c-.2,1.4,0,2.6,1.7,3,1.2.2,1.7,1.1,1.5,2.4-.1.9-.1,1.8,0,2.7.1,1-.4,1.6-1.1,2-1.2.7-1.9,1.6-2.2,3.1-.3,2.1,0,4,1.4,5.4,1.9,1.9,3.8,3.9,6.5,4.9,2,.8,4,1.6,6.1.7,1.3-.5,2.5-1.2,3.3-2.5-2.3-.8-3.7-2.3-4.2-4.5-1-4.3.7-8.4,5.6-9.5,2-.5,4-.5,6.1-.2,2.9.5,5.2,1.8,6.7,4.3,1.9,3.2,2.5,6.7,2.9,10.3.3,2.3,0,4.7,0,7.1-.1,5.8-.3,11.7-.4,17.5,0,3.8-.1,7.7-.2,11.5-.1,6.2-.3,12.4-.4,18.7-.1,6.2-.1,12.4-.2,18.6,0,1.6-.2,3.3-.2,4.9,0,3.2-.2,6.5-.2,9.7,0,.3.2.7.5.9,1.6,1,3.3,1.9,5,2.8,1.6.9,3.2,1.6,4.8,2.6,1.9,1.2,3.8,2.4,5.6,3.7,1.1.7,2.1,1.4,3.1,2.2,1.5,1.2,2.9,2.5,4.3,3.7,1.6,1.3,3.3,2.5,4.7,3.9,3.9,3.8,7.8,7.7,11,12.2,2.2,3.1,4.4,6.1,6.6,9.2.8,1.2,1.4,2.5,2.1,3.7,1.5,2.8,3.2,5.5,4.6,8.4,1.4,3.1,2.6,6.4,3.8,9.7,1.2,3.4,2.3,6.8,3.2,10.2,1,4.3,1.7,8.6,2.6,12.8,1.2-.6,2.6-1.2,4-1.8,2.6-1,5.2-.4,7.6.8,2.4,1.2,3.5,3.5,3.6,6.1.1,2.9,0,5.8,0,8.7,0,1-.1,2-.4,3-.4,1.9-1.4,3.3-3,4.5-1.6,1.1-3.3,2-5.3,2.1-2.2.1-4.3-.6-6.2-2.2-.8,13.3-4,25.9-9.5,38.2.6-.4.9-.6,1.2-.8,1.9-.8,3.7-1.6,5.8-1.8,3.4-.4,6.5,0,9.4,1.8,1.9,1.1,3.5,2.6,4.8,4.4.9,1.1,1.7,2.2,1.9,3.7.4,2.7.9,5.3.5,8.1-.5,3.2-2.6,6.1-5.4,6.8-3,.8-6.1.6-8.9-.7-1.2-.5-2.2-1.3-2.8-2.6-.9-1.9-.7-3.8,0-5.7.6-1.6.7-1.7,2.2-1.4.3,1.2.6,2.4,1.1,3.5.5,1.2,1.4,2.2,2.8,2.3,1.1,0,3.4-1.5,3.5-2.5.2-1.3.5-2.6.4-3.9-.2-2.8-1.5-4.6-4.2-5.2-1.3-.3-2.7-.2-4,0-2,.2-4,.4-5.6,1.9-1.4,1.4-2.9,2.6-4.1,4.2-1,1.3-1.5,3-2.3,4.5-1.1,2.1-1.4,4.5-1.6,6.9-.2,3.4.3,6.7,1.3,10,.5,1.6,1,3.2,1.7,4.7,1.2,2.5,2.5,5,3.9,7.4,1.4,2.4,3,4.8,4.5,7.2.4.7,1,1.3,1.5,2,.8,1,1.8,2,2.6,3,1,1.3,1.9,2.7,2.8,4.1,1.4,2.3,2.9,4.6,4.1,7,1,1.9,1.8,3.9,2.6,5.9.9,2.3,1.8,4.5,2.3,6.9.7,3.3,1,6.6,1.6,10,.5,2.8.3,5.6-.4,8.3-.5,2.1-1.2,4.1-1.9,6.1-.4,1.1-.9,2.2-1.5,3.2-1.4,2.5-3.2,4.7-5.5,6.5-2.2,1.8-4.7,2.9-7.3,3.6-2.5.7-5,.7-7.6.2-3.5-.6-5.7-2.7-6.8-6-.6-1.8-.7-3.7-.6-5.5.1-1.2.4-2.5,1.1-3.5,1.9-3,5.5-4,8.8-3.5,1.6.3,3.1,1.1,3.7,2.9.3.9.6,1.7.8,2.6.1.1.3.2.4.3.9-1,1.8-2.1,2.6-3.1.9-1.2,1.9-2.4,2.6-3.8,2.3-4.1,1.9-8.4.4-12.5-1.3-3.8-3.6-7.1-5.9-10.4-1.9-2.7-4.2-5.1-6.3-7.6-.9-1-1.8-2-2.8-2.8-1.8-1.4-3.7-2.7-5.6-4-1.5-1-3-2.1-4.6-2.8-2.8-1.2-5.7-2.3-8.7-3.1-2.6-.7-5.3-.9-8-1.1-1.4-.1-2.8,0-4.2.2-2.1.3-4.3.5-6.3,1-3,.8-6,1.8-9,2.9-1.7.6-3.4,1.6-5.1,2.4-1.3.7-2.6,1.4-3.9,2.1-.9.5-1.8,1-2.7,1.6-1.4,1-2.7,2.1-4.1,3-1.4.9-1.5,1.4-.6,2.7,1,1.4,1.9,2.7,2.6,4.2.7,1.3.4,2.4-1.4,2.4-2.7,0-5-.8-7.3-2.1-.6-.3-.9,0-1.1.2-.5.5-.8,1.2-1.2,1.7-1.9,2.4-3.5,5-4.9,7.7-2,3.6-3.6,7.2-4.7,11.1-1,3.6-1.9,7.3-2.7,10.7,1.8.6,3.5,1,4.9,1.8.7.4,1.1,1.4,1.7,2.1,1.9,2,1.3,4.3.5,6.5-.5,1.4-1.4,2.7-1.1,4.4,0,.6,0,1.2,0,1.8,0,.8-.2,1.1-1,1.1-1,0-2,0-3.2,0,1,3.3,1.9,6.5,3,9.7.6,1.9,1.4,3.7,2.4,5.4,1.7,2.8,3.7,5.5,5.7,8.1,1,1.3,2.1,2.5,3.4,3.5,1.2,1,2.5,1.8,3.8,2.6,1.5.9,3,1.9,4.6,2.5,2,.8,4.2,1.3,6.3,1.7,2.3.5,4.6.5,6.9.1,2.2-.4,4.4-.9,6.4-2,1.5-.8,3-1.8,4.3-2.9,1.5-1.3,2.7-3,3.5-4.9,1.1-2.5,2-4.9.7-7.6-1-1.9-2.2-3.5-3.9-4.7-2.2-1.7-6.2-1.3-8.4.5-1.5,1.2-2.9,2.6-3.2,4.6-.5,0-.8,0-1.2,0-.1,0-.2,0-.3,0-2.5-1.2-4.5-3-6.1-5.2-.9-1.3-1.6-2.6-2.3-4.1-1.1-2.5-1.7-5.1-1.9-7.8-.2-2.3-.2-4.6,0-6.9.3-2.6.7-5.3,1.4-7.8.4-1.8,1.2-3.5,2-5.2.9-1.9,1.8-3.8,2.9-5.5,1.5-2.2,3.4-4.1,5.5-5.7,2.9-2.2,5.8-4,9.5-4.6,3.4-.6,6.7-.5,10-.1,2.9.3,5.8,1.2,8.3,2.8,3.6,2.4,5.2,6,5.7,10.2.3,2.9-.3,5.6-1.5,8.2-1.1,2.4-2.9,4.3-5.4,5.2-2.7,1-5.5,1.1-8.2.2-1.3-.4-2.7-.9-3.5-2.5-.7-1.5-.6-2.9.4-4,.8-.9,2.1-1.1,3.4-.8,1.6.4,1.9.9,1.6,2.7.6-.1,1.3,0,1.8-.3,1.2-.6,2.5-1.3,3.5-2.2.7-.6,1.4-1.6,1.7-2.5.7-2.8-.8-4.9-2.6-6.7-1-1-2.4-1.7-3.7-2.5-1.5-.8-3.3-1.3-5-1.1-1.6.2-3.2.8-4.7,1.3-2.3.9-4.4,2.4-6.2,4-2.3,2-4.2,4.5-5.5,7.4-1.7,3.9-2.8,7.8-2.3,12.1.3,2.7,1,5.2,2,7.7.2.5.5.6,1,.3,1.4-.7,2.9-1.5,4.4-1.8,2-.4,4.2-.6,6.3-.7,3-.1,5.6,1.1,7.9,2.9,2.2,1.8,4,4,5.3,6.6,1.3,2.5,2.3,5.1,2.5,8,.4,3.7-.1,7.2-1.7,10.6-1.1,2.6-2.7,4.7-4.6,6.6-1.5,1.5-3,3-4.9,4-1.5.8-2.9,1.8-4.4,2.5-1.7.8-3.4,1.3-5.2,2ZM64.3,209.2c.2,2.1.4,4.3.6,6.4.3,2.2.4,4.4.9,6.5.7,2.8,1.5,5.7,2.6,8.4,1.3,3.3,2.8,6.5,4.5,9.7,1.1,2.1,2.6,4,3.9,5.9,1.7,2.5,3.7,4.8,5.8,6.9,1,1,1.8,2.1,2.8,3,1.5,1.3,3.1,2.5,4.7,3.7,2.3,1.6,4.7,3.2,7.1,4.7,1.4.9,2.9,1.6,4.4,2.3,2.9,1.2,5.8,2.5,8.8,3.4,3.2,1,6.6,1.6,9.9,2.2,2.7.5,5.4.8,8.2.8,3.4,0,6.9-.4,10.3-.8,2.7-.3,5.4-.9,8-1.6,2.8-.8,5.5-1.8,8.2-2.9,2.1-.8,4.1-1.7,6.1-2.9,2.2-1.2,4.2-2.8,6.2-4.2,3.9-2.7,7.3-6,10.5-9.3.9-.9,1.8-1.9,2.6-3,1.8-2.6,3.7-5.3,5.3-8.1,1.6-2.8,3.1-5.7,4.3-8.6,1.7-4.2,3-8.5,3.5-13,.3-2.6.7-5.2.8-7.8.2-4.8-.3-9.7-1.3-14.4-.8-3.8-1.9-7.6-3.5-11.1-1-2.2-2.1-4.4-3.2-6.5-1.2-2.1-2.5-4.2-3.8-6.2-2.1-3-4.4-5.7-7-8.3-1.7-1.6-3.4-3.2-5.3-4.7-2.5-1.9-5-3.6-7.6-5.3-1.4-.9-2.9-1.7-4.4-2.4-1.8-.9-3.6-1.9-5.6-2.5-4.1-1.4-8.2-2.8-12.5-3.4-2.7-.4-5.4-.8-8.1-.9-5-.2-9.9,0-14.8,1.3-3.1.7-6.2,1.5-9.3,2.5-3.7,1.2-7.2,2.8-10.6,4.8-1.5.9-3.1,1.8-4.6,2.8-2.8,2-5.7,4-8.1,6.6-1.5,1.5-3.1,2.9-4.4,4.5-1.5,1.8-3,3.7-4.3,5.6-1.3,1.9-2.5,3.8-3.6,5.8-1,1.7-1.8,3.5-2.6,5.3-.8,1.8-1.6,3.5-2.2,5.4-.7,2.5-1.2,5-1.8,7.5-.9,3.9-1.3,7.8-1.4,11.9ZM142,32.6c-.2,1.1-.4,2.9-.9,4.5-.7,1.9-1.8,3.7-2.6,5.6-.6,1.5-1,3.1.3,4.6.2.3.4.7.5,1.1.5,1.7,1.9,2.9,3.2,3.8,1.2.9,2.1,1.8,2.5,3.1.6,1.7.8,3.5,1.6,5.2.5,1.2.6,2.4.6,3.7,0,4.2,0,8.4,0,12.5,0,1.7.2,3.3.4,4.9,0,.3.4.7.7.7,1.3.2,2.6.5,3.9.4,2.5-.2,4.1-1.9,2.5-4.7-.3-.6-.8-1.2-.8-1.9,0-1.8-1.2-2.9-2.1-4.1-.2-.3-.3-.8-.2-1.2,0-.2.5-.4.8-.4,1,0,2,0,2.9.2,2.7.4,5.1,1.4,6.8,3.7,1.9,2.5,2.4,5.3,1.9,8.2-.6,3.5-2.8,6.1-5.3,8.5-2.7,2.6-7.1,2-9.8.3-1.2-.8-2.4-1.7-3.6-2.6-.9,2.5-2.8,3.5-5,3.6-.9,1.5-1.5,3-2.5,4.3-1,1.3-1.7,2.5-1.1,4.3,9.7.6,19.3,2.4,28.7,5.5V33.7c-5.3,2.3-10.8,2.3-16.1.8-5.2-1.5-9.5-4.8-12.7-9.3.7,3.1,3.5,4.4,5.5,7.3ZM149.6,325.8c-2.8-2-5.6-4.1-8.4-6.1-.5-.3-1-.7-1.5-.7-2,0-4.1.3-6.1.3-3.9,0-7.9,0-11.8-.2-1.1,0-2.2-.3-3.3-.4-1.2,0-2.5-.5-3.7.4-1.7,1.3-3.6,2.4-5.3,3.7-1.2.9-2.3,1.8-3.3,2.7.7,1,1.3,1.7,1.9,2.6,1.4,2.1,2.8,4.1,4,6.2,1.2,2.1,2.2,4.4,3.3,6.6,1.1,2.4,2.2,4.8,3.3,7.2.8,1.9,1.6,3.9,2.2,5.9.8,2.7,1.5,5.4,2.2,8.1,0,.3.5.7.8.7,2.9,0,5.8,0,8.7,0,.3,0,.7-.4.8-.7.2-.7.3-1.4.5-2.1.7-2.2,1.4-4.4,2-6.7.5-1.6.9-3.3,1.6-4.9,1.7-3.7,3-7.7,5.3-11.1,1.2-1.9,2.2-4,3.3-5.9,1.2-1.9,2.5-3.8,3.7-5.6ZM74.1,304.4c-14-8.5-25.8-19.5-35-33.1,0,1,.2,2,.4,2.9.8,3.5.9,7,.3,10.5-.5,3.5-1.4,7-2.5,10.3-1.1,3.2-2.6,6.2-4,9.2-.6,1.4-1.6,2.6-2.3,3.9,0,.1,0,.3,0,.4,6.6-3.7,13.5-5.7,20.9-6.2,7.5-.5,14.9.1,22.2,2ZM215.9,278.2c-7.9,10.1-17.2,18.2-28,25,13-1.8,25.3-1,36.9,5.3-5.4-9.4-9.3-19-8.9-30.3ZM43.3,178.2c0-.6,0-1.1,0-1.5.3-1.8.8-3.5,2.8-4.2.5-.2,1-.5,1.4-.9,1.2-1.2,2.4-2.4,3.6-3.7.9-1,2-.9,2.6.3,0,.2.3.4.5.7.5-.8,1-1.5,1.5-2.1-1.2,0-2.2.1-3.3,0-.7-.1-1.4-.5-2-.9-.7-.5-1.3-1.1-1.9-1.7-1.5-1.3-2-2.7-.1-4.5.2-.2.3-.6.3-.9,0-.7-.3-1.5-.1-2.2.4-1.6.9-3.1,1.4-4.6,0-.2,0-.5,0-.9-5.8,8.2-10.2,16.8-13.3,26.3,2.3,0,4.6-.2,6.7,1ZM70.3,146.1c.6-.5,1.2-1,1.9-1.4-.7,0-1.4-.2-2.2-.3-1.2-.2-2.1-.8-2.6-1.9-.5-1-1-1.9-1.6-2.8-.9-1.3-.6-2.7.8-3.5.4-.2.8-.6,1-1,.6-1.5,1.1-3.1,1.5-4.4-7.6,5.8-15.9,15.2-18.4,19.2,1.1.2,2.3.3,3.4.7,1.1.4,2,1.1,3,1.7.1-.2.4-.5.5-.8.7-1.8,1.9-2.8,3.7-3.2,2.2-.5,4.4-1,6.1-2.8.7-.8,2.4-.5,2.9.5ZM35.8,180.2c-2.7,8.7-4.2,17.6-4.1,26.5,2.2-.3,4.4-.5,6.7-.8,0-.5,0-1.3,0-2,0-1.9.5-3.4,2.1-4.6.7-.5,1.3-1.2,1.8-2,.6-1.1,1-2.3,1.6-3.4.2-.3.6-.7.9-.7,1.2.1,1.2-.8,1.4-1.7-2,1.4-3.8,1.6-5.8.7-.9-.4-1.8-.8-2.7-1.2-1.2-.5-1.7-1.9-1.2-3.1.2-.5.3-1.3.1-1.8-.5-1.5-.9-3-.7-4.6,0-.4,0-.9,0-1.4ZM44.7,218.6c-1.3,1.5-2.8,2.2-4.6,2-1.5-.2-3-.6-4.5-.8-1-.1-1.2-.6-1.2-1.5,0-.4,0-.8,0-1.2.2-.5,0-.8-.3-1.3-.7-1.1-1.3-2.2-1.8-3.4-.3-.8-.4-1.7-.5-2.6-.2,4.7.3,9.3,1.2,13.9.9,4.5,2,9,3,13.3,2-.9,3.7-1.6,5.5-2.4-1.1-2-1.6-4.3-.4-6.6,1.1-2,1.6-4,1.5-6.3,0-1.5.7-1.9,2.1-1.3v-1.9ZM208.4,150.2c-4.6-6.5-10.1-12.2-16.2-17.5.2.8.2,1.5.4,2.2.1.5.1,1.1,1,1.2.5,0,1.2.6,1.3,1.1.1.7,0,1.6-.3,2.4-.4,1-1.1,1.8-1.5,2.7-.6,1.4-1.7,2.3-3.2,2.3-.6,0-1.2,0-2.1,0,.9.7,1.6,1.2,2.3,1.8.1-.4.2-.7.2-.9,1.3-.3,2.4,0,3.3,1,1.2,1.1,2.7,1.7,4.4,2,.8.1,1.6.4,2.4.7,1.5.7,2,2.2,2.7,3.5.8-.5,1.6-1,2.4-1.4.9-.4,1.8-.7,2.8-1ZM126.3,109.8c-4.8-.3-17.5,1.5-25.5,4.3.7,1.6,1.4,3.2,2.2,4.8,2-1.3,4.3-1.7,6.5-.7,2.1,1,4.2,1.6,6.6,1.4.6,0,.8-.2,1-.8.6-1.5,1.1-3,1.9-4.3,1.7-2.6,4.3-4,7.3-4.8ZM157.5,119.1c.2-.8.4-1.6.7-2.4.3-.7.8-1.4,1.3-2.2-8.7-2.9-17.5-4.4-26.8-4.9,1.1.4,2,.7,2.8,1.1,1.8,1,3.6,1.9,5.2,3,1.8,1.3,2.9,3.1,3.7,5.1.3.8.9.8,1.5.8.5,0,1,0,1.4-.2.8-.2,1.7-.3,2.5-.7,2.6-1.4,5.1-1.3,7.7.2ZM77.8,131.5c-.2.1,0,0,0,0,1.7-1.9,3.7-2.8,6.3-2.1.7.2,1.5.2,2.2,0,1.6-.3,3.2-.8,4.7-1.2-1.2-2-1.6-4.3-1.8-6.6-.1-1.6.2-1.9,1.8-2.1.4,0,.9-.2,1.1-.5.5-.7.9-1.5,1.3-2.4-7.3,2.8-14,6.6-20.2,10.9,1.5,1.3,3,2.6,4.5,4ZM211.8,155.4c0,1,.2,2,0,3-.2.9.2,1.3.7,1.8.9.9.9,2.4.1,3.3-1,1-2.1,2-3.1,2.9-.2.2-.5.3-.8.3-1.4.1-2.8.2-4.3.3.6.7,1.1,1.4,1.7,2.1.2-.3.3-.4.4-.6.9-1.4,2.3-1.3,3.2,0,.7,1.2,1.6,2.2,2.8,3,1.3.9,3,1.3,3.7,2.9.5,1.2.8,2.5,1.1,3.6,1.5-.3,3.2-.5,4.8-.8-.7-3.9-8.4-20.2-10.3-21.8ZM227,206.5c.2-7.2-1-14.3-2.5-21.5-.9,1.3-1,2.5-.3,3.8.5,1,0,1.9-1.1,2.3-1,.4-2,.9-2.9,1.3-.3.1-.6.4-1,.4-1.7,0-3.4.3-4.9-1.1.3,1.5.4,1.5,1.5,1.8.4.1.8.6,1,1,.6,1.7,1.3,3.2,2.7,4.5.7.7,1.5,1.4,2,2.2.9,1.5.9,3.3.6,5,1.7,0,3.3.2,5.1.3ZM54.6,270c4.4,5.5,9.4,10.2,14.9,14.5.3-1.9,1.4-3.2,2.6-4.4.5-.5.4-.6,0-.9-1.9-1-2.8-2.9-3.2-4.7-.7-2.9-1.2-5.7-3.1-8.1,0,0-.1,0-.1,0,0,.2,0,.3,0,.5-.2,1.8-.5,3.4-2.6,4-.5.1-1,.3-1.3.6-1.3,1-2.8,1.4-4.4.9-.6-1.1-.7-2.6-2.7-2.4ZM38.7,243.8c2.9,6.8,6.2,13.4,10.6,19.4.7-.7,1.2-1.4,1.9-1.9.6-.5,1.4-.8,2.1-1.2-1.8-2.3-2.5-3.8-1.8-6.8.3-1.5.5-2.9,0-4.4-.2-.7-.4-1.5-.5-2.2-.7.4-1.5.9-2.4,1.2-1,.3-2.1.4-3.2.6-2.1.5-2.9,0-3.3-2.2,0-.2-.1-.5-.3-.7-1-.7-2-1.3-3-1.9ZM182.9,131.9c.7-1.5,1.8-2.8,3.6-3.6-6-4.4-12.3-8-19.2-10.9.5,1.5,1,2.4,2.5,2.5.6,0,1.2,0,1.2.9,0,2.7-.5,5.3-1.7,7.6.5.2,1,.4,1.6.5,1.5.3,2.9.9,4.6.8,1.6-.1,3.3-.5,4.8.4,1,.6,1.8,1.3,2.7,1.9ZM75.8,288.9c5.9,4.2,12.3,7.6,19,10,.5-1.4,1.1-2.7,1.6-4.1,0-.2,0-.7-.3-.8-.6-.3-1.3-.7-2-.8-1.9-.4-2-2.5-3.3-3.5-.6-.5-.7-1.6-1.1-2.3-.9-1.6-1.9-3.2-3.6-4.2,0,.9.1,1.8,0,2.6-.1.8-.4,1.6-.9,2.1-.8.9-1.8,1.6-2.8,2.4-1.4,1.2-3.1.8-4-.7-.2-.3-.6-.5-1-.5-.5-.1-1-.1-1.5-.2ZM111.1,138c5.5-.7,10.8-1.4,15.8-2.1-2.4-1.1-4.9-2.3-6.9-4.8-1.9-2.4-2.9-5-3.3-8.1-.7,1.1-1.3,2.1-1.8,3.2-.4.7-.6,1.4-1,2.1-.8,1.3-.6,3.3-2.6,3.8-1,.2-2,.4-3.1.6,1.8,1.4,2.7,3.3,2.9,5.2ZM135.5,124c0-.4,0-.7,0-.9,0-2.4-2.6-5.7-5.5-5.5-2.1.2-3.4,1.4-4.6,2.9-1.1,1.4-1.4,3.5-.5,5,1.2,2.1,3,3.5,5.3,4,.6.1,1.3.1,1.8-.1,2.3-1.1,3.7-2.8,3.5-5.4ZM226.8,215.3c-1,.9-1.4,1.8-.9,3,.3.8-.3,1.6-1.1,1.8-1.2.2-2.4.2-3.5.6-2.1.6-3.6.3-5-1.3-.2-.2-.4-.3-.7-.5v2c1.3-.7,1.8-.5,2.1.9.1.6.2,1.3.2,2,0,1.5.4,2.8,1,4.1.5,1,.9,2.1.8,3.2,0,1.4-.4,2.8-.7,4.2,1.1.4,2.4.8,3.7,1.3,2-6.8,3.5-13.8,4.1-21.1ZM194.5,266.6c-.4.6-.9,1.3-1.3,2.1-.8,1.9-1.7,3.8-1.5,5.9,0,.2-.1.5-.2.5-.8.1-.6.9-.8,1.4-.2.3-.2.7-.4.9-.8.9-1.6,1.7-2.3,2.5.8,1.1,1.7,2.2,2.7,3.4,1.7-.9,9.6-8.3,10.8-10.3-.2,0-.4,0-.6,0-1.5-.7-3.1-1.5-4.6-2.3-.2-.1-.5-.4-.6-.6-.4-1.1-.8-2.3-1.1-3.4ZM136.1,294c-.2-2.3-2.4-4.4-4.9-5.2-.5-.2-1.1-.3-1.7-.2-2.4.2-3.4,2.1-4.3,3.9-.4.7-.3,1.8-.2,2.6,0,.6.7,1.2,1,1.8.7,1.3,3.6,2.7,5,2.3,1.8-.4,3.1-1.4,4-2.9.4-.7.7-1.6,1-2.3ZM163.8,294.5c.5,1.2,1,2.5,1.6,4,4.8-2.4,9.5-4.8,14.3-7.2-2.1-1.1-3.8-2.4-5-4.2-.7-1-.6-2.5-.8-3.8-.6.7-1.4,1.4-2.1,2.4-.8,1.2-1.8,2.2-2,3.7,0,.4-.3.9-.6,1.2-.3.4-.7.7-1.1,1.1-.4.4-.7,1-1.2,1.2-1,.6-2,1-3,1.5ZM136.1,136.1c.2.1.3.2.4.2,4.3.7,8.5,1.4,12.8,2,.3-2.6.3-2.9,2.7-5.5-1-.2-2-.3-2.9-.6-.9-.3-1.8-.7-2-1.9-.3-2.1-1.3-3.8-2.5-5.5-.5,3.6-4.4,9.5-8.4,11.1ZM218.3,248c-.5.3-1.1.8-1.5.7-2.6-.2-5.2-.3-7.5-2,0,.4.1.9,0,1.2-.8,1.9-.6,3.8-.3,5.7.2,1.2.5,2.6-.3,3.8-.5.9-1,1.8-1.4,2.7.9.7,1.9,1.4,2.9,2.1,3.1-4.4,5.8-9.3,8.1-14.3ZM173.5,143.8c-.8-.4-1.4-.7-2.1-1-1.4-.6-1.9-1.8-1.9-3,0-1.8-.2-3.6-.5-5.4-.3-1.6-.4-1.6-2.3-1.9,1,2.1.8,4-.2,5.9-.9,1.7-2.2,2.2-4,1.3-1.5-.8-2-1.1-3.2-.2-1.3,1-2.6.7-3.9.8,0,0,0,0-.2.2,5,1.8,9.7,4,14.1,6.9.8-1.9,2.3-2.9,4.3-3.6ZM86.8,143.6c.5.2.8.2,1,.4,1,.7,1.9,1.5,2.9,2.3.2.1.5.3.7.2,1.5-.8,3.1-1.6,4.6-2.4,1.7-.9,3.5-1.7,5.2-2.5,1-.5,2-.9,2.7-1.2-.9-.3-1.9-.7-3-1-.7-.2-1.6-.5-2-.2-1,.7-2,.8-3,.7-.5,0-1.2-.4-1.5-.8-.7-1.2-1.4-2.5-1.3-4,0-.9.2-1.9.3-2.8-1.7.5-1.8.6-2,1.5-.5,2.1-.8,4.2-.6,6.3,0,.9-.3,1.6-1.2,2.1-.9.5-1.7.9-2.8,1.5ZM176.1,152.5c.5.2.7.3.9.5,1.3,1.2,2.7,2.3,4,3.5,1.8,1.8,3.4,3.7,5.1,5.5.2.2.6.2.8.2,1.3-.3,2.5-.7,3.8-1.1-.4-.5-1-1.1-1.5-1.7-1.1-1-1.4-2.7-.7-4.1.8-1.8,1.3-3.6,1.2-5.6,0-.4-.4-.8-.7-1.1-.4-.3-.9-.5-1.3-.7q-.6,3.3-2,5.3c-.9,1.3-3.4,1.4-4.5.2-.8-1-1.8-1.6-3.2-1.3-.5.1-1,.2-1.8.4ZM110.6,293.5c.7,2.5.9,4.6-.8,6.5-.7.8-1.2,1.9-1.9,3,4.8.7,9.6,1.5,14.5,2.2-1.3-1.1-2.5-1.9-3.5-3-.8-.9-1.2-2.2-1.9-3.3-1.5-2.5-3.7-4.2-6.4-5.5ZM202.9,182.1c0-.2-.1-.5-.3-.8-.7-1.3-1.2-2.5-.9-4.1.2-.9.8-.8,1.1-1.3.4-.7.8-1.5,1.2-2.3,1-1.6,1-1.8-.2-3.2-.1-.2-.2-.4-.3-.5-.1-.1-.3-.3-.4-.4-.1.1-.3.3-.4.5-.4.8-.6,1.7-1.2,2.3-.8.7-1.8,1.2-2.7,1.7-1.3.7-3,0-3.6-1.4-.5-1.1-1.2-2.1-2.7-2.1,0,.3,0,.5.2.7,2.1,3.1,3.7,6.5,5.1,10,.2.4.2,1.2,1,1.1,1.3,0,2.6-.1,4.1-.2ZM212.1,194c-.1.1-.2.1-.3.2-1.3,2.2-3.5,2.7-5.8,2.7-1.6,0-2.3-.8-2.4-2.2,0-1.5-1-2.6-2.3-2.9.6,4.6,1.3,9.2,1.9,13.7,1.2.3,2.5.6,3.9.9-.1-.5-.4-1-.4-1.5,0-1.3-.5-2.7.6-3.8.5-.5,1-.9,1.4-1.3,1.1-1.2,2-2.5,3.2-3.5.9-.8.7-1.5.2-2.3ZM213.2,220c-1.6,1.7-3.5,1.9-5.5,1.8-2.8-.2-3.2-.7-2.9-2.9.2-1.7-.7-2.7-1.8-3.6-.7,4.1-1.4,8.2-2.1,12.1,1.3.8,2.6,1.7,3.9,2.5,0-.5,0-1.2.2-1.8.2-1.3.3-2.5,1.9-3,1.8-.7,3.5-1.6,5.3-2.5,1.1-.5,1.5-1.2,1.1-2.6ZM82.9,152c-1.7-.7-2.7,0-3.6,1.3-.8,1-3.2,1-4,.1-1-1.1-2.2-2.1-2.2-3.8,0-.5-.2-1.1-.3-1.6-.5.2-1,.4-1.4.7-.3.3-.6.7-.7,1.1,0,.5,0,1.1.2,1.7.3,1.2.4,2.5.9,3.6.5,1.1.6,2.1,0,3-.6,1.1-1.5,2.1-2.1,3,.7.2,1.6.4,2.5.5.4,0,.9,0,1.2-.3,1.3-1.3,2.4-2.6,3.7-3.9,1.8-1.8,3.8-3.5,5.7-5.3ZM194.6,251.7c.2-.6.5-1.3.8-2,.5-1.1,1.1-2.2,2.4-2.1,2.1.1,4-.4,6-.9.8-.2,1.7-.4,1.6-1.6-.1,0-.2,0-.3,0-2.2.8-4.2.3-6.2-.7-.4-.2-.9-.7-.9-1.1,0-1.1,0-2.3.4-3.3.3-.8.3-1.4,0-2-.2-.3-.3-.7-.5-1-2,3.8-4,7.6-6,11.4.9,1.1,1.8,2.3,2.8,3.5ZM156.8,276.8c.1,1.4.2,2.9.3,4.3,1.4-1.1,2.7-2.5,4.7-2.1,1,.2,2,.8,3,1.2,1,.4,1.9.7,2.9,1.1,0-.1,0-.2.1-.3-.2-.2-.3-.3-.5-.5-2.3-1.6-2.4-4.1-.3-5.9,1.4-1.1,1.8-2.3,1.4-3.6-3.9,1.9-7.8,3.9-11.7,5.8ZM187.8,265.8c-.8-.5-1.7-1-2.4-1.7-.9-.8-.7-3.5.3-4.4.4-.4,1-.9,1-1.3,0-.9-.3-1.8-.5-2.7.1.2.3.3.4.5-1.6,1.4-3.3,2.7-4.9,4.1-1.7,1.4-3.3,2.8-4.9,4.3-.5.4-.9,1-.4,1.8.4.6.6,1.4.9,2.2.7-.7,1.4-1.4,2-2.2.7-.9,1.6-1.1,2.7-.9,1.9.4,3.8.8,5.7.2ZM57.4,181.9c.8,0,1.7,0,2.6,0,.7,0,1.1-.2,1.3-.9.6-1.4,1.3-2.8,2-4.2.5-1,1-2.1,1.5-3.1-3.9.8-6.1-1.1-7.3-4.5-.4.3-.8.6-.9.9-.2.7-1.3,1.1-.8,2.1.7,1.2,1.3,2.6,2.2,3.6.5.6.8,1.2.8,1.9.1,1.6-.6,3-1.3,4.1ZM123.6,281.5c-3.7-.6-7.6-1.1-11.4-1.7,0,.2,0,.5.2.8.5,1.2.7,2.5,2.4,2.7.5,0,1,.3,1.3.6.4.3.7.8.8,1.2.2,1.5-.2,3-1,4.3-.3.5-.7.9-1.1,1.3-.5.4-1.1.6-1.8,1,1.2.7,2.3,1.4,3.5,2.1.6-5.3,2.2-9.9,7.2-12.2ZM57.4,192.5s0,0-.1,0c-.2.5-.4.9-.5,1.4-.2.7-.3,1.4-.6,2,0,.3-.4.6-.6.6-2.5.6-4.6,0-6.6-1.6-.4-.3-.6-.7-.9-1.1,0,0-.2,0-.3,0,0,.7,0,1.4.1,2,0,.3.5.6.8.9,1.2,1.3,2.3,2.7,3.7,3.8.7.6,1.1,1.1,1,1.9,0,1.4-.2,2.7-.3,4,.6-.2,1.4-.4,2.1-.7.2,0,.5-.4.5-.6.1-.8.1-1.6.2-2.4.4-3.4.9-6.8,1.3-10.2ZM47.2,221.8c.5.3,1.1.5,1.5.9,1.3,1,2.8,1.7,4.4,2.1.8.2,1.6.4,1.7,1.5.1,1.3.5,2.5.8,3.6.7-.7,1.6-1.5,2.4-2.2-.7-3.8-1.4-7.5-2-11.2-.3.3-.5.6-.6,1,0,.7,0,1.4,0,2.1,0,1.3-.6,1.9-1.9,1.9-2.2,0-4.5.4-6.3-1.5,0,0,0,0-.2,0v1.7ZM91.9,271.9c0,1.3.2,1.9,1.4,2.8,2.1,1.4,2.1,3.5.2,5.1-.3.3-.5.6-.8.9,0,.1.2.2.2.4,1.4-.6,2.7-1.2,4.1-1.8.4-.2.7-.5,1.1-.5,1.8-.3,3.2.4,4.4,1.6.1.1.3.2.4.2.2-1.2.4-2.4.5-3.4-3.8-1.8-7.6-3.5-11.5-5.3ZM55.2,246.2c2.5.4,5.2.8,7.8,1.4.6.1,1.3.8,1.6,1.4.5.8.8,1.8,1.1,2.6.6-1,1.2-1.9,1.8-2.8-1.9-3.5-3.9-7-5.9-10.7,0,.4,0,.8,0,1.2.2.5.5,1,.6,1.5.2.9.6,2.1-.3,2.7-1.4,1.1-3.1,1.8-4.9,1.6-.8,0-1.6-.4-2.4-.6.2.5.3,1,.5,1.7ZM82.9,268.8c.2-.7.2-1.4.5-2,.2-.5,0-.7-.3-1.1-1.9-1.6-3.8-3.2-5.5-4.8-1.3-1.2-2.5-2.6-3.8-3.9-.3,1.1,0,1.9.7,2.6,1.5,1.5,1.3,4.6-.9,5.4-.4.1-.6.4-1.2.9,2,.4,3.7.1,5.4-.2,1.5-.3,2.7,0,3.6,1.2.5.7,1,1.3,1.6,2ZM143.4,286.9s0,0,0-.1c0-2.3,0-2.3,2.2-3.2.6-.2,1.2-.6,1.5-1.1.5-.9.8-2,1.2-3.1-4,.7-7.9,1.4-11.4,1.9,2,1.7,4.2,3.6,6.4,5.5ZM149.4,293.8c-2.2.9-4,2.6-5.6,4.8h5.3c0-1.5.2-3.2.3-4.8ZM101.7,315.9c-2.5-.8-5-1.5-7.8-2.4,1.9,1.5,3.5,2.8,4.9,4,1-.6,1.9-1.1,2.9-1.7ZM147.4,292c-.9-.6-1.9-1.2-2.9-1.9.2,1.1.3,2.2.5,3.2.9-.5,1.7-.9,2.5-1.3ZM156.3,316.4c1.5,1.5,2.1-.2,2.9-.9-1,.3-1.9.6-2.9.9ZM93.8,129.3c-.6-.2-1.1-.4-1.7-.6v1.5c.5-.3,1-.5,1.7-.8ZM168.1,130.3c.2-.6.3-1.1.4-1.5-.6.2-1.2.5-1.9.7.5.3,1,.5,1.5.7Z"/>
        <path class="cls-1" d="M256.5,154.9c-1.1,2.6-2.9,4.5-5.3,5.8-1.6.8-3.4,1.3-5.2,1.7-1.6.3-3.3.5-4.9.4-1.6,0-3.3-.4-4.9-1-1.8-.6-3.5-1.5-5-2.5-1.8-1.1-3.4-2.5-4.6-4.2-2.3-3.3-3-6.9-3.4-10.8-.5-4.3,0-8.5,1.6-12.5.8-1.9,1.9-3.6,2.9-5.4.1-.3.3-.5.5-.7-2.6.5-5,1-7.5,1.3-1.6.2-3.3,0-4.9,0-3.4.2-6.7-.3-9.9-1.2-3.4-.9-6.7-2-9.6-4.2-.9-.7-2.1-1.1-3-1.8-1.9-1.6-3.7-3.3-5.4-5.1-1.5-1.7-3-3.5-4.2-5.4-1.1-1.7-2-3.5-2.8-5.4-.8-1.8-1.3-3.8-1.8-5.7-.5-2.1-.5-4.3,0-6.4.5-1.8.9-3.6,1.6-5.3.8-1.8,2.1-3.4,3.1-5.2.9-1.5,2.3-2.3,3.7-3.1,1.2-.6,2.6-1,4-1.1,3.1-.4,6,.3,8.8,1.6,1,.4,1.8,1.5,2.4,2.5,1.1,1.7,1.9,3.6,1.9,5.8,0,2.1-1,3.6-2.5,4.8-1.8,1.5-4,2.3-6.4,2-1.4-.2-2.7-.6-3.7-1.7-.2-.3-.4-.6-.6-1-.2,0-.3.2-.5.3,0,1.7-.3,3.5-.3,5.2,0,2.3.8,4.5,1.8,6.6,1.2,2.3,2.9,4.2,4.7,5.9,1.6,1.5,3.6,2.7,5.6,3.7,3.4,1.6,6.9,2.9,10.6,3.8,3.1.7,6.2,1.2,9.4.4,2.2-.6,4.5-.9,6.6-1.8,2.8-1.1,5.4-2.7,7.6-4.9,1.6-1.6,3.3-3.2,4.6-5,2-2.8,3.7-5.8,5.1-9,.8-2,1.3-4,1.3-6.1,0-2.9-1.2-5.3-3-7.4-1.1-1.3-2.3-2.6-3.9-3.3-2.2-.9-4.5-1.6-7-.9-.7.2-1.3.9-2,1.4,1.3,1.7,2.2,3.5,2.4,5.6,0,1.3-.4,2.3-1.3,3.5-1,1.3-2.1,2.3-3.5,3-2.3,1.3-4.7,1.2-7.1.5-2.8-.9-5-2.8-6.9-4.9-1.9-2.2-2.9-4.9-3.7-7.7-.9-3.1-1.1-6.2-1.1-9.4,0-5.5,0-11.1,0-16.6,0-.6-.1-1-.7-1.5-2.1-2-3.9-4.2-5.4-6.8-1.4-2.5-2.3-5.2-2.6-8-.2-1.9,0-4,.4-5.9.5-2.6,1.5-5.1,2.9-7.3,1.5-2.4,3.4-4.3,5.9-5.7,4.6-2.6,9.3-2.6,14.2-1.3,1.8.5,3.7,1.2,5.2,2.3,2.2,1.6,3.8,3.8,4.5,6.7.5,2.4.6,4.8,0,7.2-.8,3.1-2.9,5.9-6.3,6.8-1.7.4-3.3.8-5,.2-3.2-1.2-5.5-4.2-5.1-7.8.2-2.1.8-4.2,3-5.3-.7-.4-1.9-.6-2.9-.3-3.4,1.1-5.8,3.2-6.1,7-.1,1.9.6,3.8,1.5,5.6.9,1.7,1.7,3.5,2.6,5.1,1.2,2.2,2.4,4.3,3.6,6.4.9,1.7,1.8,3.4,2.7,5.2.2.5.1,1.1.1,1.7,0,.2,0,.3,0,.5,0,4.4-.1,8.9-.2,13.3,0,.3,0,.5.1.9,1-.8,1.9-1.6,2.8-2.2,2.3-1.6,4.7-2.4,7.5-2.8,2.5-.3,4.9-.3,7.4.3,2.4.6,4.7,1.3,6.6,2.8,1.4,1.1,2.9,2,4,3.3,1.7,2.1,3,4.4,4.5,6.6.3.4.4.9.7,1.4v19.1c-.6,1.2-1.1,2.4-1.7,3.5-1.4,2.7-2.8,5.3-4.3,7.9-.9,1.5-1.7,3.1-2.7,4.5-1.7,2.3-3.6,4.4-5.5,6.5-1,1.2-2.2,2.2-3.3,3.3-1,.9-2.1,1.7-3,2.7-1.5,1.6-2.5,3.5-3.3,5.5-1.2,3.1-1.3,6.4-.4,9.7.4,1.5.7,3.2,1.9,4.5,1.3,1.5,2.8,2.8,4.5,3.6,1.1.5,2.3.8,3.4,1.1,2.2.4,6.5-2.2,7.2-4.7.9-2.9.8-3.9-1.1-5.7-1.3-1.2-2.5-1.3-3.8-.4-1.2.8-1.6,2.2-1.1,3.6.2.6.6,1.2.9,1.8.4,1,.2,1.3-.8,1.4-.4,0-.9,0-1.3,0-1.6-.2-3.1-.6-3.8-2.3-.7-1.6-.6-3.1-.3-4.7.2-.9.4-2.1,1-2.6,1.3-1.1,2.8-2.1,4.3-2.7,1.4-.5,3-.4,4.5-.5,1.5-.1,2.8.7,4,1.4,2.1,1.4,3.4,3.4,4.5,5.6v10.5Z"/>
        <path class="cls-1" d="M2,82.3c.5-.9,1-1.9,1.5-2.8,1.4-2.6,3.2-4.9,5.5-6.8,1.2-1,2.8-1.7,4.2-2.6,3.4-2.2,7.1-2.4,10.9-2.2,3.3.2,6.5,1.2,9.1,3.3.7.5,1.1,1.4,1.7,2.1.2,0,.3-.2.5-.3,0-.3.3-.5.3-.8,0-3.8,0-7.6-.2-11.4,0-1.5-.5-3.1.2-4.6.8-1.7,1.7-3.3,2.5-4.9.8-1.5,1.5-3,2.3-4.4.9-1.6,2-3.1,2.8-4.8,1.1-2.5,2.5-4.9,2.5-7.7,0-1.5-.5-2.7-1.3-3.9-1.4-2.1-3.4-3.1-5.7-3.4-.6,0-1.3.2-2,.4,1.7.4,2,1.9,2.5,3.1,1.6,3.7,0,7.4-2.8,9.2-3.7,2.4-9.7.6-11.7-3-1.1-2-1.8-4.1-1.9-6.4,0-1.8.4-3.6,1-5.3,1.3-3.7,4-5.9,7.4-7.1,1.9-.7,4-1.1,6-1.2,1.9-.1,4,0,5.9.4,2.1.4,4.2,1.2,5.8,2.8,1.5,1.4,3,2.9,4.1,4.6,1.1,1.8,1.7,3.9,2.5,5.9.7,1.8,1.1,3.6,1.1,5.5-.2,3.8-1.2,7.3-3.2,10.5-1.1,1.8-2.5,3.3-3.8,4.9-.2.2-.3.4-.5.5-1.9.7-1.5,2.3-1.4,3.8,0,.5.2,1,.2,1.5,0,5,0,10,0,15,0,3.3-.6,6.4-1.7,9.5-.6,1.7-1.2,3.4-2.2,4.8-1.1,1.5-2.5,2.9-4,4.1-1.2,1-2.7,1.7-4.2,2.2-2.6.9-5.1.4-7.4-.9-1.7-1-3.3-2.3-3.9-4.4-.4-1.4-.3-2.8.3-4.1.5-1,1-1.9,1.5-2.8.1-.2,0-.7-.2-.9-.9-1.1-2.2-1.3-3.6-1.3-4.3,0-7.3,2.4-9.6,5.7-1.4,2-2.1,4.3-2,6.8,0,3.5,1.5,6.5,3.2,9.4,1.3,2.2,2.6,4.4,4.1,6.5,1,1.3,2.3,2.4,3.6,3.5,1.3,1.1,2.6,2.3,4,3.2,1.4.9,2.9,1.5,4.4,2.1,3.1,1.2,6.4,1.8,9.7,1.7,3,0,6-.6,8.9-1.8.7-.3,1.4-.5,2.2-.8,3.5-1,6.6-2.8,9.5-4.9,3.8-2.8,6.4-6.5,7.4-11.2.5-2.1.5-4.3-.1-6.4,0-.3,0-.5,0-1-.6.5-1.1.9-1.6,1.3-2.3,1.5-4.7,1.7-7.2.3-1-.6-2.1-1-2.9-1.7-1-.9-1.6-2.2-1.7-3.6-.3-2.8.9-5.2,2.5-7.3,1.2-1.5,2.8-2.3,4.7-2.7,2.7-.6,5.3-.8,7.9,0,1.9.5,3.4,1.6,4.9,3,3.1,3.2,4.5,7.2,5.4,11.3.7,3.6.3,7.1-1.1,10.6-1,2.5-2.2,4.9-3.7,7.1-1.3,1.9-2.8,3.7-4.4,5.4-1.5,1.7-3.1,3.3-4.8,4.7-1.6,1.3-3.5,2.3-5.4,3.3-2.6,1.4-5.3,2.5-8.2,3.1-2.4.5-4.9.8-7.4,1-4.3.3-8.6-.1-12.8-1-.4,0-.9-.3-1.4-.4,0,.2-.1.4,0,.5,1.7,2,2.8,4.3,3.6,6.7.8,2.2,1.1,4.4,1.3,6.8.3,4.1-.3,8-1.5,11.8-.6,1.8-1.6,3.4-3,4.9-1.4,1.5-2.8,2.7-4.5,3.7-2.4,1.3-4.9,2.7-7.6,2.9-2.7.1-5.6.2-8.2-.9-1.4-.6-2.9-1-4.2-1.7-1.7-.9-2.8-2.4-3.7-4-.2-.4-.4-.7-.7-1.1,0-3.7,0-7.4,0-11.1,1.1-1.4,2.1-2.8,3.2-4.1.7-.7,1.5-1.5,2.4-1.9,2.7-1.1,5.5-1.1,8.2.2,2.4,1.1,4.2,2.6,4.4,5.4.1,1.6.4,3.2-.6,4.7-1.3,1.9-3.3,2.2-5.9,1.7.2-.6.3-1.2.5-1.8.2-.7.5-1.4.7-2.1.3-1-.2-1.7-.9-2.4-.8-.7-1.8-1.1-2.7-.7-1.2.6-2.4,1.4-2.9,2.8-.5,1.4.4,4.5,1.3,5.3,1.1.9,2.2,1.8,3.4,2.5,1.2.8,2.6.8,4.1.4,2-.5,3.7-1.6,5.1-2.9,1-.9,1.9-2,2.6-3.2.5-.8.7-1.9,1-2.9.8-2.5.8-5.1.2-7.7-.5-2.4-1.7-4.5-3.1-6.5-.6-.9-1.4-1.6-2.2-2.4-2.3-2.3-4.8-4.4-7-6.8-2-2.2-3.6-4.7-5.3-7.2-1.3-2-2.4-4.1-3.5-6.2-1.1-2.2-2.2-4.5-3.2-6.8,0-6.4,0-12.9,0-19.3Z"/>
        <path class="cls-1" d="M69.4,231.4c0-1.1,0-2,0-2.8,0-.8.3-1,1-1,.8,0,1.5-.1,2.3-.2,1.2-.2,2-1.1,2.1-2.3,0-7.2.2-14.5.2-21.7,0-2.2,0-4.4,0-6.5,0-.7-.1-1.5-.3-2.2-.3-1.2-1.4-1.9-3.1-2-.6,0-1.1-.1-1.7-.2v-3.6c.4,0,.8,0,1.1,0,6.6,0,13.2,0,19.8,0,1.8,0,3.7.4,5.5.9,3.4,1,5.8,3.2,6.4,6.7.4,2.7.5,5.6-1.2,8.1-1.1,1.6-2.5,2.9-4.5,3.4-.2,0-.3.2-.5.4,1.1.5,2.2.9,3.3,1.4,2.1,1,3.7,2.2,4.6,4.5,1.1,2.9,1.1,5.8,0,8.6-1.5,4.2-4.9,6.1-9,7.4-4.3,1.3-8.6,1.2-13,1.2-3.9,0-7.8,0-11.8,0h-1.3ZM83.9,210.7c0,3.4,0,6.6,0,9.8,0,1.4,0,2.8.3,4.1.2.8.9,1.7,1.6,2.2,1.7,1,3.5.4,5.1-.4,1.6-.8,2.7-2.1,3.6-3.8,1.7-3.6.3-8.8-3.6-10.6-2.2-1-4.5-1-7-1.4ZM83.9,206.9c1,0,1.8-.1,2.7-.2,2.7-.2,5.9-1.7,6.6-5.4.6-3.4-1.2-8-5.7-8.5-1.9-.2-3.9.3-3.6,3,.2,1.7,0,3.5,0,5.2,0,1.9,0,3.8,0,5.8Z"/>
        <path class="cls-1" d="M144.9,188.8h19.7c0,1,0,2,0,2.9,0,.7-.4.8-.9.9-.8,0-1.6.1-2.4.2-.7,0-1.8,1.3-1.8,2.2,0,5.6-.3,11.3-.2,16.9,0,2.9.2,5.9,1.4,8.7.8,1.9,2,3.5,3.7,4.6,3.1,2,6.2,1.9,9.3.2,2.9-1.6,4.1-4.3,4.9-7.3.6-2.5,1-5.1.9-7.7,0-3,0-6,0-9,0-1.7-.2-3.5-.4-5.2-.5-2.7-2-3.4-4.6-3.6-1.6-.1-1.6,0-1.6-1.7,0-.7,0-1.4,0-2.1h17.1c0,1,0,2,0,3.1,0,.8-.7.7-1.2.7-1.4,0-2.8.4-3.6,1.7-.4.7-.7,1.5-.8,2.3-.2,1.3-.2,2.6-.2,3.9,0,5.1,0,10.2-.3,15.3-.2,4-1.2,7.8-3.7,10.9-1,1.3-2.5,2.2-3.9,3.2-2.5,1.8-5.4,2.2-8.4,2.3-3.8.1-7.5-.3-10.9-2.2-2.5-1.4-4.2-3.5-5.3-6.2-1.2-3.1-1.6-6.2-1.6-9.5,0-5.5,0-10.9,0-16.4,0-1,0-2-.2-3-.2-1.4-1.6-2.3-3.4-2.4q-1.7,0-1.7-1.8c0-.6,0-1.3,0-2Z"/>
        <path class="cls-1" d="M122.8,214.5c0,2.7,0,5.4,0,8.1,0,1,.3,2.1.4,3.1,0,.9.7,1.3,1.4,1.4,1.4.3,2.7.5,4.1.7,0,0,0,.1,0,.2q.1,3.4-3.2,3.4c-5.3,0-10.6,0-15.8,0h-1.2v-3.6c.9-.2,1.8-.4,2.8-.5,1.7-.1,2.5-1.5,2.5-3.3,0-7.2,0-14.4,0-21.5,0-2.1,0-4.1,0-6.2,0-1,0-2.2-1-2.8-.8-.5-1.7-.8-2.6-.8-1.2,0-1.4-.7-1.4-1.5,0-.8,0-1.5.1-2.4h1.3c5.8,0,11.7,0,17.5,0,2.7,0,5.3.3,7.8,1.2,2.3.8,4.1,2.3,5.4,4.5,2.1,3.6,2.1,7.3,1.2,11.1-.9,3.9-3.4,6.6-7.1,8.2-2.6,1.1-5.3,1.7-8.2,1.6-1.3,0-2.6-.5-3.9-.8ZM122.6,202.7c0,2.2,0,4.4,0,6.6,0,.3.1.9.3.9,1.1.2,2.3.6,3.4.4,1.9-.2,3.4-1.2,4.6-2.8.3-.4.7-.8.9-1.2.4-1.2.7-2.3.9-3.5.5-3.1,0-6-2.3-8.4-1.6-1.6-3.6-2.2-5.8-2-.9,0-1.6.4-1.7,1.4-.1,1-.2,2-.2,2.9,0,1.9,0,3.7,0,5.6Z"/>
      </g>
    </g>
  </g>
  <path class="cls-3" d="M306.8,125.3c-.9,0-1.7,0-2.2-.3-.6-.2-.9-.5-.9-.9,0-.8,1.2-1.5,3.5-1.9,2.7-.5,4.8-1.3,6.2-2.4,1.4-1.1,2.1-3,2.1-5.5v-47.9c0-2.6-.5-4.4-1.6-5.6-1.1-1.2-2.9-1.9-5.5-2.1-1.2-.2-2.1-.4-2.7-.8-.6-.4-.9-.8-.9-1.3s.3-.7.9-.9c.6-.2,1.3-.3,2.2-.3h4.5c1.1,0,2.1,0,3,0,1,0,2.1,0,3.6,0s2.5,0,3.5-.1c1-.1,2.1-.2,3.4-.3,1.3,0,2.9-.1,5-.1,8.3,0,14.5,1.2,18.6,3.6s6.1,6.5,6.1,12.3-.4,4.5-1.2,6.3c-.8,1.8-1.6,3.1-2.4,3.9-1.1,1.1-2.2,2-3.1,2.6-.9.6-2.3,1.3-4,2-.3,0-.4.3-.4.5s.1.4.4.6c1.6.5,3.3,1.1,5,1.9,1.7.8,3.4,1.8,4.9,3,1.5,1.2,2.8,2.9,3.7,4.9,1,2,1.4,4.6,1.4,7.7s-.6,7-1.9,9.3c-1.2,2.3-2.7,4-4.4,5.2-1.7,1.2-3.3,2.2-4.8,3-2.2,1.1-4.8,2-7.7,2.6-2.9.6-6.4,1-10.4,1s-2.3,0-4.1-.2c-1.8-.1-3.8-.2-6-.2s-3.4,0-4.7.1c-1.3,0-2.6.2-4,.3-1.4.1-3.1.2-5.2.2ZM332.3,120.8c3.1,0,6-.7,8.7-2.1,2.7-1.4,4.9-3.3,6.5-5.8,1.6-2.5,2.5-5.2,2.5-8.3s-.5-5-1.4-6.9c-.9-1.8-2-3.3-3.2-4.4-1.2-1.1-2.3-2-3.3-2.5-.9-.6-2.4-1.2-4.4-1.8-2-.6-4.6-.9-7.8-.9s-3.8.5-4.7,1.4c-.9.9-1.3,1.7-1.3,2.4v21.2c0,3,.7,5,2.2,6,1.5,1,3.5,1.5,6.3,1.5ZM328.8,85.3c1.9,0,4-.2,6.2-.6,2.2-.4,4.4-1.3,6.6-2.5.8-.4,1.8-1.5,3-3.1,1.2-1.6,1.8-4,1.8-7s-.4-4.2-1.2-6.3c-.8-2.2-2.3-4-4.5-5.5-2.2-1.5-5.5-2.3-9.9-2.3s-4.8.4-5.7,1.2c-.9.8-1.3,2-1.3,3.6v18.5c0,1.8.6,3,1.8,3.4,1.2.4,2.2.6,3.1.6Z"/>
  <path class="cls-3" d="M369.4,125.1c-.7,0-1.2,0-1.6-.3-.3-.2-.5-.5-.5-.9s.2-.9.6-1.1c.4-.2,1-.4,1.8-.6,1.3-.3,2.4-.9,3-1.5.7-.7,1-1.5,1-2.5v-22.9c0-1.9-.3-3.6-.9-5-.6-1.4-1.7-2.3-3.5-2.7-.3,0-.5-.3-.8-.5-.2-.3-.3-.6-.3-.9,0-.7.3-1.1,1-1.3,1.8-.6,3.8-1.4,5.8-2.5,2-1.1,3.6-2,4.8-2.7.4-.3.8-.5,1-.6.3-.1.4-.2.6-.2.3,0,.5.2.5.7s0,.8,0,1.6c0,.8,0,1.8-.1,3,0,1.1,0,2.3-.1,3.4,0,.1,0,.2.2.2,1.1-1.4,2.4-2.7,3.8-3.7,1.4-1.1,2.8-1.9,4.3-2.6,1.5-.6,2.9-1,4.2-1s2.7.3,3.7,1c1,.6,1.4,1.5,1.4,2.5s-.2,1.5-.6,2.4c-.4.8-.9,1.6-1.5,2.2s-1.3,1-2,1-.9,0-1.4-.3c-.5-.2-1-.4-1.6-.7-.6-.2-1.1-.4-1.7-.6-.6-.2-1.1-.3-1.7-.3-1.7,0-3.3.6-4.9,1.8-1.6,1.2-2.4,3.6-2.4,7.1v21.5c0,.9.5,1.7,1.5,2.3,1,.6,2.4,1.2,4.2,1.8.8.2,1.4.4,1.8.6.4.2.6.6.6,1.1,0,.8-.7,1.2-2.1,1.2-2.1,0-3.7,0-4.9-.3-1.1-.2-2.6-.3-4.4-.3s-2.2,0-2.9.1c-.7,0-1.5.2-2.3.3-.8.1-1.9.2-3.4.2Z"/>
  <path class="cls-3" d="M424.7,126.3c-4,0-7.6-.9-10.8-2.8-3.2-1.8-5.7-4.4-7.6-7.6-1.9-3.2-2.8-6.9-2.8-11s.6-5.9,1.8-8.7c1.2-2.8,2.8-5.4,4.9-7.8,2.1-2.3,4.6-4.2,7.5-5.6,2.8-1.4,5.9-2.1,9.2-2.1s7.8,1,11.1,3c3.3,2,5.9,4.6,7.9,7.8,2,3.2,2.9,6.8,2.9,10.6s-.9,8-2.7,11.7c-1.8,3.7-4.5,6.7-8,9-3.5,2.3-8,3.5-13.3,3.5ZM426.9,123.1c2.4,0,4.6-.5,6.5-1.4,1.9-.9,3.4-2.4,4.5-4.5.9-1.6,1.4-3.6,1.7-6,.3-2.3.4-4.5.4-6.6,0-3.4-.6-6.7-1.9-9.8-1.2-3.2-3-5.8-5.2-7.8-2.2-2-4.9-3-7.9-3s-3.6.3-5.2.9c-1.5.6-2.9,1.7-4.2,3.3-1.4,1.8-2.3,3.9-2.8,6.5-.4,2.6-.6,5.1-.6,7.7s.6,6.8,1.9,10c1.3,3.2,3,5.7,5.2,7.7,2.2,2,4.7,3,7.6,3Z"/>
  <path class="cls-3" d="M476.5,127.2c-.1,0-.3,0-.4-.2-.1-.1-.2-.3-.3-.5l-14.8-36.7c-.5-1.4-1.3-2.6-2.4-3.5-1.1-.9-2.1-1.5-3.2-1.8-.6-.2-1.1-.4-1.6-.7-.5-.3-.8-.7-.8-1.2s.3-.7.8-.8c.5-.1,1-.2,1.3-.2.9,0,1.8,0,2.6.1.8,0,1.7.2,2.5.3.8,0,1.7.1,2.7.1s2,0,3-.1c1-.1,2-.2,2.9-.3,1,0,1.9-.1,2.9-.1s.7,0,1.3.2c.6.1.9.4.9.8s-.3.9-.8,1.2c-.5.3-1.1.5-1.6.7-.7.2-1.3.7-1.7,1.6-.4.8-.6,1.7-.6,2.7s.2,1.8.5,2.8l8.3,21.4c0,.3.3.4.5.4s.5-.1.5-.4l7.2-17.3c.4-.9.6-1.8.7-2.6.1-.9.2-1.7.2-2.5,0-1.6-.6-2.8-1.8-3.8-1.2-1-2.4-1.8-3.6-2.3-.6-.2-1.1-.4-1.6-.7-.5-.3-.8-.7-.8-1.2s.2-.7.7-.8c.5-.1,1-.2,1.4-.2,1,0,2.1,0,3.2.3,1.2.2,2.8.3,4.8.3s3.7,0,5.1-.3c1.4-.2,2.7-.3,3.8-.3s.8,0,1.3.2c.5.1.8.4.8.8s-.3.9-.8,1.2c-.5.3-1.1.5-1.6.7-.8.3-1.6.7-2.4,1.2-.8.5-1.2,1.4-1.2,2.6s0,.9.2,1.5c.1.5.3,1.1.6,1.8l8,20.5c.4.8.6,1.2.9,1.2s.6-.4.9-1.1l8.1-18.8c.3-.6.5-1.3.6-2.1.1-.9.2-1.5.2-2,0-1.3-.4-2.3-1.3-3.1-.8-.8-1.7-1.3-2.5-1.6-.6-.2-1.1-.4-1.6-.7-.5-.3-.8-.7-.8-1.2s.3-.7.8-.8c.5-.1,1-.2,1.3-.2,1.6,0,2.8,0,3.7.3.9.2,2.4.3,4.3.3s2.3,0,2.9-.1c.6-.1,1.1-.2,1.5-.3.4,0,1-.1,1.8-.1s.9,0,1.4.2c.5.1.8.4.8.8s-.3.9-.8,1.2c-.5.3-1.1.5-1.6.7-1.1.3-2.1,1.1-3.1,2.5-1,1.4-1.8,2.9-2.5,4.5l-14.6,34.9c-.2.5-.5.8-1,.8s-.6-.3-.8-.8l-11.1-27.5c-.2-.6-.4-.9-.6-1-.2,0-.5.4-.8,1.1l-11.6,27.4c-.2.5-.5.8-.9.8Z"/>
  <path class="cls-3" d="M530.1,125.1c-.6,0-1.2,0-1.5-.3-.4-.2-.6-.5-.6-.9s.2-.9.6-1.1c.4-.2,1-.4,1.8-.6,1.1-.3,2.1-.7,3.1-1.2,1-.5,1.5-1.5,1.5-2.9v-22.9c0-1.9-.2-3.5-.6-4.9-.4-1.4-1.5-2.3-3.4-2.8-.3-.2-.5-.3-.8-.5-.2-.2-.3-.5-.3-.9,0-.8.3-1.2,1-1.3,2.5-.6,4.5-1.4,6.1-2.3,1.6-.9,3.1-2,4.6-3.1.2-.1.4-.3.6-.4.2-.1.4-.2.6-.2s.3,0,.4.2c.1.1.2.3.2.5,0,.5,0,1.5-.3,3-.2,1.5-.3,2.8-.3,3.8s0,.5,0,.8c0,.3,0,.4.2.5,2.5-2.3,5.1-4.1,7.9-5.3,2.8-1.2,5.9-1.8,9.2-1.8s6.3,1.4,8.6,4.3c2.3,2.8,3.4,6.3,3.4,10.5v22.7c0,1.4.5,2.4,1.5,2.8,1,.5,2,.9,3.1,1.2.6.2,1.1.5,1.6.7.5.2.8.6.8,1.2s-.3.7-.8.8c-.5.1-1,.2-1.4.2-1.4,0-2.5,0-3.3-.2-.8,0-1.5-.2-2.2-.3-.7,0-1.7-.1-3-.1s-2.2,0-3,.1c-.8,0-1.6.2-2.4.3-.8.1-1.9.2-3.3.2s-.8,0-1.4-.2c-.5,0-.8-.4-.8-.8s.3-1,.8-1.2c.5-.3,1.1-.5,1.7-.7,1.1-.3,2.1-.8,3.1-1.2,1-.5,1.5-1.4,1.5-2.8v-22.4c0-3.1-.9-5.6-2.6-7.3-1.7-1.7-4.1-2.6-7-2.7-2.6,0-4.8.4-6.7,1.2-1.9.8-3.6,1.8-5.1,3-.3.3-.5.7-.6,1.1-.1.5-.2.9-.2,1.3v25.6c0,1.4.5,2.4,1.5,2.9,1,.5,2,.9,3.1,1.2,1.6.4,2.5,1,2.5,1.7s-.2.7-.5.9c-.3.2-.9.3-1.6.3-1.4,0-2.6,0-3.4-.2-.8,0-1.6-.2-2.3-.3-.7,0-1.7-.1-3-.1s-2.2,0-2.9.1c-.7,0-1.5.2-2.3.3-.8.1-1.9.2-3.4.2Z"/>
  <path class="cls-3" d="M307.4,250.1c-.9,0-1.7,0-2.3-.3-.6-.2-.8-.5-.8-.9,0-.8,1.2-1.5,3.5-1.9,2.7-.5,4.7-1.3,5.9-2.4,1.3-1.1,1.9-3,1.9-5.6v-44.9c0-3.2-.4-5.6-1.2-7.4-.8-1.7-2.6-2.8-5.3-3.3-1.2-.2-2.1-.5-2.7-.9-.6-.4-.9-.8-.9-1.3s.3-.7.9-.9c.6-.2,1.3-.3,2.2-.3h4.3c1,0,1.9,0,2.7,0,.9,0,2,0,3.4,0s2.9,0,4.3-.1c1.5-.1,2.8-.2,4.1-.3,1.3-.1,2.4-.2,3.4-.2,8.1,0,14.6,1.7,19.5,5,4.9,3.3,7.4,8,7.4,13.9s-.9,8.3-2.6,12c-1.7,3.7-4.3,6.6-7.8,8.8-3.5,2.2-8,3.3-13.5,3.3s-2.7-.2-3.6-.7c-.8-.5-1.2-.9-1.2-1.3s.2-.6.6-1c.4-.4.8-.5,1.1-.5s.9,0,1.6.1c.8,0,1.8.1,3.3.1,4.3,0,7.5-1.8,9.6-5.3,2.2-3.6,3.3-8.5,3.3-14.7s-1.7-9.9-5-12.6c-3.3-2.7-7.6-4.1-12.8-4.1s-3.6.3-4.9,1c-1.3.7-1.9,1.8-1.9,3.4v50.8c0,2.6.5,4.6,1.6,6.2,1.1,1.6,2.9,2.6,5.5,3.1,1.2.2,2.1.5,2.7.8.6.3.9.7.9,1.1s-.3.7-.9.9c-.6.2-1.3.3-2.2.3-1.9,0-3.4,0-4.4-.2-1-.1-2-.3-2.8-.4-.8-.1-1.9-.2-3.3-.2s-3.4,0-4.8.2c-1.4,0-2.8.2-4.1.4-1.4.2-3,.2-4.9.2Z"/>
  <path class="cls-3" d="M385.4,251.1c-4,0-7.6-.9-10.8-2.8-3.2-1.8-5.7-4.4-7.6-7.6-1.9-3.2-2.8-6.9-2.8-11s.6-5.9,1.8-8.7c1.2-2.8,2.8-5.4,4.9-7.8,2.1-2.3,4.6-4.2,7.5-5.6,2.8-1.4,5.9-2.1,9.2-2.1s7.8,1,11.1,3c3.3,2,5.9,4.6,7.9,7.8,2,3.2,2.9,6.8,2.9,10.6s-.9,8-2.7,11.7c-1.8,3.7-4.5,6.7-8,9-3.5,2.3-8,3.5-13.3,3.5ZM387.6,247.8c2.4,0,4.6-.5,6.5-1.4,1.9-.9,3.4-2.4,4.5-4.5.9-1.6,1.4-3.6,1.7-6,.3-2.3.4-4.5.4-6.6,0-3.4-.6-6.7-1.9-9.8-1.2-3.2-3-5.8-5.2-7.8-2.2-2-4.9-3-7.9-3s-3.6.3-5.2.9c-1.5.6-2.9,1.7-4.2,3.3-1.4,1.8-2.3,3.9-2.8,6.5-.4,2.6-.6,5.1-.6,7.7s.6,6.8,1.9,10c1.3,3.2,3,5.7,5.2,7.7,2.2,2,4.7,3,7.6,3Z"/>
  <path class="cls-3" d="M417.3,249.9c-.3,0-.8,0-1.3-.2-.5,0-.8-.4-.8-.8s.3-1,.8-1.2c.5-.3,1.1-.5,1.7-.7,1.1-.3,2.1-.8,3.1-1.2,1-.5,1.5-1.4,1.5-2.8v-53.6c0-2.1-.4-3.8-1.1-5.2-.7-1.4-2-2.3-3.8-2.6-.6-.2-.9-.6-.9-1.4s.3-1.1.8-1.3c1.8-.4,3.4-.9,4.8-1.3,1.3-.5,2.6-.9,3.8-1.4,1.2-.5,2.3-1,3.5-1.4.3-.2.5-.2.6-.2s.3,0,.4.3c.1.2.2.3.2.5,0,.6-.1,2-.4,4.1-.3,2.1-.4,5.6-.4,10.4v53.2c0,1.4.5,2.4,1.5,2.8,1,.5,2,.9,3.1,1.2.6.2,1.1.5,1.6.7.5.2.8.6.8,1.2s-.3.7-.8.8c-.5.1-1,.2-1.3.2-1.3,0-2.4,0-3.3-.2-.8,0-1.6-.2-2.4-.3-.7,0-1.7-.1-3-.1s-2.2,0-3,.1c-.8,0-1.6.2-2.4.3-.8.1-1.9.2-3.3.2Z"/>
  <path class="cls-3" d="M443.4,249.9c-.6,0-1.2,0-1.5-.3-.4-.2-.6-.5-.6-.9s.3-1,.8-1.2c.5-.2,1.1-.4,1.6-.5,1.5-.3,2.6-.8,3.4-1.3.8-.5,1.2-1.4,1.2-2.7v-23.1c0-1.9-.3-3.6-1-5.1-.7-1.5-1.9-2.4-3.8-2.7-.4,0-.6-.2-.8-.4-.2-.2-.3-.5-.3-1,0-.8.3-1.2,1-1.3,2.8-.6,5.2-1.5,7-2.6,1.8-1.1,3.2-2,4.1-2.7.6-.5,1.1-.8,1.5-.8s.6.2.6.5c0,.6,0,1.7-.3,3.4-.2,1.7-.3,3.5-.5,5.5-.1,2-.2,3.8-.2,5.5v24.7c0,1.2.4,2.1,1.2,2.7.8.6,1.9,1,3.4,1.4.6.2,1.1.3,1.6.5.5.2.8.6.8,1.2s-.7,1.2-2.1,1.2-2.4,0-3.3-.2c-.8,0-1.6-.2-2.4-.3-.7,0-1.7-.1-3-.1s-2.2,0-3,.1c-.8,0-1.6.2-2.3.3-.8.1-1.9.2-3.3.2ZM452,194.6c-1.5,0-2.7-.5-3.8-1.5-1-1-1.5-2.3-1.5-3.8s.5-2.9,1.5-3.9c1-1,2.3-1.5,3.8-1.5s2.8.5,3.9,1.5c1,1,1.6,2.3,1.6,3.9s-.5,2.7-1.6,3.8c-1,1-2.3,1.5-3.9,1.5Z"/>
  <path class="cls-3" d="M485,251.1c-3.5,0-6.2-1.1-8.2-3.2-1.9-2.1-2.9-5.3-2.9-9.5v-24.7c0-.6-.2-1-.6-1.2-.4-.3-1.3-.4-2.8-.4h-.6c-.3,0-.6-.2-.9-.7s-.4-.9-.4-1.4.1-.3.3-.6c.2-.3.4-.5.4-.5,1.4-1,2.7-2,3.9-3,1.2-1,2.2-2,3.2-2.9s1.8-1.8,2.4-2.6c.4-.3.7-.6.9-.9s.5-.4.9-.4.7,0,1,.2c.3.1.4.5.4,1l-.5,4.8c0,.8.1,1.3.5,1.6.4.3,1.1.4,2,.4h12.1c.3,0,.5.2.8.7s.3,1,.3,1.6-.1,1.3-.3,1.9c-.2.6-.5.9-.8.9h-10.5c-1.8,0-2.9.1-3.5.4-.5.3-.8,1.1-.8,2.5v21c0,2.8.6,5.1,1.8,6.7,1.2,1.6,2.9,2.4,5.2,2.4s3.7-.2,4.8-.5c1.1-.3,2.2-.8,3.1-1.4.2-.2.3-.2.4-.2.3,0,.5.2.6.5.1.3.2.7.2,1s-.6,1.1-1.8,2.1c-1.2,1.1-2.7,2.1-4.6,3-1.9.9-3.9,1.4-6.1,1.4Z"/>
  <path class="cls-3" d="M502.9,249.9c-.6,0-1.2,0-1.5-.3-.4-.2-.6-.5-.6-.9s.3-1,.8-1.2c.5-.2,1.1-.4,1.6-.5,1.5-.3,2.6-.8,3.4-1.3.8-.5,1.2-1.4,1.2-2.7v-23.1c0-1.9-.3-3.6-1-5.1-.7-1.5-1.9-2.4-3.8-2.7-.4,0-.6-.2-.8-.4-.2-.2-.3-.5-.3-1,0-.8.3-1.2,1-1.3,2.8-.6,5.2-1.5,7-2.6,1.8-1.1,3.2-2,4.1-2.7.6-.5,1.1-.8,1.5-.8s.6.2.6.5c0,.6,0,1.7-.3,3.4-.2,1.7-.3,3.5-.5,5.5-.1,2-.2,3.8-.2,5.5v24.7c0,1.2.4,2.1,1.2,2.7.8.6,1.9,1,3.4,1.4.6.2,1.1.3,1.6.5.5.2.8.6.8,1.2s-.7,1.2-2.1,1.2-2.4,0-3.3-.2c-.8,0-1.6-.2-2.4-.3-.7,0-1.7-.1-3-.1s-2.2,0-3,.1c-.8,0-1.6.2-2.3.3-.8.1-1.9.2-3.3.2ZM511.5,194.6c-1.5,0-2.7-.5-3.8-1.5-1-1-1.5-2.3-1.5-3.8s.5-2.9,1.5-3.9c1-1,2.3-1.5,3.8-1.5s2.8.5,3.9,1.5c1,1,1.6,2.3,1.6,3.9s-.5,2.7-1.6,3.8c-1,1-2.3,1.5-3.9,1.5Z"/>
  <path class="cls-3" d="M547,251.2c-3.5,0-6.8-.9-9.6-2.7-2.9-1.8-5.1-4.3-6.8-7.5-1.7-3.2-2.5-6.7-2.5-10.6s1-8.8,3-12.6c2-3.8,4.7-6.8,8.1-9,3.4-2.2,7.2-3.4,11.3-3.4s8.7,1.2,12.1,3.7c.8.6,1.3,1.3,1.3,2s-.3,1.2-.8,1.9-1.1,1.3-1.8,1.8c-.7.5-1.4.7-2,.7s-.7-.1-1.1-.4c-.3-.3-.7-.5-1.2-.8-1.6-1.2-3.3-2.3-5.2-3.4-1.9-1.1-3.5-1.6-4.8-1.6-3.5,0-6.3,1.6-8.5,4.9-2.2,3.2-3.3,7.5-3.3,12.7s.7,6.3,2.2,9c1.5,2.7,3.4,4.8,5.9,6.4,2.5,1.6,5.2,2.3,8.1,2.3s3.8-.3,5.3-1c1.5-.7,3.1-1.9,4.8-3.6.1-.1.3-.3.5-.4.2-.1.4-.2.5-.2.8,0,1.2.5,1.2,1.5s-.1.9-.4,1.5c-.3.5-.7,1.1-1.2,1.9-1.1,1.4-2.5,2.6-4,3.7-1.6,1-3.3,1.8-5.2,2.3-1.9.5-3.9.8-6.1.8Z"/>
  <path class="cls-3" d="M580.1,251.1c-1.3,0-2.6-.5-3.9-1.5-1.3-1-2.4-2.2-3.3-3.6-.9-1.4-1.3-2.8-1.3-4,0-2.3.6-4,1.8-5.3,1.2-1.3,3.1-2.4,5.8-3.5l10.9-4.5c1.4-.6,2.3-1.1,2.5-1.5.3-.4.4-1.4.5-2.8l.2-6.8c0-1.8-.4-3.4-1.5-4.8-1.1-1.3-2.7-2-4.7-2s-2.1.2-3.2.5c-1.1.3-1.9.8-2.6,1.4-.4.3-.7.7-.9,1.3-.1.6-.2,1.2-.2,1.8s0,.6,0,1c0,.4,0,.7,0,1s-.4.8-1.3,1.4c-.9.6-1.9,1.1-3,1.6-1.1.5-2,.7-2.7.7s-.7,0-.9-.3c-.2-.2-.3-.4-.3-.7,0-1.1.4-2.4,1.1-3.7.8-1.3,1.8-2.5,3.1-3.7,1.6-1.5,3.4-2.8,5.3-3.9,1.9-1.1,3.8-2,5.6-2.7,1.8-.6,3.5-1,4.9-1,2.6,0,4.7.9,6.3,2.7,1.7,1.8,2.5,4.1,2.4,6.8l-.5,25.6c0,1.5.3,2.7,1,3.6.8.9,1.7,1.4,2.8,1.4,1.8,0,3.1-.4,3.9-1.2.3-.4.6-.5.9-.5.3,0,.6.1.8.3.2.2.3.5.3.8,0,.8-.4,1.6-1.2,2.4-1.1,1.1-2.4,2-3.7,2.7-1.3.7-2.5,1-3.7,1-3.3,0-5.9-1.8-7.8-5.5h-.3c-2.3,1.9-4.6,3.3-6.7,4.2-2.1.9-4.3,1.3-6.6,1.3ZM585.1,245.9c1.4,0,2.6-.2,3.6-.7,1-.5,1.9-1.1,2.7-1.9.3-.4.6-.8.9-1.4.3-.6.4-1.6.5-2.9l.2-5.2c0-.8,0-1.3-.1-1.7-.1-.4-.4-.5-.9-.5s-.4,0-.8.1c-.3,0-.8.2-1.4.4-3.8,1.3-6.4,2.8-7.8,4.2-1.4,1.5-2.2,2.8-2.2,4,0,1.8.5,3.3,1.6,4.2,1.1,1,2.3,1.4,3.6,1.4Z"/>
  <path class="cls-3" d="M614.3,249.9c-.3,0-.8,0-1.3-.2-.5,0-.8-.4-.8-.8s.3-1,.8-1.2c.5-.3,1.1-.5,1.7-.7,1.1-.3,2.1-.8,3.1-1.2,1-.5,1.5-1.4,1.5-2.8v-53.6c0-2.1-.4-3.8-1.1-5.2-.7-1.4-2-2.3-3.8-2.6-.6-.2-.9-.6-.9-1.4s.3-1.1.8-1.3c1.8-.4,3.4-.9,4.8-1.3,1.3-.5,2.6-.9,3.8-1.4,1.2-.5,2.3-1,3.5-1.4.3-.2.5-.2.6-.2s.3,0,.4.3c.1.2.2.3.2.5,0,.6-.1,2-.4,4.1-.3,2.1-.4,5.6-.4,10.4v53.2c0,1.4.5,2.4,1.5,2.8,1,.5,2,.9,3.1,1.2.6.2,1.1.5,1.6.7.5.2.8.6.8,1.2s-.3.7-.8.8c-.5.1-1,.2-1.3.2-1.3,0-2.4,0-3.3-.2-.8,0-1.6-.2-2.4-.3-.7,0-1.7-.1-3-.1s-2.2,0-3,.1c-.8,0-1.6.2-2.4.3-.8.1-1.9.2-3.3.2Z"/>
  <path class="cls-3" d="M341.3,375.8c-6.3,0-11.6-1.1-15.9-3.4-4.3-2.2-7.4-5.4-9.6-9.5-2.1-4.1-3.2-8.8-3.2-14.2v-32.7c0-2.6-.5-4.4-1.5-5.6-1-1.2-2.1-1.9-3.4-2.2-2.3-.6-3.5-1.4-3.5-2.4s.3-.7.8-.9c.6-.2,1.3-.3,2.3-.3,1.6,0,3.2,0,4.8.2,1.6,0,3.4.1,5.4.1s3.2,0,4.6-.1c1.5,0,2.8-.1,3.9-.1s1.7,0,2.2.3c.6.2.9.5.9.9s-.3.9-.9,1.2c-.6.3-1.4.6-2.6,1-.9.3-1.8,1.1-2.9,2.4-1.1,1.3-1.6,3.1-1.6,5.2v29.9c0,5.7,1,10.3,2.9,14,1.9,3.7,4.6,6.3,7.9,8.1,3.4,1.7,7.2,2.6,11.5,2.6,7.3,0,12.7-2.5,16.1-7.6,3.4-5.1,5.1-11.8,5.1-20.1s0-3.6,0-6.2c0-2.6,0-5.3-.1-8.3,0-2.9-.1-5.8-.2-8.5,0-1.8-.2-3.6-.5-5.2-.3-1.6-.8-3-1.4-4.2-.6-1.2-1.5-1.9-2.5-2.2-.7-.2-1.5-.5-2.3-.9-.8-.4-1.2-.8-1.2-1.3s.3-.7.8-.9c.6-.2,1.3-.3,2.3-.3,1.6,0,3,0,4,0,1.1,0,2.4,0,3.9,0s2.2,0,3.2,0c1,0,2,0,2.9-.2.9,0,1.8-.1,2.6-.1s1.7,0,2.2.3c.6.2.9.5.9.9,0,.9-1.2,1.6-3.5,2.1-1.8.3-3.1,1.2-3.9,2.7-.8,1.4-1.2,3.2-1.4,5.3-.4,6.1-.6,11.7-.7,16.7,0,5-.2,10-.4,14.9-.1,5.5-1.5,10.3-3.9,14.6-2.5,4.3-5.8,7.6-10,10-4.2,2.4-8.9,3.6-14.1,3.6Z"/>
  <path class="cls-3" d="M385,374.6c-.6,0-1.2,0-1.5-.3-.4-.2-.6-.5-.6-.9s.2-.9.6-1.1c.4-.2,1-.4,1.8-.6,1.1-.3,2.1-.7,3.1-1.2,1-.5,1.5-1.5,1.5-2.9v-22.9c0-1.9-.2-3.5-.6-4.9-.4-1.4-1.5-2.3-3.4-2.8-.3-.2-.5-.3-.8-.5-.2-.2-.3-.5-.3-.9,0-.8.3-1.2,1-1.3,2.5-.6,4.5-1.4,6.1-2.3,1.6-.9,3.1-2,4.6-3.1.2-.1.4-.3.6-.4.2-.1.4-.2.6-.2s.3,0,.4.2c.1.1.2.3.2.5,0,.5,0,1.5-.3,3-.2,1.5-.3,2.8-.3,3.8s0,.5,0,.8c0,.3,0,.4.2.5,2.5-2.3,5.1-4.1,7.9-5.3,2.8-1.2,5.9-1.8,9.2-1.8s6.3,1.4,8.6,4.3c2.3,2.8,3.4,6.3,3.4,10.5v22.7c0,1.4.5,2.4,1.5,2.8,1,.5,2,.9,3.1,1.2.6.2,1.1.5,1.6.7.5.2.8.6.8,1.2s-.3.7-.8.8c-.5.1-1,.2-1.4.2-1.4,0-2.5,0-3.3-.2-.8,0-1.5-.2-2.2-.3-.7,0-1.7-.1-3-.1s-2.2,0-3,.1c-.8,0-1.6.2-2.4.3-.8.1-1.9.2-3.3.2s-.8,0-1.4-.2c-.5,0-.8-.4-.8-.8s.3-1,.8-1.2c.5-.3,1.1-.5,1.7-.7,1.1-.3,2.1-.8,3.1-1.2,1-.5,1.5-1.4,1.5-2.8v-22.4c0-3.1-.9-5.6-2.6-7.3-1.7-1.7-4.1-2.6-7-2.7-2.6,0-4.8.4-6.7,1.2-1.9.8-3.6,1.8-5.1,3-.3.3-.5.7-.6,1.1-.1.5-.2.9-.2,1.3v25.6c0,1.4.5,2.4,1.5,2.9,1,.5,2,.9,3.1,1.2,1.6.4,2.5,1,2.5,1.7s-.2.7-.5.9c-.3.2-.9.3-1.6.3-1.4,0-2.6,0-3.4-.2-.8,0-1.6-.2-2.3-.3-.7,0-1.7-.1-3-.1s-2.2,0-2.9.1c-.7,0-1.5.2-2.3.3-.8.1-1.9.2-3.4.2Z"/>
  <path class="cls-3" d="M441.2,374.6c-.6,0-1.2,0-1.5-.3-.4-.2-.6-.5-.6-.9s.3-1,.8-1.2c.5-.2,1.1-.4,1.6-.5,1.5-.3,2.6-.8,3.4-1.3.8-.5,1.2-1.4,1.2-2.7v-23.1c0-1.9-.3-3.6-1-5.1-.7-1.5-1.9-2.4-3.8-2.7-.4,0-.6-.2-.8-.4-.2-.2-.3-.5-.3-1,0-.8.3-1.2,1-1.3,2.8-.6,5.2-1.5,7-2.6,1.8-1.1,3.2-2,4.1-2.7.6-.5,1.1-.8,1.5-.8s.6.2.6.5c0,.6,0,1.7-.3,3.4-.2,1.7-.3,3.5-.5,5.5-.1,2-.2,3.8-.2,5.5v24.7c0,1.2.4,2.1,1.2,2.7.8.6,1.9,1,3.4,1.4.6.2,1.1.3,1.6.5.5.2.8.6.8,1.2s-.7,1.2-2.1,1.2-2.4,0-3.3-.2c-.8,0-1.6-.2-2.4-.3-.7,0-1.7-.1-3-.1s-2.2,0-3,.1c-.8,0-1.6.2-2.3.3-.8.1-1.9.2-3.3.2ZM449.7,319.4c-1.5,0-2.7-.5-3.8-1.5-1-1-1.5-2.3-1.5-3.8s.5-2.9,1.5-3.9c1-1,2.3-1.5,3.8-1.5s2.8.5,3.9,1.5c1,1,1.6,2.3,1.6,3.9s-.5,2.7-1.6,3.8c-1,1-2.3,1.5-3.9,1.5Z"/>
  <path class="cls-3" d="M487.5,375.8c-4,0-7.6-.9-10.8-2.8-3.2-1.8-5.7-4.4-7.6-7.6-1.9-3.2-2.8-6.9-2.8-11s.6-5.9,1.8-8.7c1.2-2.8,2.8-5.4,4.9-7.8,2.1-2.3,4.6-4.2,7.5-5.6,2.8-1.4,5.9-2.1,9.2-2.1s7.8,1,11.1,3c3.3,2,5.9,4.6,7.9,7.8,2,3.2,2.9,6.8,2.9,10.6s-.9,8-2.7,11.7c-1.8,3.7-4.5,6.7-8,9-3.5,2.3-8,3.5-13.3,3.5ZM489.7,372.6c2.4,0,4.6-.5,6.5-1.4,1.9-.9,3.4-2.4,4.5-4.5.9-1.6,1.4-3.6,1.7-6,.3-2.3.4-4.5.4-6.6,0-3.4-.6-6.7-1.9-9.8-1.2-3.2-3-5.8-5.2-7.8-2.2-2-4.9-3-7.9-3s-3.6.3-5.2.9c-1.5.6-2.9,1.7-4.2,3.3-1.4,1.8-2.3,3.9-2.8,6.5-.4,2.6-.6,5.1-.6,7.7s.6,6.8,1.9,10c1.3,3.2,3,5.7,5.2,7.7,2.2,2,4.7,3,7.6,3Z"/>
  <path class="cls-3" d="M520,374.6c-.6,0-1.2,0-1.5-.3-.4-.2-.6-.5-.6-.9s.2-.9.6-1.1c.4-.2,1-.4,1.8-.6,1.1-.3,2.1-.7,3.1-1.2,1-.5,1.5-1.5,1.5-2.9v-22.9c0-1.9-.2-3.5-.6-4.9-.4-1.4-1.5-2.3-3.4-2.8-.3-.2-.5-.3-.8-.5-.2-.2-.3-.5-.3-.9,0-.8.3-1.2,1-1.3,2.5-.6,4.5-1.4,6.1-2.3,1.6-.9,3.1-2,4.6-3.1.2-.1.4-.3.6-.4.2-.1.4-.2.6-.2s.3,0,.4.2c.1.1.2.3.2.5,0,.5,0,1.5-.3,3-.2,1.5-.3,2.8-.3,3.8s0,.5,0,.8c0,.3,0,.4.2.5,2.5-2.3,5.1-4.1,7.9-5.3,2.8-1.2,5.9-1.8,9.2-1.8s6.3,1.4,8.6,4.3c2.3,2.8,3.4,6.3,3.4,10.5v22.7c0,1.4.5,2.4,1.5,2.8,1,.5,2,.9,3.1,1.2.6.2,1.1.5,1.6.7.5.2.8.6.8,1.2s-.3.7-.8.8c-.5.1-1,.2-1.4.2-1.4,0-2.5,0-3.3-.2-.8,0-1.5-.2-2.2-.3-.7,0-1.7-.1-3-.1s-2.2,0-3,.1c-.8,0-1.6.2-2.4.3-.8.1-1.9.2-3.3.2s-.8,0-1.4-.2c-.5,0-.8-.4-.8-.8s.3-1,.8-1.2c.5-.3,1.1-.5,1.7-.7,1.1-.3,2.1-.8,3.1-1.2,1-.5,1.5-1.4,1.5-2.8v-22.4c0-3.1-.9-5.6-2.6-7.3-1.7-1.7-4.1-2.6-7-2.7-2.6,0-4.8.4-6.7,1.2-1.9.8-3.6,1.8-5.1,3-.3.3-.5.7-.6,1.1-.1.5-.2.9-.2,1.3v25.6c0,1.4.5,2.4,1.5,2.9,1,.5,2,.9,3.1,1.2,1.6.4,2.5,1,2.5,1.7s-.2.7-.5.9c-.3.2-.9.3-1.6.3-1.4,0-2.6,0-3.4-.2-.8,0-1.6-.2-2.3-.3-.7,0-1.7-.1-3-.1s-2.2,0-2.9.1c-.7,0-1.5.2-2.3.3-.8.1-1.9.2-3.4.2Z"/>
</svg>