<?xml version="1.0" encoding="UTF-8"?>
<svg id="Layer_1" data-name="Layer 1" xmlns="http://www.w3.org/2000/svg" viewBox="0 0 800 400">
  <defs>
    <style>
      .cls-1 {
        fill: #4e3629;
      }

      .cls-1, .cls-2 {
        stroke-width: 0px;
      }

      .cls-2 {
        fill: none;
      }
    </style>
  </defs>
  <path class="cls-1" d="M120.46,95.74c-56.39,0-102.11,45.72-102.11,102.11s45.72,102.11,102.11,102.11,102.11-45.72,102.11-102.11-45.72-102.11-102.11-102.11ZM119.85,288.26c-51.26,0-92.82-41.55-92.82-92.82s41.55-92.82,92.82-92.82,92.82,41.55,92.82,92.82-41.55,92.82-92.82,92.82Z"/>
  <path class="cls-1" d="M119.93,129.13c-37.83,0-68.5,30.27-68.5,67.6s30.67,67.6,68.5,67.6,68.5-30.27,68.5-67.6-30.67-67.6-68.5-67.6ZM119.84,257.94c-34.19,0-61.91-27.26-61.91-60.89s27.72-60.89,61.91-60.89,61.91,27.26,61.91,60.89-27.72,60.89-61.91,60.89Z"/>
  <path class="cls-1" d="M132.64,271.96c-.74-1.55-1.89-2.52-4.18-4.47-1.83-1.56-2.55-1.79-2.98-1.89-1.02-.24-1.16.1-3.78.2-.83.03-1.75.02-3.58,0-2.14-.03-2.13-.07-2.49,0-1.75.33-2.9,1.5-3.68,2.29-1.59,1.62-2.24,3.33-2.58,4.27-.92,2.5-.85,4.64-.8,5.47.09,1.32.23,3.35,1.59,5.37,1.37,2.03,3.2,2.92,4.12,3.35,3.42,1.61,6.68.97,9,.52,2.93-.56,6.26-1.2,8.35-4.08,1.45-1.99,1.68-4.19,1.79-5.27.12-1.13.35-3.39-.8-5.77ZM124.78,281.2c-1.93,1.65-4.29,1.35-4.77,1.29-.55-.07-2.2-.3-3.58-1.69-.31-.31-1.72-1.81-1.69-4.08.03-1.73.87-2.91,1.29-3.48.43-.58,1.5-2.03,3.38-2.39,1.26-.24,2.28.13,2.98.4.86.33,3.36,1.27,4.18,3.88.68,2.18-.1,4.62-1.79,6.06Z"/>
  <path class="cls-1" d="M115.14,285.38c-.65,1.35-.31,2.4,0,5.47.25,2.51.38,3.76.3,4.27-.11.71-.35,1.66.1,2.68.12.28.33.75.8,1.09.83.61,1.63.17,3.88.1,1.89-.06,2.13.22,2.49-.1.78-.72-.33-2.21-.7-5.67-.26-2.47-.39-3.71-.1-5.37.19-1.08.54-2.24-.1-3.08-.26-.34-.78-.77-1.29-.7-.5.07-.53.54-1.19.8-.63.24-1.26.06-1.49,0-.85-.24-1.01-.73-1.49-.7-.63.04-1.06.92-1.19,1.19Z"/>
  <path class="cls-1" d="M115.34,288.06c-.36.04-.56.33-.85.65-.5.56-1.51,1.15-3.52,2.33-1.61.94-3.4,1.71-7.36,3.38-2.63,1.11-5.13,2.54-7.85,3.38-1.46.45-2.51.68-3.48,1.69-.79.83-.71,1.33-1.99,4.18-.7,1.57-1.13,2.52-1.89,3.68-.74,1.14-1.44,1.94-2.19,2.78-2.09,2.36-3.28,3.09-3.08,3.48.25.49,2.42-.08,3.88-.6,2.69-.96,4.55-2.35,5.96-3.48,3.18-2.52,3.62-3.3,5.96-5.27,1.18-.99,3.63-2.58,8.55-5.77,2.64-1.71,4.92-4.14,7.9-5.15.75-.25,1.9-.58,2.24-1.51.54-1.47-1.15-3.9-2.29-3.78Z"/>
  <path class="cls-1" d="M121.31,294.33c.12,1.06,1.78,1.42,4.37,2.58,1.76.79,3.56,1.95,7.16,4.27,3.73,2.41,3.64,2.78,7.95,5.57,3.24,2.1,2.51,1.39,5.07,3.08,2.26,1.5,3.72,2.65,6.16,3.18.67.15,2.51.55,2.88-.1.32-.57-.76-1.45-2.39-4.08-.28-.45-1.06-1.71-1.79-3.28-1.39-2.98-1.07-3.76-2.19-4.87-.41-.41-.83-.67-3.28-1.59-2.55-.96-3.89-1.35-5.17-1.79-3.66-1.27-6.72-2.96-7.65-3.48-1.49-.83-2.82-1.68-4.97-2.19-1.66-.39-2.54-.29-3.18-.1-1.44.42-3.1,1.67-2.98,2.78Z"/>
  <path class="cls-2" d="M121.9,292.22c1.24.13,1.45-1.56,3.78-2.76,1.78-.92,2.21-.22,5.87-1.09.33-.08.13-.04,4.97-1.69,2.57-.88,3.3-1.12,3.48-1.79.26-.94-.7-2.14-1.69-2.68-.87-.48-1.74-.43-2.88-.3-3.73.43-6.54,1.31-7.29,1.55-2.54.81-3.84,1.47-4.32,1.72-.54.28-.57.33-1.65.91-2.09,1.12-2.33,1.14-2.54,1.49-.82,1.34.64,4.48,2.28,4.66Z"/>
  <path class="cls-1" d="M133.25,113.24c-1.05-4.05-4.55-6.06-6.18-7-1.21-.7-5.3-3.06-10.14-1.69-3.47.98-5.41,3.34-5.77,3.78-.6.75-2.13,2.86-2.39,5.96-.28,3.33,1.07,5.77,1.69,6.86,2.22,3.89,5.75,5.41,6.86,5.87,1.62.67,4.21,1.73,7.26.89,2.92-.8,4.55-2.89,5.57-4.18,1.08-1.38,4.38-5.57,3.1-10.49ZM123.69,122.44c-2.88,1.57-5.99-.42-6.26-.6-2.08-1.37-3.65-4.11-2.98-6.96.72-3.1,3.62-4.31,3.78-4.37.38-.15,2.72-1.04,5.07.2,2.72,1.44,3.11,4.52,3.18,5.07.03.21.54,4.85-2.78,6.66Z"/>
  <path class="cls-1" d="M114.57,342.5h-13.82v1.99s-3.68,2.09-3.88,4.18c0,0,.6,2.98,3.58,4.47l.2,1.79,3.58,2.39h34.2v-4.47s1.59-1.59,1.69-5.37c0,0-.1-.5-.99-1.49,0,0-.5-1.59-2.68-2.68l-1.29-.4-11.23-.4h-9.34Z"/>
  <path class="cls-1" d="M113.48,357.31v12.92s-.8,4.57-3.68,5.77c0,0-3.18,2.09-1.59,4.27,0,0,1.29,2.58,2.88,3.78l.1,2.19,1.29,1.09v3.28s-3.16,2.49-3.17,4.08h17.09s-.99-2.49-1.79-3.38l.2-2.39.4-1.79,1.19-.99v-2.49s2.09-.7,2.09-4.08c0,0,.2-3.38-2.68-4.18,0,0-1.89-1.69-1.89-5.57l-.1-12.53h-10.34Z"/>
  <path class="cls-1" d="M50.95,364.46s-10.94,11.33-1.39,24.06c0,0,14.12,19.68,39.27,6.16,0,0,18.39-7.26,23.76-37.38h-8.35s-4.77,32.81-32.21,33.6c0,0-17,.1-18.19-15.41,0,0,1.49-8.35,9.15-8.35,0,0,6.36.3,7.75,5.87,0,0,10.34-3.78,9.84-20.38,0,0-.5-21.47-18.89-27.74,0,0-21.17-4.18-22.37,12.43,0,0,.1,11.93,11.13,11.43,0,0,7.26-1.59,4.47-5.27,0,0-2.09-1.49-3.28.1,0,0,2.58,2.68-2.68,1.69,0,0-9.54-3.18-3.58-11.53,0,0,8.85-11.03,22.67,2.88,0,0,10.24,11.13,2.78,26.34,0,0-11.93-8.25-19.88,1.49Z"/>
  <path class="cls-1" d="M187.69,364.46s10.94,11.33,1.39,24.06c0,0-14.12,19.68-39.27,6.16,0,0-18.39-7.26-23.76-37.38h8.35s4.77,32.81,32.21,33.6c0,0,17,.1,18.19-15.41,0,0-1.49-8.35-9.15-8.35,0,0-6.36.3-7.75,5.87,0,0-10.34-3.78-9.84-20.38,0,0,.5-21.47,18.89-27.74,0,0,21.17-4.18,22.37,12.43,0,0-.1,11.93-11.13,11.43,0,0-7.26-1.59-4.47-5.27,0,0,2.09-1.49,3.28.1,0,0-2.58,2.68,2.68,1.69,0,0,9.54-3.18,3.58-11.53,0,0-8.85-11.03-22.67,2.88,0,0-10.24,11.13-2.78,26.34,0,0,11.93-8.25,19.88,1.49Z"/>
  <path class="cls-1" d="M123.92,342.5s7.74-41.17,38.77-52.64c0,0,27.64-12.67,51.1,4.43,0,0-19.88-24.85-7.75-44.93,0,0,16.1-21.67,28.83-2.78,0,0,4.97,14.32-7.36,14.51,0,0-10.21-1.01-5.7-8.76,0,0,.93,9.55,8.09,3.98,0,0,5.57-14.91-12.13-9.94,0,0-22.67,12.53,2.78,46.13,0,0,15.7,16.7,15.31,38.37,0,0-.86,16.3-14.05,20.88,0,0-10.4,3.58-13.39-4.37,0,0-3.98-9.15,5.96-11.13,0,0,5.77,0,5.17,6.26,0,0,17.63-8.67,2.25-29.34,0,0-21.54-37.08-62.5-12.87,0,0-22.07,10.3-26.54,42.21h-8.85Z"/>
  <path class="cls-1" d="M113.13,342.5s-7.74-41.17-38.77-52.64c0,0-27.64-12.67-51.1,4.43,0,0,19.88-24.85,7.75-44.93,0,0-16.1-21.67-28.83-2.78,0,0-4.97,14.32,7.36,14.51,0,0,10.21-1.01,5.7-8.76,0,0-.93,9.55-8.09,3.98,0,0-5.57-14.91,12.13-9.94,0,0,22.67,12.53-2.78,46.13,0,0-15.7,16.7-15.31,38.37,0,0,.86,16.3,14.05,20.88,0,0,10.4,3.58,13.39-4.37,0,0,3.98-9.15-5.96-11.13,0,0-5.77,0-5.17,6.26,0,0-17.63-8.67-2.25-29.34,0,0,21.54-37.08,62.5-12.87,0,0,22.07,10.3,26.54,42.21h8.85Z"/>
  <path class="cls-1" d="M17.58,189.8s-1.33-5.52-7.44-5.52c0,0-6.71.89-7.01,5.52v8.62s-.48,8.03,7.23,8.4c0,0,7.12-1.36,7.23-7.78v-9.25Z"/>
  <path class="cls-1" d="M236.26,189.05s-1.33-5.52-7.44-5.52c0,0-6.71.89-7.01,5.52v8.62s-.48,8.03,7.23,8.4c0,0,7.12-1.36,7.23-7.78v-9.25Z"/>
  <path class="cls-1" d="M233.42,190.56s-.81-3.35-4.52-3.35c0,0-4.07.54-4.26,3.35v5.23s-.29,4.87,4.39,5.1c0,0,4.32-.83,4.39-4.72v-5.61Z"/>
  <path class="cls-1" d="M110.1,1.22h-2.29v2.39l-3.38.99v3.68l3.48,2.29.1,2.09.99,2.68s-2.19,10.24-13.82,9.84c0,0-6.56-1.49-6.76-4.47,0,0,5.17,1.79,5.57-4.57,0,0,1.19-7.16-8.05-7.26,0,0-9.15-.3-10.24,13.82l-.8,45.13v35.67l9.79-3.76V30.25s9.25,6.56,17.89,2.53c0,0,9.39-1.94,13.42-11.48,0,0,.75,2.98-1.64,6.26,0,0-2.53,1.79-3.58,4.62l-.3,3.25,4.92,5.7.71,3.88-1.9,3.73s-6.24,2.98-6.25,10.59v14.17s-2.1,7.31-7.32,5.37c0,0-4.03-.15-3.88-4.03,0,0-.16-6.56,5.52-7.01,0,0-6.71-2.53-9.25,2.53,0,0-3.88,7.46,1.19,11.33,0,0,3.9,5.82,13.73,2.83,0,0,2.37,4.77,7.29,5.07l-.15,5.5,10.63.18v-3.44s2.94-2.53,3.39-5.67c0,0,4.32.75,5.37-4.62,0,0,8.05,9.54,13.12,2.53,0,0,9.39-8.2,0-15.51,0,0-3.73-1.64-6.11-1.34,0,0,2.24,1.79,2.24,4.32,0,0,6.21,9.78-7.31,6.86,0,0-.6-3.58-.6-7.01,0,0,.15-10.14,0-12.38,0,0-1.49-2.98-1.49-4.47,0,0-.75-3.88-2.68-4.32,0,0-3.28-2.53-3.28-4.18l-1.19-1.64v-3.43l1.04-2.98s2.98-4.32,2.53-7.01c0,0-5.43-4.62-5.03-6.26v-3.73s6.52,11.63,18.45,11.93c0,0,7.75.6,10.44-3.28v70.23s7.52,2.98,9.25,4.54l1.64-77.01s1.04-15.51-6.86-18.49c0,0-9.39-3.28-11.93,4.62,0,0-.67,6.11,4.96,6.86,0,0-2.72,7.16-12.12,2.53,0,0-6.56-3.73-6.71-8.05l.45-4.03,2.83-2.39-.15-3.88-2.83-1.19-.3-2.83-22.77.65Z"/>
  <path class="cls-1" d="M207.39,54.3c-.29,10.97-.41,15.21-.41,15.21l1.62.89s3.96-6.26,13.91-5.27c0,0,11.9.6,16.92,15.51v12.53s-6.25,17.5-17.83,26.64c0,0-10.38,7.85-4.17,21.37,0,0,7.83,10.14,15.55,1.79,0,0,4.16-6.96-2.44-9.15,0,0-4.29-.39-4.26,3.28,0,0-.2,2.09,1.12,3.78,0,0-6.9.2-3.55-7.56,0,0,8.53-9.15,15.13,3.78,0,0,4.57,15.71-14.93,15.51,0,0-9.85-1.79-13.4-9.54,0,0-6.94-15.51,5.82-26.94,0,0-19.32,8.95-36.69-4.27,0,0-13.3-11.03-12.79-22.77,0,0,2.23-20.98,18.89-13.92,0,0,9.85,8.65-2.34,12.72,0,0-3.96.2-5.89-3.98,0,0-8.12,18.39,17.87,26.15,0,0,23.15,8.95,35.23-18.29,0,0,5.28-10.34-4.87-17.2,0,0-8.43-3.98-10.76,1.49,0,0,3.05,2.39,2.54,6.06,0,0-6.28,11.73-16.64-.8,0,0-4.17-5.27-3.87-16.4l.2-15.31s-8.63-6.36-8.33-16.5c0,0,1.73-15.81,15.64-16.3,0,0,13.71-.4,14.42,11.73,0,0,0,9.44-9.04,9.54,0,0-5.18-1.39-5.28-6.56,0,0,.61-4.47,3.86-4.77,0,0,.15-2.39-5.41-1.49,0,0-9.25,2.52-4.13,13.32"/>
  <path class="cls-1" d="M32.05,54.3c.29,10.97.41,15.21.41,15.21l-1.62.89s-3.96-6.26-13.91-5.27c0,0-11.9.6-16.92,15.51v12.53s6.25,17.5,17.83,26.64c0,0,10.38,7.85,4.17,21.37,0,0-7.83,10.14-15.55,1.79,0,0-4.16-6.96,2.44-9.15,0,0,4.29-.39,4.26,3.28,0,0,.2,2.09-1.12,3.78,0,0,6.9.2,3.55-7.56,0,0-8.53-9.15-15.13,3.78,0,0-4.57,15.71,14.93,15.51,0,0,9.85-1.79,13.4-9.54,0,0,6.94-15.51-5.82-26.94,0,0,19.32,8.95,36.69-4.27,0,0,13.3-11.03,12.79-22.77,0,0-2.23-20.98-18.89-13.92,0,0-9.85,8.65,2.34,12.72,0,0,3.96.2,5.89-3.98,0,0,8.12,18.39-17.87,26.15,0,0-23.15,8.95-35.23-18.29,0,0-5.28-10.34,4.87-17.2,0,0,8.43-3.98,10.76,1.49,0,0-3.05,2.39-2.54,6.06,0,0,6.28,11.73,16.64-.8,0,0,4.17-5.27,3.87-16.4l-.2-15.31s8.63-6.36,8.33-16.5c0,0-1.73-15.81-15.64-16.3,0,0-13.71-.4-14.42,11.73,0,0,0,9.44,9.04,9.54,0,0,5.18-1.39,5.28-6.56,0,0-.61-4.47-3.86-4.77,0,0-.15-2.39,5.41-1.49,0,0,9.25,2.52,4.13,13.32"/>
  <path class="cls-1" d="M145.22,266.08c.19.14.48.06.58.03.33-.1.49-.31.73-.56.23-.24.53-.47,1.13-.94.33-.25.62-.47,1.04-.71.69-.39,1.04-.43,1.17-.44.2-.02.5-.04.8.12.25.13.25.26.5.45.27.21.44.19.94.36.43.14.35.17,1.11.49.53.22.8.33,1.16.43.51.14.55.09,1.36.26.48.1.84.21,1.17.3.53.15.79.22,1.12.35.38.15.41.19.7.27.65.19.77.21.77.21.21.05.3.06.35.14.1.17-.08.45-.16.56-.21.32-.37.35-.72.68-.24.23-.19.25-.55.65-.36.4-.42.4-.67.68-.39.43-.6.83-.83,1.25-.23.42-.37.77-.47,1.02-.19.47-.18.52-.42,1.18-.21.57-.33.86-.51,1.17-.11.18-.28.47-.57.77-.34.35-.66.52-1.09.76-.37.2-.75.42-1.29.55-.52.13-.77.2-.95.21-.18.01-.32,0-.46.1-.17.11-.29.34-.29.55,0,.21.11.33.37.71.15.22.28.44.43.66.45.69.67,1.36.8,1.74.07.22.19.58.27,1.07.04.27.07.55.12,1.09.05.51.03.45.05.57.03.14.05.2.02.26-.06.11-.24.11-.63.13-.47.02-.7.03-.89.07-.3.07-.27.13-.57.2-.37.09-.46.01-.87.06-.34.04-.38.11-.82.22-.03,0-.48.11-.98.14-.62.04-1.09-.06-1.87-.21-.53-.11-.8-.16-.96-.23-.17-.07-.32-.15-.56-.16-.06,0-.27,0-.52.1-.22.09-.23.17-.61.48-.04.03-.3.24-.67.46-.24.14-.32.16-.38.16-.24.01-.44-.14-.59-.27-.22-.19-.36-.38-.5-.6-.29-.46-.38-.66-.67-1.16-.22-.38-.33-.57-.49-.79-.37-.51-.5-.53-.72-.9-.25-.42-.32-.81-.35-.98-.11-.61,0-1.1.1-1.48.11-.47.26-.8.38-1.06.08-.17.38-.8.95-1.57.4-.54.67-.78.6-.88-.04-.06-.19-.02-.79.16-.68.2-1.01.31-1.16.36-.32.12-.41.17-1.29.55-.89.39-.8.34-.93.4-.58.28-.93.57-1.63,1.13-.43.35-.78.67-1.47,1.3-.5.46-.62.59-.74.74-.46.58-.7.98-.7.98-.19.31-.27.51-.44.52-.15,0-.3-.15-.37-.28-.08-.17-.05-.33-.04-.39.08-.36.42-.57.65-.72.47-.34.47-.54,1-1.15.65-.74,1.33-1.2,2.05-1.69,1.07-.73,1.99-1.14,2.57-1.41.72-.33,1.08-.49,1.47-.61.4-.13.7-.19.69-.26,0-.08-.47-.06-1.28-.15-.75-.08-1.13-.12-1.51-.26-.22-.08-.21-.11-1.28-.79-.82-.52-.83-.51-.94-.62-.2-.2-.23-.3-.81-1.55-.32-.7-.47-1.01-.53-1.51-.05-.44,0-.63.04-.71.17-.44.58-.66.9-.82.45-.23.57-.16,1.36-.46.43-.16.65-.25.83-.4.08-.07.21-.19.61-1.01.27-.55.4-.83.53-1.23.16-.52.09-.53.2-.84.06-.17.21-.53,1.13-1.42.48-.47.9-.82,1.27-1.13.61-.51.8-.63,1.14-1.02.28-.32.45-.51.63-.82.27-.47.29-.73.47-.77.15-.03.29.1.77.68.47.55.7.83.77.96.35.58.46,1.09.59,1.68.14.65.22,1.01.17,1.51-.04.48-.17.79-.19,1.55,0,.39.02.63.19.75Z"/>
  <path class="cls-1" d="M164.7,254.87c.23.08.48-.09.56-.15.28-.19.37-.44.53-.75.15-.3.37-.61.8-1.23.24-.34.45-.63.78-.99.55-.58.87-.72.98-.77.19-.08.47-.19.8-.12.27.05.31.17.61.28.32.12.48.05,1.01.06.45,0,.39.06,1.2.13.57.05.86.08,1.24.07.53-.02.55-.08,1.37-.15.49-.04.86-.05,1.21-.06.55-.01.82-.02,1.17,0,.41.03.45.06.75.05.67-.01.8-.03.8-.03.21-.02.3-.04.37.03.15.13.05.45.02.59-.1.37-.25.44-.48.87-.16.29-.11.29-.33.79-.22.49-.28.51-.43.85-.24.53-.33.97-.42,1.44-.09.47-.12.84-.15,1.12-.04.5-.01.55-.05,1.25-.03.61-.05.92-.14,1.27-.05.21-.13.53-.32.9-.22.43-.47.7-.81,1.05-.29.3-.6.62-1.07.91-.45.28-.68.42-.84.48-.17.06-.3.1-.41.23-.13.16-.18.41-.12.62.06.2.2.28.57.57.21.16.4.34.6.51.64.53,1.05,1.1,1.28,1.42.13.19.35.5.57.95.12.25.23.5.44,1.01.2.47.16.42.22.53.07.13.11.17.1.24-.02.12-.19.18-.56.31-.44.16-.66.24-.82.33-.27.16-.22.2-.48.36-.32.19-.44.15-.81.32-.31.14-.33.22-.71.45-.03.02-.42.25-.89.43-.58.22-1.06.27-1.85.35-.54.06-.81.08-.98.07-.18-.02-.35-.05-.59.02-.06.02-.26.08-.46.25-.18.15-.17.23-.44.64-.03.04-.22.32-.51.64-.19.21-.26.24-.32.27-.23.09-.46,0-.65-.08-.27-.11-.45-.26-.66-.43-.42-.35-.56-.52-.98-.91-.32-.3-.49-.45-.7-.61-.51-.38-.64-.36-.96-.65-.36-.33-.55-.68-.63-.83-.28-.55-.32-1.05-.35-1.44-.03-.48.01-.84.05-1.12.02-.19.12-.87.44-1.78.22-.63.4-.94.31-1.02-.06-.05-.19.03-.71.39-.59.4-.88.59-1,.69-.27.21-.34.28-1.07.91-.74.64-.66.56-.77.66-.47.44-.72.82-1.22,1.56-.31.46-.54.87-1.01,1.68-.34.59-.41.75-.48.93-.27.7-.38,1.15-.38,1.15-.09.36-.11.57-.26.63-.14.05-.33-.05-.44-.16-.13-.14-.15-.3-.15-.36-.03-.37.24-.67.4-.88.35-.47.28-.66.61-1.4.4-.9.91-1.54,1.45-2.22.8-1.01,1.56-1.68,2.03-2.11.59-.52.88-.79,1.22-1.02.34-.24.61-.39.58-.46-.03-.08-.47.08-1.26.24-.74.15-1.12.23-1.52.2-.23-.02-.23-.04-1.46-.37-.94-.25-.95-.24-1.08-.31-.25-.13-.31-.22-1.23-1.24-.51-.57-.75-.82-.96-1.28-.18-.4-.18-.61-.17-.69.03-.47.36-.8.62-1.06.36-.36.5-.32,1.17-.84.36-.28.55-.43.67-.63.05-.09.14-.25.28-1.15.09-.6.14-.91.14-1.33,0-.54-.07-.53-.06-.86,0-.18.05-.57.65-1.69.32-.6.62-1.06.87-1.46.43-.67.58-.84.79-1.31.17-.39.28-.62.35-.97.12-.53.06-.78.22-.87.13-.07.3.01.93.42.61.39.91.59,1.02.68.51.45.77.91,1.07,1.43.33.58.51.9.61,1.39.1.47.07.81.28,1.54.11.37.21.6.4.66Z"/>
  <path class="cls-1" d="M181.15,238.88c.24.02.44-.2.51-.27.23-.25.26-.52.34-.85.07-.32.21-.68.49-1.38.15-.39.29-.72.53-1.14.39-.69.67-.9.78-.98.16-.12.41-.29.75-.31.28-.01.35.09.66.13.34.04.47-.06.99-.18.44-.1.39-.03,1.2-.15.57-.08.85-.12,1.22-.22.52-.14.52-.21,1.3-.47.46-.16.83-.25,1.16-.34.53-.14.8-.21,1.14-.27.41-.07.45-.05.74-.12.65-.17.77-.21.77-.21.2-.07.29-.11.37-.06.17.09.16.43.15.57-.02.38-.14.49-.27.95-.09.32-.04.31-.14.84-.1.53-.15.56-.22.93-.11.57-.09,1.02-.07,1.5.02.48.08.85.12,1.12.08.5.12.54.24,1.23.11.6.16.91.17,1.26,0,.21,0,.54-.1.95-.11.47-.3.79-.54,1.21-.21.36-.43.74-.83,1.14-.38.38-.56.57-.71.66-.15.1-.27.17-.35.32-.09.19-.08.44.03.63.11.18.26.23.69.42.24.11.47.24.71.35.75.36,1.28.82,1.58,1.08.17.15.46.4.78.78.18.21.34.43.67.87.3.41.25.37.34.47.1.11.15.14.15.21,0,.13-.15.22-.47.43-.39.26-.59.39-.72.52-.22.21-.16.25-.39.46-.27.26-.39.25-.71.5-.27.21-.27.29-.59.61-.02.02-.35.34-.77.63-.51.35-.96.51-1.72.78-.51.18-.77.27-.94.3-.18.03-.36.04-.57.15-.05.03-.24.14-.39.35-.14.19-.11.26-.28.72-.02.05-.14.37-.34.74-.14.25-.19.3-.25.33-.2.14-.45.1-.65.07-.29-.05-.5-.14-.74-.26-.49-.24-.67-.37-1.17-.65-.39-.21-.58-.32-.82-.43-.58-.25-.71-.2-1.08-.4-.43-.24-.69-.53-.8-.66-.41-.47-.56-.94-.68-1.32-.15-.46-.18-.82-.22-1.1-.02-.19-.09-.88.01-1.83.07-.67.17-1.01.06-1.06-.07-.03-.18.08-.6.54-.48.52-.71.78-.81.9-.22.27-.26.35-.83,1.14-.57.79-.51.7-.59.82-.35.54-.51.97-.82,1.8-.19.52-.33.97-.59,1.87-.19.66-.23.83-.25,1.02-.1.74-.1,1.2-.1,1.2,0,.37.03.58-.11.67-.13.09-.34.03-.46-.05-.16-.1-.21-.26-.23-.32-.12-.35.07-.7.18-.95.23-.53.12-.71.27-1.5.18-.97.52-1.71.89-2.5.54-1.17,1.12-2,1.48-2.52.45-.65.68-.97.95-1.28.28-.32.5-.53.46-.58-.05-.07-.44.19-1.17.53-.69.32-1.03.48-1.43.55-.23.04-.24.02-1.5-.02-.98-.03-.98-.01-1.12-.05-.27-.07-.35-.14-1.49-.92-.63-.43-.92-.63-1.23-1.02-.27-.35-.32-.55-.33-.63-.09-.47.16-.87.35-1.17.27-.43.41-.43.93-1.09.29-.36.43-.55.5-.77.03-.1.08-.27,0-1.18-.05-.61-.08-.92-.18-1.33-.13-.53-.19-.5-.26-.83-.04-.18-.09-.56.24-1.8.17-.65.35-1.17.51-1.62.26-.75.37-.96.46-1.46.08-.42.12-.67.12-1.02,0-.55-.13-.78.01-.9.11-.1.3-.06,1,.19.68.24,1.03.36,1.15.42.6.32.96.7,1.37,1.14.45.49.7.75.92,1.2.21.44.26.77.63,1.43.19.34.34.53.55.55Z"/>
  <path class="cls-1" d="M191.09,218.43c.24-.04.38-.3.42-.39.16-.3.12-.57.11-.91-.01-.33.03-.71.13-1.46.05-.41.09-.77.22-1.24.21-.77.42-1.05.5-1.14.13-.16.33-.39.65-.49.27-.08.36,0,.67-.04.34-.05.44-.18.92-.42.4-.21.37-.13,1.12-.45.53-.22.79-.34,1.12-.52.46-.27.45-.33,1.14-.79.41-.27.74-.45,1.03-.63.48-.27.72-.41,1.03-.55.38-.17.43-.16.68-.31.58-.33.69-.4.69-.4.18-.12.25-.17.34-.15.19.04.26.37.29.51.08.37-.01.51-.02.99,0,.33.04.31.08.85.04.54,0,.58.02.95.04.58.17,1.01.31,1.46.14.46.29.8.4,1.06.2.46.25.49.55,1.13.26.55.39.84.48,1.18.05.21.14.53.14.95,0,.49-.09.84-.22,1.31-.11.4-.23.83-.51,1.31-.27.46-.4.69-.52.82-.12.14-.22.23-.26.4-.04.2.03.44.19.6.15.15.31.15.77.23.26.05.51.11.77.16.81.16,1.44.47,1.8.65.2.1.55.27.95.56.22.16.44.33.87.68.4.32.34.3.45.37.12.08.18.1.2.17.04.12-.09.25-.35.54-.31.35-.47.52-.57.68-.16.26-.1.28-.26.55-.19.32-.32.34-.56.66-.21.28-.19.35-.42.74-.02.03-.25.42-.58.8-.41.47-.8.74-1.46,1.19-.45.3-.67.46-.83.52-.17.07-.34.13-.51.29-.04.04-.19.19-.29.44-.09.22-.04.28-.09.77,0,.05-.04.39-.15.8-.07.27-.11.34-.15.39-.16.18-.41.21-.61.23-.29.03-.52-.01-.78-.07-.53-.11-.74-.19-1.3-.34-.43-.11-.64-.16-.9-.2-.63-.1-.73-.01-1.15-.12-.48-.12-.81-.34-.95-.44-.51-.35-.78-.77-.99-1.11-.26-.41-.39-.75-.49-1.01-.07-.18-.3-.83-.45-1.78-.1-.66-.09-1.02-.21-1.04-.08-.01-.15.12-.44.68-.33.63-.49.94-.55,1.08-.14.31-.17.41-.51,1.31-.35.91-.32.81-.36.95-.2.61-.25,1.06-.34,1.95-.06.55-.07,1.02-.1,1.96-.02.68-.01.86.01,1.05.09.74.21,1.19.21,1.19.09.35.17.55.06.68-.1.12-.32.11-.46.07-.18-.06-.27-.2-.31-.25-.2-.31-.11-.7-.06-.97.09-.58-.06-.71-.12-1.52-.07-.98.07-1.79.23-2.64.23-1.27.58-2.22.8-2.82.27-.74.41-1.11.59-1.48.19-.38.35-.63.3-.68-.06-.05-.38.29-1,.81-.58.48-.88.73-1.25.89-.21.1-.23.07-1.46.36-.95.22-.95.24-1.1.24-.28,0-.38-.04-1.67-.51-.72-.26-1.05-.37-1.45-.68-.35-.27-.44-.45-.48-.52-.2-.43-.06-.88.04-1.22.15-.49.29-.52.63-1.3.18-.42.28-.64.29-.87,0-.1,0-.28-.3-1.14-.2-.57-.31-.87-.51-1.24-.26-.48-.31-.43-.46-.74-.08-.17-.23-.52-.22-1.8,0-.68.04-1.22.08-1.7.06-.79.11-1.02.07-1.53-.03-.43-.05-.68-.14-1.02-.15-.53-.32-.72-.22-.87.08-.12.27-.13,1.02-.07.72.06,1.08.08,1.22.12.66.15,1.11.44,1.62.76.56.36.87.55,1.19.93.31.37.44.68.97,1.22.27.28.46.43.67.39Z"/>
  <path class="cls-1" d="M194,196.09c.21-.12.25-.42.26-.52.04-.34-.09-.57-.22-.89-.13-.31-.22-.68-.39-1.41-.1-.4-.18-.75-.23-1.24-.07-.79.03-1.13.07-1.25.07-.19.17-.47.44-.68.22-.17.34-.12.61-.27.3-.16.35-.32.71-.72.3-.33.3-.25.89-.81.42-.39.63-.59.87-.88.34-.41.3-.47.79-1.13.29-.4.53-.68.75-.95.35-.42.53-.63.78-.88.29-.29.34-.3.53-.53.43-.51.51-.62.51-.62.13-.17.17-.25.27-.26.19-.02.37.26.45.38.21.32.17.48.33.93.11.31.15.28.37.77.22.49.2.54.35.89.24.53.51.89.8,1.26.29.38.55.65.74.85.35.36.4.37.91.87.44.43.66.65.86.94.12.18.31.45.47.84.18.45.21.82.25,1.3.04.42.07.86-.02,1.41-.09.53-.14.79-.2.95-.06.17-.13.29-.1.46.03.2.19.4.39.49.19.09.34.03.8-.05.26-.05.52-.08.78-.12.82-.13,1.52-.06,1.91-.02.23.02.61.07,1.09.19.27.07.53.16,1.05.33.48.16.42.16.55.19.14.03.2.03.25.09.08.1,0,.26-.14.63-.17.43-.26.66-.29.84-.06.3,0,.3-.05.6-.07.37-.18.43-.29.82-.1.33-.05.39-.13.83,0,.03-.09.48-.27.95-.22.58-.49.97-.96,1.62-.31.44-.47.66-.6.78-.13.13-.27.23-.38.45-.03.05-.11.25-.12.51,0,.24.06.28.19.75.01.05.1.38.14.8.03.28.01.35,0,.42-.09.23-.31.34-.49.43-.26.13-.49.17-.75.21-.54.08-.76.08-1.33.14-.44.05-.66.07-.92.12-.62.13-.69.24-1.12.29-.49.06-.88-.04-1.04-.08-.6-.15-1-.45-1.31-.69-.38-.29-.62-.56-.81-.78-.13-.14-.57-.67-1.04-1.51-.33-.59-.44-.93-.56-.9-.08.01-.1.17-.18.79-.09.7-.13,1.05-.14,1.2-.02.34-.01.44-.02,1.41,0,.97-.02.87-.01,1.01.02.64.14,1.08.37,1.95.14.54.29.98.59,1.87.22.65.29.81.38.98.35.66.61,1.04.61,1.04.21.3.36.46.3.61-.05.14-.26.22-.41.22-.19,0-.33-.09-.37-.13-.3-.22-.34-.62-.4-.88-.12-.57-.31-.65-.65-1.38-.41-.89-.56-1.7-.71-2.56-.23-1.27-.24-2.28-.24-2.92,0-.79,0-1.18.04-1.59.05-.42.11-.72.04-.74-.08-.03-.25.4-.65,1.11-.38.66-.57.99-.85,1.27-.16.16-.19.15-1.24.85-.81.54-.81.55-.95.61-.26.1-.37.09-1.75.11-.76,0-1.11.02-1.59-.13-.42-.13-.57-.26-.63-.32-.34-.33-.37-.8-.39-1.16-.03-.51.09-.58.13-1.43.03-.46.04-.69-.03-.92-.03-.1-.09-.27-.68-.97-.39-.47-.59-.7-.91-.98-.41-.36-.44-.3-.69-.53-.13-.13-.4-.41-.84-1.61-.24-.63-.39-1.16-.52-1.62-.22-.76-.25-.99-.47-1.46-.18-.39-.28-.62-.49-.9-.32-.44-.55-.56-.51-.74.03-.14.21-.22.93-.42.7-.2,1.04-.3,1.19-.32.67-.09,1.19.02,1.78.15.65.14,1.01.21,1.44.46.42.24.65.48,1.34.81.35.17.58.24.76.13Z"/>
  <path class="cls-1" d="M190.46,172.88c.17-.17.13-.47.12-.56-.04-.34-.23-.53-.43-.81-.2-.27-.38-.6-.74-1.27-.2-.36-.37-.68-.53-1.14-.27-.75-.25-1.1-.24-1.22.02-.2.05-.5.25-.77.17-.22.29-.2.52-.42.25-.23.26-.4.51-.87.21-.4.23-.32.66-1.01.31-.49.46-.73.62-1.07.23-.48.18-.53.48-1.3.18-.46.34-.8.49-1.11.23-.5.35-.75.53-1.05.21-.36.26-.38.39-.64.29-.61.34-.72.34-.72.08-.2.1-.29.19-.32.18-.07.43.16.53.25.28.26.28.43.56.82.19.27.21.23.55.65.34.42.33.48.56.77.36.45.72.73,1.1,1.02.38.3.7.49.93.64.43.26.48.26,1.09.61.53.31.8.46,1.07.69.16.14.41.35.66.69.29.39.41.74.57,1.2.14.39.29.81.33,1.37.04.53.07.8.05.97-.02.18-.05.32.02.47.08.19.28.34.5.38.21.04.34-.05.77-.25.24-.11.48-.21.72-.31.76-.33,1.45-.44,1.85-.5.22-.03.6-.09,1.1-.09.28,0,.55.02,1.1.06.51.04.45.05.58.04.15,0,.21-.02.26.02.1.08.07.25.02.64-.06.46-.09.7-.07.89.02.31.08.29.1.59.03.37-.06.46-.08.86-.01.34.05.39.08.84,0,.03.03.49-.02.99-.06.62-.23,1.06-.52,1.81-.19.51-.29.76-.38.91-.1.16-.2.29-.25.53-.01.06-.05.27.01.52.05.23.13.25.37.68.03.05.19.34.34.74.1.26.1.34.1.4-.03.24-.21.41-.37.54-.22.19-.43.29-.68.39-.5.21-.72.27-1.25.47-.41.16-.62.23-.86.35-.57.28-.61.41-1.01.56-.46.18-.86.18-1.03.18-.62,0-1.08-.19-1.45-.34-.44-.18-.74-.39-.98-.55-.16-.11-.72-.5-1.39-1.2-.46-.48-.66-.78-.77-.73-.07.03-.06.19.02.81.09.7.14,1.05.16,1.2.07.34.1.43.33,1.37.24.94.2.85.24.98.19.61.41,1.01.84,1.79.27.48.53.88,1.05,1.66.38.57.48.71.61.85.5.55.85.85.85.85.28.24.46.35.44.52-.02.15-.2.27-.34.32-.18.05-.34,0-.39-.03-.35-.14-.49-.51-.61-.76-.26-.52-.46-.55-.97-1.18-.62-.76-.97-1.51-1.33-2.29-.54-1.17-.8-2.15-.97-2.76-.2-.76-.3-1.14-.36-1.55-.06-.42-.08-.72-.14-.73-.08,0-.14.45-.35,1.23-.2.73-.3,1.1-.51,1.45-.12.2-.14.19-.98,1.13-.65.73-.64.74-.76.83-.23.17-.33.18-1.66.54-.74.2-1.07.3-1.58.28-.44-.02-.62-.11-.69-.15-.41-.24-.56-.68-.67-1.03-.16-.48-.06-.59-.23-1.42-.09-.45-.14-.68-.26-.88-.05-.09-.16-.24-.9-.77-.5-.35-.75-.53-1.13-.72-.48-.24-.51-.17-.8-.34-.16-.09-.49-.3-1.22-1.34-.39-.55-.67-1.03-.91-1.44-.4-.68-.49-.9-.82-1.29-.27-.33-.43-.53-.7-.75-.42-.35-.68-.4-.68-.59,0-.15.15-.26.79-.64.62-.37.94-.55,1.07-.61.63-.25,1.15-.28,1.76-.31.66-.03,1.03-.05,1.51.08.47.12.75.3,1.5.44.38.07.62.09.77-.06Z"/>
  <path class="cls-1" d="M179.25,152.51c.11-.21-.01-.48-.06-.57-.14-.31-.38-.44-.66-.64-.27-.19-.54-.46-1.09-.99-.3-.29-.56-.54-.85-.92-.49-.63-.58-.97-.6-1.09-.05-.2-.11-.49,0-.81.09-.26.22-.28.37-.56.17-.3.13-.46.22-.99.08-.44.12-.37.32-1.17.14-.56.21-.84.26-1.21.07-.53,0-.56.06-1.38.03-.49.08-.86.13-1.2.07-.54.11-.82.19-1.16.09-.4.13-.44.17-.73.09-.67.1-.79.1-.79.02-.21.01-.3.09-.36.15-.12.45.02.58.08.34.16.4.32.78.61.26.2.27.16.73.45.45.29.46.35.77.56.48.32.91.47,1.35.64.45.17.81.25,1.08.32.49.12.54.1,1.23.25.6.13.9.2,1.23.33.2.08.5.21.84.46.39.29.61.58.91.97.25.33.52.69.73,1.2.2.49.31.74.34.91.04.18.05.32.16.45.14.15.37.24.59.21.21-.03.31-.15.65-.47.19-.18.4-.34.6-.52.62-.55,1.25-.86,1.61-1.04.2-.1.55-.27,1.02-.42.26-.08.53-.15,1.06-.28.49-.12.44-.09.56-.13.14-.05.19-.08.25-.06.12.04.14.22.22.6.09.46.13.69.2.87.11.29.17.25.28.53.14.35.08.46.19.85.09.33.17.36.33.78.01.03.18.46.28.95.13.61.1,1.08.06,1.88-.03.54-.04.81-.09.98-.04.18-.1.34-.08.58,0,.06.03.27.17.5.12.2.2.2.56.54.04.04.29.27.55.6.17.22.2.29.21.36.05.24-.08.45-.19.63-.15.25-.32.41-.52.58-.41.35-.6.47-1.05.83-.35.27-.52.41-.71.59-.46.44-.45.57-.79.84-.38.31-.76.44-.92.49-.59.19-1.09.15-1.48.12-.48-.04-.83-.14-1.1-.23-.18-.05-.84-.26-1.69-.72-.59-.32-.87-.55-.96-.46-.06.05,0,.2.27.76.3.64.45.96.52,1.09.16.3.22.38.73,1.2.51.83.45.74.53.86.36.53.7.84,1.35,1.45.41.38.77.67,1.5,1.26.53.43.68.53.84.62.64.37,1.07.55,1.07.55.34.14.55.2.58.36.03.15-.1.32-.23.4-.16.11-.32.1-.38.09-.37-.03-.62-.34-.81-.53-.4-.42-.61-.38-1.29-.82-.82-.54-1.38-1.14-1.97-1.78-.87-.95-1.42-1.8-1.76-2.34-.43-.66-.64-1-.82-1.37-.18-.38-.29-.66-.36-.65-.08.02,0,.47.04,1.28.03.76.05,1.14-.04,1.53-.05.22-.08.23-.59,1.38-.4.89-.39.9-.48,1.02-.17.23-.26.27-1.42,1.02-.64.42-.93.61-1.42.74-.43.12-.63.08-.71.06-.46-.1-.74-.48-.95-.78-.3-.41-.24-.54-.65-1.28-.22-.4-.34-.61-.52-.76-.08-.07-.22-.18-1.09-.46-.58-.18-.88-.28-1.29-.34-.53-.09-.53-.01-.86-.08-.18-.04-.55-.14-1.57-.91-.54-.41-.95-.78-1.3-1.09-.59-.53-.74-.71-1.17-.98-.36-.23-.57-.37-.9-.5-.51-.2-.77-.18-.83-.36-.05-.14.06-.3.56-.85.48-.54.72-.81.83-.9.52-.43,1.02-.62,1.58-.83.62-.23.96-.36,1.47-.38.48-.03.81.06,1.56-.03.38-.05.62-.11.72-.29Z"/>
  <path class="cls-1" d="M163.03,135.69c.04-.24-.16-.46-.23-.53-.23-.25-.5-.3-.82-.41-.32-.1-.66-.27-1.34-.6-.37-.18-.7-.34-1.09-.62-.66-.45-.85-.75-.91-.85-.1-.17-.26-.43-.24-.77,0-.28.12-.34.18-.65.07-.34-.02-.48-.09-1.01-.06-.45,0-.39-.05-1.21-.04-.57-.05-.86-.12-1.23-.1-.53-.17-.53-.36-1.33-.12-.48-.18-.85-.25-1.18-.1-.54-.15-.81-.18-1.16-.04-.41,0-.46-.06-.75-.12-.66-.15-.79-.15-.79-.05-.21-.08-.29-.03-.37.1-.16.44-.12.58-.1.38.05.48.18.93.34.31.11.31.06.83.21.52.14.54.2.91.3.56.16,1.01.17,1.48.19.48.02.85,0,1.13-.03.51-.04.54-.07,1.25-.14.61-.06.92-.09,1.27-.06.21.02.54.05.94.18.46.15.76.36,1.16.64.34.24.71.49,1.07.92.34.41.52.61.6.76.09.16.14.29.29.37.18.1.43.11.63.02.19-.09.25-.24.48-.65.13-.23.27-.45.41-.67.42-.71.93-1.2,1.21-1.48.16-.16.44-.42.85-.71.22-.16.46-.3.93-.59.43-.27.39-.22.49-.3.12-.09.15-.14.22-.13.13,0,.2.16.39.51.22.41.34.62.46.76.2.24.23.18.43.42.24.29.21.41.44.75.19.29.27.29.56.64.02.02.31.38.56.82.31.54.43,1,.63,1.78.14.52.21.79.22.96.01.18,0,.36.1.58.02.05.12.25.31.42.18.16.25.13.7.34.05.02.35.17.71.4.23.16.28.21.31.27.12.21.06.46.02.65-.07.28-.18.49-.32.71-.28.46-.43.63-.75,1.11-.25.37-.37.55-.49.78-.3.56-.26.69-.49,1.05-.27.41-.59.65-.73.75-.5.37-.99.48-1.37.57-.47.11-.83.12-1.12.12-.19,0-.88.01-1.83-.17-.66-.12-.99-.25-1.05-.15-.04.07.06.18.49.64.48.52.72.78.83.88.25.24.33.29,1.07.92.74.63.66.57.77.66.51.39.92.59,1.73.97.5.24.94.4,1.82.74.64.25.8.29.99.34.73.16,1.19.2,1.19.2.37.03.58.02.66.16.08.13,0,.34-.09.45-.12.15-.28.19-.34.21-.36.09-.69-.13-.93-.26-.51-.27-.69-.18-1.48-.39-.95-.26-1.66-.66-2.42-1.09-1.12-.64-1.9-1.28-2.39-1.69-.61-.5-.91-.75-1.2-1.05-.29-.3-.48-.54-.54-.51-.07.04.15.45.43,1.21.26.71.39,1.07.43,1.47.02.23,0,.24-.14,1.49-.11.97-.09.97-.14,1.12-.09.27-.17.34-1.04,1.41-.48.59-.7.87-1.12,1.14-.37.24-.57.27-.65.28-.47.05-.85-.23-1.14-.45-.41-.3-.39-.44-1.01-1.02-.34-.31-.51-.47-.73-.57-.09-.04-.26-.1-1.18-.1-.61,0-.92,0-1.34.07-.54.08-.51.15-.85.19-.18.02-.57.04-1.77-.39-.64-.23-1.14-.45-1.57-.64-.73-.32-.92-.44-1.42-.58-.41-.11-.65-.18-1.01-.2-.55-.04-.78.06-.9-.09-.09-.12-.03-.3.27-.99.29-.66.44-.99.52-1.11.37-.57.78-.9,1.25-1.27.52-.41.81-.64,1.28-.82.45-.17.79-.19,1.48-.51.35-.16.56-.29.59-.5Z"/>
  <path class="cls-1" d="M142.98,125.04c-.03-.24-.29-.38-.38-.43-.3-.17-.56-.14-.91-.13-.33,0-.71-.05-1.46-.16-.41-.06-.77-.11-1.23-.25-.76-.23-1.03-.45-1.13-.53-.15-.13-.38-.34-.47-.66-.08-.27.01-.36-.03-.67-.04-.34-.17-.45-.4-.93-.19-.41-.12-.37-.42-1.13-.21-.54-.31-.8-.49-1.14-.25-.47-.32-.46-.76-1.16-.26-.42-.44-.75-.6-1.05-.26-.48-.39-.73-.53-1.05-.16-.38-.15-.43-.29-.69-.31-.59-.38-.7-.38-.7-.11-.18-.17-.25-.14-.35.05-.19.38-.25.52-.28.37-.07.51.03.99.04.33.01.31-.03.85-.06.54-.02.58.02.95,0,.58-.02,1.01-.15,1.47-.27.46-.13.81-.27,1.07-.37.47-.19.49-.23,1.14-.52.56-.24.85-.37,1.19-.45.21-.05.53-.12.95-.12.49,0,.84.11,1.3.25.4.12.82.25,1.3.54.45.28.68.42.81.54.13.12.22.23.39.27.2.04.44-.02.6-.17.15-.15.16-.31.25-.77.05-.26.12-.51.18-.77.18-.81.51-1.43.7-1.78.11-.2.29-.54.59-.94.16-.22.34-.43.7-.85.33-.39.3-.33.38-.44.08-.12.11-.18.17-.2.12-.04.24.09.53.36.34.32.51.49.67.59.26.17.28.1.54.27.32.2.33.32.65.58.27.22.34.19.72.43.03.02.41.26.78.6.46.42.72.82,1.15,1.49.29.46.44.69.5.84.07.17.12.34.28.52.04.04.19.2.43.3.22.09.28.05.77.11.05,0,.39.05.8.17.27.08.33.12.38.16.18.17.2.41.22.62.02.29-.02.52-.09.78-.13.53-.21.73-.37,1.29-.12.42-.18.64-.23.9-.11.62-.03.73-.15,1.15-.13.47-.36.8-.46.93-.37.5-.79.76-1.13.96-.41.25-.75.37-1.02.46-.18.06-.83.28-1.79.4-.67.08-1.02.06-1.05.18-.01.08.12.16.66.46.62.34.93.52,1.06.58.31.15.4.18,1.3.54.9.37.8.34.94.39.6.22,1.06.27,1.94.39.55.07,1.02.1,1.96.15.68.04.86.03,1.05.01.74-.07,1.19-.18,1.19-.18.36-.08.56-.16.68-.05.11.1.1.32.05.46-.06.18-.21.27-.26.3-.32.2-.7.09-.97.04-.57-.1-.71.04-1.52.08-.98.05-1.79-.12-2.64-.3-1.27-.26-2.2-.63-2.8-.87-.73-.29-1.1-.44-1.46-.63-.37-.2-.63-.37-.67-.32-.05.06.28.38.78,1.02.47.6.7.89.86,1.27.09.21.07.23.32,1.47.2.96.21.96.21,1.11,0,.28-.05.38-.55,1.66-.28.71-.4,1.04-.72,1.43-.28.34-.46.43-.54.47-.44.19-.88.04-1.22-.08-.48-.16-.51-.3-1.28-.66-.42-.2-.63-.29-.87-.31-.1,0-.28-.02-1.15.27-.58.19-.87.29-1.25.48-.48.24-.44.3-.75.44-.17.08-.53.21-1.8.18-.68-.02-1.22-.08-1.69-.13-.79-.08-1.02-.14-1.53-.11-.43.02-.68.03-1.02.12-.53.13-.73.3-.88.19-.12-.08-.12-.28-.05-1.02.08-.72.11-1.08.15-1.22.17-.66.46-1.09.8-1.6.37-.55.57-.85.96-1.17.38-.3.69-.43,1.25-.94.28-.26.44-.45.41-.66Z"/>
  <path class="cls-1" d="M95.93,265.88c-.19.14-.48.06-.58.03-.33-.1-.49-.31-.73-.56-.23-.24-.53-.47-1.13-.94-.33-.25-.62-.47-1.04-.71-.69-.39-1.04-.43-1.17-.44-.2-.02-.5-.04-.8.12-.25.13-.25.26-.5.45-.27.21-.44.19-.94.36-.43.14-.35.17-1.11.49-.53.22-.8.33-1.16.43-.51.14-.55.09-1.36.26-.48.1-.84.21-1.17.3-.53.15-.79.22-1.12.35-.38.15-.41.19-.7.27-.65.19-.77.21-.77.21-.21.05-.3.06-.35.14-.1.17.08.45.16.56.21.32.37.35.72.68.24.23.19.25.55.65.36.4.42.4.67.68.39.43.6.83.83,1.25.23.42.37.77.47,1.02.19.47.18.52.42,1.18.21.57.33.86.51,1.17.11.18.28.47.57.77.34.35.66.52,1.09.76.37.2.75.42,1.29.55.52.13.77.2.95.21.18.01.32,0,.46.1.17.11.29.34.29.55,0,.21-.11.33-.37.71-.15.22-.28.44-.43.66-.45.69-.67,1.36-.8,1.74-.07.22-.19.58-.27,1.07-.04.27-.07.55-.12,1.09-.05.51-.03.45-.05.57-.03.14-.05.2-.02.26.06.11.24.11.63.13.47.02.7.03.89.07.3.07.27.13.57.2.37.09.46.01.87.06.34.04.38.11.82.22.03,0,.48.11.98.14.62.04,1.09-.06,1.87-.21.53-.11.8-.16.96-.23.17-.07.32-.15.56-.16.06,0,.27,0,.52.1.22.09.23.17.61.48.04.03.3.24.67.46.24.14.32.16.38.16.24.01.44-.14.59-.27.22-.19.36-.38.5-.6.29-.46.38-.66.67-1.16.22-.38.33-.57.49-.79.37-.51.5-.53.72-.9.25-.42.32-.81.35-.98.11-.61,0-1.1-.1-1.48-.11-.47-.26-.8-.38-1.06-.08-.17-.38-.8-.95-1.57-.4-.54-.67-.78-.6-.88.04-.06.19-.02.79.16.68.2,1.01.31,1.16.36.32.12.41.17,1.29.55.89.39.8.34.93.4.58.28.93.57,1.63,1.13.43.35.78.67,1.47,1.3.5.46.62.59.74.74.46.58.7.98.7.98.19.31.27.51.44.52.15,0,.3-.15.37-.28.08-.17.05-.33.04-.39-.08-.36-.42-.57-.65-.72-.47-.34-.47-.54-1-1.15-.65-.74-1.33-1.2-2.05-1.69-1.07-.73-1.99-1.14-2.57-1.41-.72-.33-1.08-.49-1.47-.61-.4-.13-.7-.19-.69-.26,0-.08.47-.06,1.28-.15.75-.08,1.13-.12,1.51-.26.22-.08.21-.11,1.28-.79.82-.52.83-.51.94-.62.2-.2.23-.3.81-1.55.32-.7.47-1.01.53-1.51.05-.44,0-.63-.04-.71-.17-.44-.58-.66-.9-.82-.45-.23-.57-.16-1.36-.46-.43-.16-.65-.25-.83-.4-.08-.07-.21-.19-.61-1.01-.27-.55-.4-.83-.53-1.23-.16-.52-.09-.53-.2-.84-.06-.17-.21-.53-1.13-1.42-.48-.47-.9-.82-1.27-1.13-.61-.51-.8-.63-1.14-1.02-.28-.32-.45-.51-.63-.82-.27-.47-.29-.73-.47-.77-.15-.03-.29.1-.77.68-.47.55-.7.83-.77.96-.35.58-.46,1.09-.59,1.68-.14.65-.22,1.01-.17,1.51.04.48.17.79.19,1.55,0,.39-.02.63-.19.75Z"/>
  <path class="cls-1" d="M76.45,254.67c-.23.08-.48-.09-.56-.15-.28-.19-.37-.44-.53-.75-.15-.3-.37-.61-.8-1.23-.24-.34-.45-.63-.78-.99-.55-.58-.87-.72-.98-.77-.19-.08-.47-.19-.8-.12-.27.05-.31.17-.61.28-.32.12-.48.05-1.01.06-.45,0-.39.06-1.2.13-.57.05-.86.08-1.24.07-.53-.02-.55-.08-1.37-.15-.49-.04-.86-.05-1.21-.06-.55-.01-.82-.02-1.17,0-.41.03-.45.06-.75.05-.67-.01-.8-.03-.8-.03-.21-.02-.3-.04-.37.03-.15.13-.05.45-.02.59.1.37.25.44.48.87.16.29.11.29.33.79.22.49.28.51.43.85.24.53.33.97.42,1.44.09.47.12.84.15,1.12.04.5.01.55.05,1.25.03.61.05.92.14,1.27.05.21.13.53.32.9.22.43.47.7.81,1.05.29.3.6.62,1.07.91.45.28.68.42.84.48.17.06.3.1.41.23.13.16.18.41.12.62-.06.2-.2.28-.57.57-.21.16-.4.34-.6.51-.64.53-1.05,1.1-1.28,1.42-.13.19-.35.5-.57.95-.12.25-.23.5-.44,1.01-.2.47-.16.42-.22.53-.07.13-.11.17-.1.24.02.12.19.18.56.31.44.16.66.24.82.33.27.16.22.2.48.36.32.19.44.15.81.32.31.14.33.22.71.45.03.02.42.25.89.43.58.22,1.06.27,1.85.35.54.06.81.08.98.07.18-.02.35-.05.59.02.06.02.26.08.46.25.18.15.17.23.44.64.03.04.22.32.51.64.19.21.26.24.32.27.23.09.46,0,.65-.08.27-.11.45-.26.66-.43.42-.35.56-.52.98-.91.32-.3.49-.45.7-.61.51-.38.64-.36.96-.65.36-.33.55-.68.63-.83.28-.55.32-1.05.35-1.44.03-.48-.01-.84-.05-1.12-.02-.19-.12-.87-.44-1.78-.22-.63-.4-.94-.31-1.02.06-.05.19.03.71.39.59.4.88.59,1,.69.27.21.34.28,1.07.91.74.64.66.56.77.66.47.44.72.82,1.22,1.56.31.46.54.87,1.01,1.68.34.59.41.75.48.93.27.7.38,1.15.38,1.15.09.36.11.57.26.63.14.05.33-.05.44-.16.13-.14.15-.3.15-.36.03-.37-.24-.67-.4-.88-.35-.47-.28-.66-.61-1.4-.4-.9-.91-1.54-1.45-2.22-.8-1.01-1.56-1.68-2.03-2.11-.59-.52-.88-.79-1.22-1.02-.34-.24-.61-.39-.58-.46.03-.08.47.08,1.26.24.74.15,1.12.23,1.52.2.23-.02.23-.04,1.46-.37.94-.25.95-.24,1.08-.31.25-.13.31-.22,1.23-1.24.51-.57.75-.82.96-1.28.18-.4.18-.61.17-.69-.03-.47-.36-.8-.62-1.06-.36-.36-.5-.32-1.17-.84-.36-.28-.55-.43-.67-.63-.05-.09-.14-.25-.28-1.15-.09-.6-.14-.91-.14-1.33,0-.54.07-.53.06-.86,0-.18-.05-.57-.65-1.69-.32-.6-.62-1.06-.87-1.46-.43-.67-.58-.84-.79-1.31-.17-.39-.28-.62-.35-.97-.12-.53-.06-.78-.22-.87-.13-.07-.3.01-.93.42-.61.39-.91.59-1.02.68-.51.45-.77.91-1.07,1.43-.33.58-.51.9-.61,1.39-.1.47-.07.81-.28,1.54-.11.37-.21.6-.4.66Z"/>
  <path class="cls-1" d="M60,238.67c-.24.02-.44-.2-.51-.27-.23-.25-.26-.52-.34-.85-.07-.32-.21-.68-.49-1.38-.15-.39-.29-.72-.53-1.14-.39-.69-.67-.9-.78-.98-.16-.12-.41-.29-.75-.31-.28-.01-.35.09-.66.13-.34.04-.47-.06-.99-.18-.44-.1-.39-.03-1.2-.15-.57-.08-.85-.12-1.22-.22-.52-.14-.52-.21-1.3-.47-.46-.16-.83-.25-1.16-.34-.53-.14-.8-.21-1.14-.27-.41-.07-.45-.05-.74-.12-.65-.17-.77-.21-.77-.21-.2-.07-.29-.11-.37-.06-.17.09-.16.43-.15.57.02.38.14.49.27.95.09.32.04.31.14.84.1.53.15.56.22.93.11.57.09,1.02.07,1.5-.02.48-.08.85-.12,1.12-.08.5-.12.54-.24,1.23-.11.6-.16.91-.17,1.26,0,.21,0,.54.1.95.11.47.3.79.54,1.21.21.36.43.74.83,1.14.38.38.56.57.71.66.15.1.27.17.35.32.09.19.08.44-.03.63-.11.18-.26.23-.69.42-.24.11-.47.24-.71.35-.75.36-1.28.82-1.58,1.08-.17.15-.46.4-.78.78-.18.21-.34.43-.67.87-.3.41-.25.37-.34.47-.1.11-.15.14-.15.21,0,.13.15.22.47.43.39.26.59.39.72.52.22.21.16.25.39.46.27.26.39.25.71.5.27.21.27.29.59.61.02.02.35.34.77.63.51.35.96.51,1.72.78.51.18.77.27.94.3.18.03.36.04.57.15.05.03.24.14.39.35.14.19.11.26.28.72.02.05.14.37.34.74.14.25.19.3.25.33.2.14.45.1.65.07.29-.05.5-.14.74-.26.49-.24.67-.37,1.17-.65.39-.21.58-.32.82-.43.58-.25.71-.2,1.08-.4.43-.24.69-.53.8-.66.41-.47.56-.94.68-1.32.15-.46.18-.82.22-1.1.02-.19.09-.88-.01-1.83-.07-.67-.17-1.01-.06-1.06.07-.03.18.08.6.54.48.52.71.78.81.9.22.27.26.35.83,1.14.57.79.51.7.59.82.35.54.51.97.82,1.8.19.52.33.97.59,1.87.19.66.23.83.25,1.02.1.74.1,1.2.1,1.2,0,.37-.03.58.11.67.13.09.34.03.46-.05.16-.1.21-.26.23-.32.12-.35-.07-.7-.18-.95-.23-.53-.12-.71-.27-1.5-.18-.97-.52-1.71-.89-2.5-.54-1.17-1.12-2-1.48-2.52-.45-.65-.68-.97-.95-1.28-.28-.32-.5-.53-.46-.58.05-.07.44.19,1.17.53.69.32,1.03.48,1.43.55.23.04.24.02,1.5-.02.98-.03.98-.01,1.12-.05.27-.07.35-.14,1.49-.92.63-.43.92-.63,1.23-1.02.27-.35.32-.55.33-.63.09-.47-.16-.87-.35-1.17-.27-.43-.41-.43-.93-1.09-.29-.36-.43-.55-.5-.77-.03-.1-.08-.27,0-1.18.05-.61.08-.92.18-1.33.13-.53.19-.5.26-.83.04-.18.09-.56-.24-1.8-.17-.65-.35-1.17-.51-1.62-.26-.75-.37-.96-.46-1.46-.08-.42-.12-.67-.12-1.02,0-.55.13-.78-.01-.9-.11-.1-.3-.06-1,.19-.68.24-1.03.36-1.15.42-.6.32-.96.7-1.37,1.14-.45.49-.7.75-.92,1.2-.21.44-.26.77-.63,1.43-.19.34-.34.53-.55.55Z"/>
  <path class="cls-1" d="M50.07,218.22c-.24-.04-.38-.3-.42-.39-.16-.3-.12-.57-.11-.91.01-.33-.03-.71-.13-1.46-.05-.41-.09-.77-.22-1.24-.21-.77-.42-1.05-.5-1.14-.13-.16-.33-.39-.65-.49-.27-.08-.36,0-.67-.04-.34-.05-.44-.18-.92-.42-.4-.21-.37-.13-1.12-.45-.53-.22-.79-.34-1.12-.52-.46-.27-.45-.33-1.14-.79-.41-.27-.74-.45-1.03-.63-.48-.27-.72-.41-1.03-.55-.38-.17-.43-.16-.68-.31-.58-.33-.69-.4-.69-.4-.18-.12-.25-.17-.34-.15-.19.04-.26.37-.29.51-.08.37.01.51.02.99,0,.33-.04.31-.08.85-.04.54,0,.58-.02.95-.04.58-.17,1.01-.31,1.46-.14.46-.29.8-.4,1.06-.2.46-.25.49-.55,1.13-.26.55-.39.84-.48,1.18-.05.21-.14.53-.14.95,0,.49.09.84.22,1.31.11.4.23.83.51,1.31.27.46.4.69.52.82.12.14.22.23.26.4.04.2-.03.44-.19.6-.15.15-.31.15-.77.23-.26.05-.51.11-.77.16-.81.16-1.44.47-1.8.65-.2.1-.55.27-.95.56-.22.16-.44.33-.87.68-.4.32-.34.3-.45.37-.12.08-.18.1-.2.17-.04.12.09.25.35.54.31.35.47.52.57.68.16.26.1.28.26.55.19.32.32.34.56.66.21.28.19.35.42.74.02.03.25.42.58.8.41.47.8.74,1.46,1.19.45.3.67.46.83.52.17.07.34.13.51.29.04.04.19.19.29.44.09.22.04.28.09.77,0,.05.04.39.15.8.07.27.11.34.15.39.16.18.41.21.61.23.29.03.52-.01.78-.07.53-.11.74-.19,1.3-.34.43-.11.64-.16.9-.2.63-.1.73-.01,1.15-.12.48-.12.81-.34.95-.44.51-.35.78-.77.99-1.11.26-.41.39-.75.49-1.01.07-.18.3-.83.45-1.78.1-.66.09-1.02.21-1.04.08-.01.15.12.44.68.33.63.49.94.55,1.08.14.31.17.41.51,1.31.35.91.32.81.36.95.2.61.25,1.06.34,1.95.06.55.07,1.02.1,1.96.02.68.01.86-.01,1.05-.09.74-.21,1.19-.21,1.19-.09.35-.17.55-.06.68.1.12.32.11.46.07.18-.06.27-.2.31-.25.2-.31.11-.7.06-.97-.09-.58.06-.71.12-1.52.07-.98-.07-1.79-.23-2.64-.23-1.27-.58-2.22-.8-2.82-.27-.74-.41-1.11-.59-1.48-.19-.38-.35-.63-.3-.68.06-.05.38.29,1,.81.58.48.88.73,1.25.89.21.1.23.07,1.46.36.95.22.95.24,1.1.24.28,0,.38-.04,1.67-.51.72-.26,1.05-.37,1.45-.68.35-.27.44-.45.48-.52.2-.43.06-.88-.04-1.22-.15-.49-.29-.52-.63-1.3-.18-.42-.28-.64-.29-.87,0-.1,0-.28.3-1.14.2-.57.31-.87.51-1.24.26-.48.31-.43.46-.74.08-.17.23-.52.22-1.8,0-.68-.04-1.22-.08-1.7-.06-.79-.11-1.02-.07-1.53.03-.43.05-.68.14-1.02.15-.53.32-.72.22-.87-.08-.12-.27-.13-1.02-.07-.72.06-1.08.08-1.22.12-.66.15-1.11.44-1.62.76-.56.36-.87.55-1.19.93-.31.37-.44.68-.97,1.22-.27.28-.46.43-.67.39Z"/>
  <path class="cls-1" d="M47.16,195.89c-.21-.12-.25-.42-.26-.52-.04-.34.09-.57.22-.89.13-.31.22-.68.39-1.41.1-.4.18-.75.23-1.24.07-.79-.03-1.13-.07-1.25-.07-.19-.17-.47-.44-.68-.22-.17-.34-.12-.61-.27-.3-.16-.35-.32-.71-.72-.3-.33-.3-.25-.89-.81-.42-.39-.63-.59-.87-.88-.34-.41-.3-.47-.79-1.13-.29-.4-.53-.68-.75-.95-.35-.42-.53-.63-.78-.88-.29-.29-.34-.3-.53-.53-.43-.51-.51-.62-.51-.62-.13-.17-.17-.25-.27-.26-.19-.02-.37.26-.45.38-.21.32-.17.48-.33.93-.11.31-.15.28-.37.77-.22.49-.2.54-.35.89-.24.53-.51.89-.8,1.26-.29.38-.55.65-.74.85-.35.36-.4.37-.91.87-.44.43-.66.65-.86.94-.12.18-.31.45-.47.84-.18.45-.21.82-.25,1.3-.04.42-.07.86.02,1.41.09.53.14.79.2.95.06.17.13.29.1.46-.03.2-.19.4-.39.49-.19.09-.34.03-.8-.05-.26-.05-.52-.08-.78-.12-.82-.13-1.52-.06-1.91-.02-.23.02-.61.07-1.09.19-.27.07-.53.16-1.05.33-.48.16-.42.16-.55.19-.14.03-.2.03-.25.09-.08.1,0,.26.14.63.17.43.26.66.29.84.06.3,0,.3.05.6.07.37.18.43.29.82.1.33.05.39.13.83,0,.03.09.48.27.95.22.58.49.97.96,1.62.31.44.47.66.6.78.13.13.27.23.38.45.03.05.11.25.12.51,0,.24-.06.28-.19.75-.01.05-.1.38-.14.8-.03.28-.01.35,0,.42.09.23.31.34.49.43.26.13.49.17.75.21.54.08.76.08,1.33.14.44.05.66.07.92.12.62.13.69.24,1.12.29.49.06.88-.04,1.04-.08.6-.15,1-.45,1.31-.69.38-.29.62-.56.81-.78.13-.14.57-.67,1.04-1.51.33-.59.44-.93.56-.9.08.01.1.17.18.79.09.7.13,1.05.14,1.2.02.34.01.44.02,1.41,0,.97.02.87.01,1.01-.02.64-.14,1.08-.37,1.95-.14.54-.29.98-.59,1.87-.22.65-.29.81-.38.98-.35.66-.61,1.04-.61,1.04-.21.3-.36.46-.3.61.05.14.26.22.41.22.19,0,.33-.09.37-.13.3-.22.34-.62.4-.88.12-.57.31-.65.65-1.38.41-.89.56-1.7.71-2.56.23-1.27.24-2.28.24-2.92,0-.79,0-1.18-.04-1.59-.05-.42-.11-.72-.04-.74.08-.03.25.4.65,1.11.38.66.57.99.85,1.27.16.16.19.15,1.24.85.81.54.81.55.95.61.26.1.37.09,1.75.11.76,0,1.11.02,1.59-.13.42-.13.57-.26.63-.32.34-.33.37-.8.39-1.16.03-.51-.09-.58-.13-1.43-.03-.46-.04-.69.03-.92.03-.1.09-.27.68-.97.39-.47.59-.7.91-.98.41-.36.44-.3.69-.53.13-.13.4-.41.84-1.61.24-.63.39-1.16.52-1.62.22-.76.25-.99.47-1.46.18-.39.28-.62.49-.9.32-.44.55-.56.51-.74-.03-.14-.21-.22-.93-.42-.7-.2-1.04-.3-1.19-.32-.67-.09-1.19.02-1.78.15-.65.14-1.01.21-1.44.46-.42.24-.65.48-1.34.81-.35.17-.58.24-.76.13Z"/>
  <path class="cls-1" d="M50.69,172.67c-.17-.17-.13-.47-.12-.56.04-.34.23-.53.43-.81.2-.27.38-.6.74-1.27.2-.36.37-.68.53-1.14.27-.75.25-1.1.24-1.22-.02-.2-.05-.5-.25-.77-.17-.22-.29-.2-.52-.42-.25-.23-.26-.4-.51-.87-.21-.4-.23-.32-.66-1.01-.31-.49-.46-.73-.62-1.07-.23-.48-.18-.53-.48-1.3-.18-.46-.34-.8-.49-1.11-.23-.5-.35-.75-.53-1.05-.21-.36-.26-.38-.39-.64-.29-.61-.34-.72-.34-.72-.08-.2-.1-.29-.19-.32-.18-.07-.43.16-.53.25-.28.26-.28.43-.56.82-.19.27-.21.23-.55.65-.34.42-.33.48-.56.77-.36.45-.72.73-1.1,1.02-.38.3-.7.49-.93.64-.43.26-.48.26-1.09.61-.53.31-.8.46-1.07.69-.16.14-.41.35-.66.69-.29.39-.41.74-.57,1.2-.14.39-.29.81-.33,1.37-.04.53-.07.8-.05.97.02.18.05.32-.02.47-.08.19-.28.34-.5.38-.21.04-.34-.05-.77-.25-.24-.11-.48-.21-.72-.31-.76-.33-1.45-.44-1.85-.5-.22-.03-.6-.09-1.1-.09-.28,0-.55.02-1.1.06-.51.04-.45.05-.58.04-.15,0-.21-.02-.26.02-.1.08-.07.25-.02.64.06.46.09.7.07.89-.02.31-.08.29-.1.59-.03.37.06.46.08.86.01.34-.05.39-.08.84,0,.03-.03.49.02.99.06.62.23,1.06.52,1.81.19.51.29.76.38.91.1.16.2.29.25.53.01.06.05.27-.01.52-.05.23-.13.25-.37.68-.03.05-.19.34-.34.74-.1.26-.1.34-.1.4.03.24.21.41.37.54.22.19.43.29.68.39.5.21.72.27,1.25.47.41.16.62.23.86.35.57.28.61.41,1.01.56.46.18.86.18,1.03.18.62,0,1.08-.19,1.45-.34.44-.18.74-.39.98-.55.16-.11.72-.5,1.39-1.2.46-.48.66-.78.77-.73.07.03.06.19-.02.81-.09.7-.14,1.05-.16,1.2-.07.34-.1.43-.33,1.37-.24.94-.2.85-.24.98-.19.61-.41,1.01-.84,1.79-.27.48-.53.88-1.05,1.66-.38.57-.48.71-.61.85-.5.55-.85.85-.85.85-.28.24-.46.35-.44.52.02.15.2.27.34.32.18.05.34,0,.39-.03.35-.14.49-.51.61-.76.26-.52.46-.55.97-1.18.62-.76.97-1.51,1.33-2.29.54-1.17.8-2.15.97-2.76.2-.76.3-1.14.36-1.55.06-.42.08-.72.14-.73.08,0,.14.45.35,1.23.2.73.3,1.1.51,1.45.12.2.14.19.98,1.13.65.73.64.74.76.83.23.17.33.18,1.66.54.74.2,1.07.3,1.58.28.44-.02.62-.11.69-.15.41-.24.56-.68.67-1.03.16-.48.06-.59.23-1.42.09-.45.14-.68.26-.88.05-.09.16-.24.9-.77.5-.35.75-.53,1.13-.72.48-.24.51-.17.8-.34.16-.09.49-.3,1.22-1.34.39-.55.67-1.03.91-1.44.4-.68.49-.9.82-1.29.27-.33.43-.53.7-.75.42-.35.68-.4.68-.59,0-.15-.15-.26-.79-.64-.62-.37-.94-.55-1.07-.61-.63-.25-1.15-.28-1.76-.31-.66-.03-1.03-.05-1.51.08-.47.12-.75.3-1.5.44-.38.07-.62.09-.77-.06Z"/>
  <path class="cls-1" d="M61.9,152.3c-.11-.21.01-.48.06-.57.14-.31.38-.44.66-.64.27-.19.54-.46,1.09-.99.3-.29.56-.54.85-.92.49-.63.58-.97.6-1.09.05-.2.11-.49,0-.81-.09-.26-.22-.28-.37-.56-.17-.3-.13-.46-.22-.99-.08-.44-.12-.37-.32-1.17-.14-.56-.21-.84-.26-1.21-.07-.53,0-.56-.06-1.38-.03-.49-.08-.86-.13-1.2-.07-.54-.11-.82-.19-1.16-.09-.4-.13-.44-.17-.73-.09-.67-.1-.79-.1-.79-.02-.21-.01-.3-.09-.36-.15-.12-.45.02-.58.08-.34.16-.4.32-.78.61-.26.2-.27.16-.73.45-.45.29-.46.35-.77.56-.48.32-.91.47-1.35.64-.45.17-.81.25-1.08.32-.49.12-.54.1-1.23.25-.6.13-.9.2-1.23.33-.2.08-.5.21-.84.46-.39.29-.61.58-.91.97-.25.33-.52.69-.73,1.2-.2.49-.31.74-.34.91-.04.18-.05.32-.16.45-.14.15-.37.24-.59.21-.21-.03-.31-.15-.65-.47-.19-.18-.4-.34-.6-.52-.62-.55-1.25-.86-1.61-1.04-.2-.1-.55-.27-1.02-.42-.26-.08-.53-.15-1.06-.28-.49-.12-.44-.09-.56-.13-.14-.05-.19-.08-.25-.06-.12.04-.14.22-.22.6-.09.46-.13.69-.2.87-.11.29-.17.25-.28.53-.14.35-.08.46-.19.85-.09.33-.17.36-.33.78-.01.03-.18.46-.28.95-.13.61-.1,1.08-.06,1.88.03.54.04.81.09.98.04.18.1.34.08.58,0,.06-.03.27-.17.5-.12.2-.2.2-.56.54-.04.04-.29.27-.55.6-.17.22-.2.29-.21.36-.05.24.08.45.19.63.15.25.32.41.52.58.41.35.6.47,1.05.83.35.27.52.41.71.59.46.44.45.57.79.84.38.31.76.44.92.49.59.19,1.09.15,1.48.12.48-.04.83-.14,1.1-.23.18-.05.84-.26,1.69-.72.59-.32.87-.55.96-.46.06.05,0,.2-.27.76-.3.64-.45.96-.52,1.09-.16.3-.22.38-.73,1.2-.51.83-.45.74-.53.86-.36.53-.7.84-1.35,1.45-.41.38-.77.67-1.5,1.26-.53.43-.68.53-.84.62-.64.37-1.07.55-1.07.55-.34.14-.55.2-.58.36-.03.15.1.32.23.4.16.11.32.1.38.09.37-.03.62-.34.81-.53.4-.42.61-.38,1.29-.82.82-.54,1.38-1.14,1.97-1.78.87-.95,1.42-1.8,1.76-2.34.43-.66.64-1,.82-1.37.18-.38.29-.66.36-.65.08.02,0,.47-.04,1.28-.03.76-.05,1.14.04,1.53.05.22.08.23.59,1.38.4.89.39.9.48,1.02.17.23.26.27,1.42,1.02.64.42.93.61,1.42.74.43.12.63.08.71.06.46-.1.74-.48.95-.78.3-.41.24-.54.65-1.28.22-.4.34-.61.52-.76.08-.07.22-.18,1.09-.46.58-.18.88-.28,1.29-.34.53-.09.53-.01.86-.08.18-.04.55-.14,1.57-.91.54-.41.95-.78,1.3-1.09.59-.53.74-.71,1.17-.98.36-.23.57-.37.9-.5.51-.2.77-.18.83-.36.05-.14-.06-.3-.56-.85-.48-.54-.72-.81-.83-.9-.52-.43-1.02-.62-1.58-.83-.62-.23-.96-.36-1.47-.38-.48-.03-.81.06-1.56-.03-.38-.05-.62-.11-.72-.29Z"/>
  <path class="cls-1" d="M78.12,135.48c-.04-.24.16-.46.23-.53.23-.25.5-.3.82-.41.32-.1.66-.27,1.34-.6.37-.18.7-.34,1.09-.62.66-.45.85-.75.91-.85.1-.17.26-.43.24-.77,0-.28-.12-.34-.18-.65-.07-.34.02-.48.09-1.01.06-.45,0-.39.05-1.21.04-.57.05-.86.12-1.23.1-.53.17-.53.36-1.33.12-.48.18-.85.25-1.18.1-.54.15-.81.18-1.16.04-.41,0-.46.06-.75.12-.66.15-.79.15-.79.05-.21.08-.29.03-.37-.1-.16-.44-.12-.58-.1-.38.05-.48.18-.93.34-.31.11-.31.06-.83.21-.52.14-.54.2-.91.3-.56.16-1.01.17-1.48.19-.48.02-.85,0-1.13-.03-.51-.04-.54-.07-1.25-.14-.61-.06-.92-.09-1.27-.06-.21.02-.54.05-.94.18-.46.15-.76.36-1.16.64-.34.24-.71.49-1.07.92-.34.41-.52.61-.6.76-.09.16-.14.29-.29.37-.18.1-.43.11-.63.02-.19-.09-.25-.24-.48-.65-.13-.23-.27-.45-.41-.67-.42-.71-.93-1.2-1.21-1.48-.16-.16-.44-.42-.85-.71-.22-.16-.46-.3-.93-.59-.43-.27-.39-.22-.49-.3-.12-.09-.15-.14-.22-.13-.13,0-.2.16-.39.51-.22.41-.34.62-.46.76-.2.24-.23.18-.43.42-.24.29-.21.41-.44.75-.19.29-.27.29-.56.64-.02.02-.31.38-.56.82-.31.54-.43,1-.63,1.78-.14.52-.21.79-.22.96-.01.18,0,.36-.1.58-.02.05-.12.25-.31.42-.18.16-.25.13-.7.34-.05.02-.35.17-.71.4-.23.16-.28.21-.31.27-.12.21-.06.46-.02.65.07.28.18.49.32.71.28.46.43.63.75,1.11.25.37.37.55.49.78.3.56.26.69.49,1.05.27.41.59.65.73.75.5.37.99.48,1.37.57.47.11.83.12,1.12.12.19,0,.88.01,1.83-.17.66-.12.99-.25,1.05-.15.04.07-.06.18-.49.64-.48.52-.72.78-.83.88-.25.24-.33.29-1.07.92-.74.63-.66.57-.77.66-.51.39-.92.59-1.73.97-.5.24-.94.4-1.82.74-.64.25-.8.29-.99.34-.73.16-1.19.2-1.19.2-.37.03-.58.02-.66.16-.08.13,0,.34.09.45.12.15.28.19.34.21.36.09.69-.13.93-.26.51-.27.69-.18,1.48-.39.95-.26,1.66-.66,2.42-1.09,1.12-.64,1.9-1.28,2.39-1.69.61-.5.91-.75,1.2-1.05.29-.3.48-.54.54-.51.07.04-.15.45-.43,1.21-.26.71-.39,1.07-.43,1.47-.02.23,0,.24.14,1.49.11.97.09.97.14,1.12.09.27.17.34,1.04,1.41.48.59.7.87,1.12,1.14.37.24.57.27.65.28.47.05.85-.23,1.14-.45.41-.3.39-.44,1.01-1.02.34-.31.51-.47.73-.57.09-.04.26-.1,1.18-.1.61,0,.92,0,1.34.07.54.08.51.15.85.19.18.02.57.04,1.77-.39.64-.23,1.14-.45,1.57-.64.73-.32.92-.44,1.42-.58.41-.11.65-.18,1.01-.2.55-.04.78.06.9-.09.09-.12.03-.3-.27-.99-.29-.66-.44-.99-.52-1.11-.37-.57-.78-.9-1.25-1.27-.52-.41-.81-.64-1.28-.82-.45-.17-.79-.19-1.48-.51-.35-.16-.56-.29-.59-.5Z"/>
  <path class="cls-1" d="M98.17,124.83c.03-.24.29-.38.38-.43.3-.17.56-.14.91-.13.33,0,.71-.05,1.46-.16.41-.06.77-.11,1.23-.25.76-.23,1.03-.45,1.13-.53.15-.13.38-.34.47-.66.08-.27-.01-.36.03-.67.04-.34.17-.45.4-.93.19-.41.12-.37.42-1.13.21-.54.31-.8.49-1.14.25-.47.32-.46.76-1.16.26-.42.44-.75.6-1.05.26-.48.39-.73.53-1.05.16-.38.15-.43.29-.69.31-.59.38-.7.38-.7.11-.18.17-.25.14-.35-.05-.19-.38-.25-.52-.28-.37-.07-.51.03-.99.04-.33.01-.31-.03-.85-.06-.54-.02-.58.02-.95,0-.58-.02-1.01-.15-1.47-.27-.46-.13-.81-.27-1.07-.37-.47-.19-.49-.23-1.14-.52-.56-.24-.85-.37-1.19-.45-.21-.05-.53-.12-.95-.12-.49,0-.84.11-1.3.25-.4.12-.82.25-1.3.54-.45.28-.68.42-.81.54-.13.12-.22.23-.39.27-.2.04-.44-.02-.6-.17-.15-.15-.16-.31-.25-.77-.05-.26-.12-.51-.18-.77-.18-.81-.51-1.43-.7-1.78-.11-.2-.29-.54-.59-.94-.16-.22-.34-.43-.7-.85-.33-.39-.3-.33-.38-.44-.08-.12-.11-.18-.17-.2-.12-.04-.24.09-.53.36-.34.32-.51.49-.67.59-.26.17-.28.1-.54.27-.32.2-.33.32-.65.58-.27.22-.34.19-.72.43-.03.02-.41.26-.78.6-.46.42-.72.82-1.15,1.49-.29.46-.44.69-.5.84-.07.17-.12.34-.28.52-.04.04-.19.2-.43.3-.22.09-.28.05-.77.11-.05,0-.39.05-.8.17-.27.08-.33.12-.38.16-.18.17-.2.41-.22.62-.02.29.02.52.09.78.13.53.21.73.37,1.29.12.42.18.64.23.9.11.62.03.73.15,1.15.13.47.36.8.46.93.37.5.79.76,1.13.96.41.25.75.37,1.02.46.18.06.83.28,1.79.4.67.08,1.02.06,1.05.18.01.08-.12.16-.66.46-.62.34-.93.52-1.06.58-.31.15-.4.18-1.3.54-.9.37-.8.34-.94.39-.6.22-1.06.27-1.94.39-.55.07-1.02.1-1.96.15-.68.04-.86.03-1.05.01-.74-.07-1.19-.18-1.19-.18-.36-.08-.56-.16-.68-.05-.11.1-.1.32-.05.46.06.18.21.27.26.3.32.2.7.09.97.04.57-.1.71.04,1.52.08.98.05,1.79-.12,2.64-.3,1.27-.26,2.2-.63,2.8-.87.73-.29,1.1-.44,1.46-.63.37-.2.63-.37.67-.32.05.06-.28.38-.78,1.02-.47.6-.7.89-.86,1.27-.09.21-.07.23-.32,1.47-.2.96-.21.96-.21,1.11,0,.28.05.38.55,1.66.28.71.4,1.04.72,1.43.28.34.46.43.54.47.44.19.88.04,1.22-.08.48-.16.51-.3,1.28-.66.42-.2.63-.29.87-.31.1,0,.28-.02,1.15.27.58.19.87.29,1.25.48.48.24.44.3.75.44.17.08.53.21,1.8.18.68-.02,1.22-.08,1.69-.13.79-.08,1.02-.14,1.53-.11.43.02.68.03,1.02.12.53.13.73.3.88.19.12-.08.12-.28.05-1.02-.08-.72-.11-1.08-.15-1.22-.17-.66-.46-1.09-.8-1.6-.37-.55-.57-.85-.96-1.17-.38-.3-.69-.43-1.25-.94-.28-.26-.44-.45-.41-.66Z"/>
  <g>
    <path class="cls-1" d="M85.28,196.41c6.52.83,11.09,3.56,11.09,9.31,0,3.97-2.13,7.06-5.58,8.9-3.02,1.72-7.35,2.49-12.22,2.49h-14.35v-1.96c4.75-.36,5.22-.77,5.22-5.75v-23.13c0-4.98-.42-5.4-4.8-5.75v-1.96h16.55c4.51,0,7.35.65,9.49,2.08,2.14,1.36,3.44,3.85,3.44,6.7,0,5.69-4.86,8.01-8.84,8.84v.24ZM78.16,195.58c5.99,0,8.6-2.37,8.6-7.3s-2.85-7.47-6.94-7.47c-1.36,0-2.49.36-2.91.71-.47.36-.65,1.19-.65,2.67v11.39h1.9ZM76.26,209.28c0,4.33,1.19,5.58,4.57,5.52,3.85-.06,7.83-2.49,7.83-8.48s-3.74-8.48-10.62-8.48h-1.78v11.45Z"/>
    <path class="cls-1" d="M117,178.55c4.51,0,7.89.65,10.26,2.37,2.61,1.84,4.15,4.75,4.15,8.6,0,7.89-5.81,11.51-11.92,12.28-.89.12-1.84.12-2.49.06l-4.21-1.01v8.6c0,4.98.53,5.34,5.69,5.75v1.9h-17.56v-1.9c4.57-.42,5.1-.83,5.1-5.81v-23.07c0-5.1-.53-5.46-4.74-5.81v-1.96h15.72ZM112.79,198.66c.77.3,2.13.59,3.62.59,2.79,0,7.53-1.72,7.53-9.55,0-6.58-3.91-8.96-7.95-8.96-1.3,0-2.25.3-2.61.59-.42.36-.59,1.01-.59,2.19v15.12Z"/>
    <path class="cls-1" d="M176.19,180.51c-3.38.18-4.8,1.25-5.1,3.5-.24,1.72-.42,4.03-.42,8.72v5.87c0,6.52-1.01,11.56-4.39,15.12-2.73,2.85-6.76,4.27-10.85,4.27-3.74,0-7.35-.83-10.14-2.97-3.38-2.67-5.04-7.06-5.04-14v-14.29c0-5.52-.53-5.81-5.04-6.23v-1.96h16.96v1.96c-4.45.36-4.98.71-4.98,6.23v13.11c0,9.13,3.38,14.41,10.14,14.41,7.59,0,10.56-5.99,10.56-15.9v-5.63c0-4.63-.3-7-.53-8.84-.36-2.14-1.66-3.14-5.75-3.38v-1.96h14.59v1.96Z"/>
  </g>
  <g>
    <path class="cls-1" d="M427.88,163.1c7.58.96,12.88,4.13,12.88,10.82,0,4.62-2.48,8.2-6.48,10.33-3.51,2-8.54,2.89-14.19,2.89h-16.67v-2.27c5.51-.41,6.06-.9,6.06-6.68v-26.87c0-5.79-.48-6.27-5.58-6.68v-2.27h19.22c5.24,0,8.54.76,11.02,2.41,2.48,1.58,4,4.48,4,7.79,0,6.61-5.65,9.3-10.27,10.27v.28ZM419.62,162.14c6.96,0,9.99-2.76,9.99-8.47s-3.31-8.68-8.06-8.68c-1.58,0-2.89.41-3.38.83-.55.41-.76,1.38-.76,3.1v13.23h2.21ZM417.41,178.05c0,5.03,1.38,6.48,5.3,6.41,4.48-.07,9.09-2.89,9.09-9.85s-4.34-9.85-12.33-9.85h-2.07v13.3Z"/>
    <path class="cls-1" d="M457.03,163.31c2.34-4.06,5.17-7.3,7.99-7.3,2.62,0,4.41,1.86,4.41,4,0,2-1.31,3.79-2.96,4.41-.9.34-1.58.21-2-.21-1.17-.96-2-1.45-3.1-1.45-1.52,0-3.17,1.31-4.48,4.48v12.75c0,4.34.34,4.69,5.65,5.1v2.07h-17.78v-2.07c3.93-.41,4.55-.76,4.55-5.1v-14.81c0-3.86-.41-4.13-3.93-4.82v-1.79c3.86-.55,7.58-1.38,11.51-2.69v7.44h.14Z"/>
    <path class="cls-1" d="M502.63,171.44c0,11.09-8.06,16.53-15.64,16.53-10.33,0-15.78-7.72-15.78-15.29,0-11.23,8.82-16.67,15.98-16.67,9.23,0,15.43,7.1,15.43,15.43ZM479.83,170.27c0,8.54,3.1,15.16,7.92,15.16,3.24,0,6.27-2.2,6.27-12.13,0-9.02-2.76-14.81-7.72-14.81-3.38,0-6.48,3.93-6.48,11.78Z"/>
    <path class="cls-1" d="M552.31,158.83c-3.38.62-3.93,1.24-5.3,4.89-2.41,6.06-5.37,14.61-8.68,24.18h-2.34c-2.69-6.82-5.51-13.37-8.2-19.98-2.62,6.54-5.17,13.02-7.79,19.98h-2.41c-2.69-8.4-5.51-16.74-8.2-24.59-1.17-3.44-1.72-4.06-4.82-4.48v-2h16.05v2c-4.06.69-4.41,1.24-3.58,3.86,1.45,4.68,2.96,9.65,4.41,14.33h.14c2.48-6.2,4.82-12.81,7.44-19.91h2.41c2.48,6.68,5.17,13.3,7.92,20.12h.14c1.24-3.79,3.31-10.33,4.2-14.12.69-2.96.34-3.58-4-4.27v-2h12.61v2Z"/>
    <path class="cls-1" d="M573.73,187.15v-2.07c3.31-.41,3.72-.76,3.72-5.65v-11.57c0-4.89-2.14-6.96-5.3-6.96-2.14,0-4.13,1.1-5.99,2.62v16.47c0,4.41.41,4.69,3.65,5.1v2.07h-15.98v-2.07c4.41-.55,4.75-.76,4.75-5.3v-14.26c0-4.27-.34-4.48-3.86-5.17v-1.86c3.65-.48,7.72-1.45,11.44-2.69v5.24c1.38-.96,2.76-2,4.41-3.03,2-1.31,3.51-2,5.51-2,5.51,0,8.89,4,8.89,10.82v13.09c0,4.48.41,4.69,4.2,5.17v2.07h-15.43Z"/>
    <path class="cls-1" d="M302.67,218.51c5.24,0,9.16.76,11.92,2.75,3.03,2.14,4.82,5.51,4.82,9.99,0,9.16-6.75,13.37-13.85,14.26-1.03.14-2.14.14-2.89.07l-4.89-1.17v9.99c0,5.79.62,6.2,6.61,6.68v2.21h-20.39v-2.21c5.3-.48,5.92-.96,5.92-6.75v-26.8c0-5.92-.62-6.34-5.51-6.75v-2.27h18.26ZM297.78,241.87c.9.34,2.48.69,4.2.69,3.24,0,8.75-2,8.75-11.09,0-7.65-4.55-10.4-9.23-10.4-1.52,0-2.62.34-3.03.69-.48.41-.69,1.17-.69,2.55v17.57Z"/>
    <path class="cls-1" d="M352.96,247.58c0,11.09-8.06,16.54-15.64,16.54-10.33,0-15.78-7.72-15.78-15.29,0-11.23,8.82-16.67,15.98-16.67,9.23,0,15.43,7.1,15.43,15.43ZM330.16,246.41c0,8.54,3.1,15.16,7.92,15.16,3.24,0,6.27-2.2,6.27-12.12,0-9.03-2.76-14.81-7.72-14.81-3.38,0-6.48,3.93-6.48,11.78Z"/>
    <path class="cls-1" d="M355.72,263.29v-2.07c4.2-.55,4.62-.9,4.62-5.37v-31.9c0-4.34-.34-4.55-4.34-4.96v-1.93c3.79-.41,8.61-1.45,11.92-2.41v41.2c0,4.62.48,4.96,4.75,5.37v2.07h-16.95Z"/>
    <path class="cls-1" d="M375.49,263.29v-2.07c4.13-.48,4.55-.76,4.55-5.58v-13.85c0-4.41-.41-4.68-4-5.24v-1.93c3.93-.48,8.06-1.38,11.57-2.55v23.56c0,4.68.34,5.1,4.62,5.58v2.07h-16.74ZM378.94,222.85c0-2.48,2.07-4.41,4.41-4.41,2.48,0,4.41,1.93,4.41,4.41,0,2.34-1.93,4.34-4.48,4.34-2.27,0-4.34-2-4.34-4.34Z"/>
    <path class="cls-1" d="M409.11,263.29c-1.17.55-2.27.83-2.83.83-4.96,0-7.78-2.55-7.78-8.54v-19.5h-4.48l-.34-.83,1.93-2.27h2.89v-5.03l6.61-5.1.9.34v9.78h7.17c.76.69.62,2.55-.41,3.1h-6.75v17.22c0,5.44,2.48,6.2,4,6.2,1.38,0,2.62-.41,3.72-.9l.69,2.14-5.3,2.55Z"/>
    <path class="cls-1" d="M417.03,263.29v-2.07c4.13-.48,4.55-.76,4.55-5.58v-13.85c0-4.41-.41-4.68-4-5.24v-1.93c3.93-.48,8.06-1.38,11.57-2.55v23.56c0,4.68.34,5.1,4.62,5.58v2.07h-16.74ZM420.48,222.85c0-2.48,2.07-4.41,4.41-4.41,2.48,0,4.41,1.93,4.41,4.41,0,2.34-1.93,4.34-4.48,4.34-2.27,0-4.34-2-4.34-4.34Z"/>
    <path class="cls-1" d="M463.4,256.82c-3.1,4.27-7.65,7.3-11.78,7.3-9.16,0-14.54-7.1-14.54-14.54,0-5.17,2.48-9.92,6.96-13.3,4.13-3.1,8.54-4.13,11.23-4.13s4.82.76,5.99,1.72c.96.76,1.24,1.45,1.24,2.34-.07,1.79-1.72,3.51-2.76,3.51-.41,0-.83-.21-1.45-.76-2.55-2.27-4.82-3.31-6.96-3.31-3.38,0-6.75,3.03-6.75,10.4,0,9.3,6.54,12.33,9.85,12.33,2.89,0,4.96-.76,7.72-3.17l1.24,1.58Z"/>
    <path class="cls-1" d="M488.96,264.12c-1.58,0-2.96-.62-3.86-1.38-.9-.9-1.38-1.79-1.72-2.76-2.69,1.79-5.92,4.13-7.51,4.13-5.51,0-8.96-4.41-8.96-8.68,0-3.51,1.72-5.37,5.37-6.68,4.06-1.45,9.3-3.17,10.88-4.55v-1.72c0-4.55-1.93-7.1-4.82-7.1-1.03,0-1.93.41-2.55,1.24-.83.96-1.45,2.55-2,4.69-.41,1.58-1.31,2.07-2.62,2.07-1.58,0-3.79-1.52-3.79-3.31,0-1.1.83-2,2.34-3.03,2.34-1.72,7.1-4.13,11.02-4.89,2.55,0,4.62.62,6.34,1.93,2.76,2.14,3.45,5.1,3.45,8.82v11.92c0,3.17,1.1,4.06,2.27,4.06.83,0,1.65-.28,2.34-.62l.76,2.07-6.96,3.79ZM483.17,246.76c-1.38.76-3.24,1.72-4.68,2.48-2.34,1.1-3.58,2.41-3.58,4.82,0,3.72,2.62,5.24,4.41,5.24,1.24,0,2.62-.62,3.86-1.58v-10.95Z"/>
    <path class="cls-1" d="M497.22,263.29v-2.07c4.2-.55,4.62-.9,4.62-5.37v-31.9c0-4.34-.34-4.55-4.34-4.96v-1.93c3.79-.41,8.61-1.45,11.92-2.41v41.2c0,4.62.48,4.96,4.75,5.37v2.07h-16.95Z"/>
    <path class="cls-1" d="M579.83,220.78c-3.93.21-5.58,1.45-5.92,4.06-.28,2-.48,4.68-.48,10.13v6.82c0,7.58-1.17,13.43-5.1,17.57-3.17,3.31-7.85,4.96-12.61,4.96-4.34,0-8.54-.96-11.78-3.44-3.93-3.1-5.86-8.2-5.86-16.26v-16.6c0-6.41-.62-6.75-5.86-7.23v-2.27h19.7v2.27c-5.17.41-5.79.83-5.79,7.23v15.23c0,10.61,3.93,16.74,11.78,16.74,8.82,0,12.26-6.96,12.26-18.46v-6.54c0-5.37-.34-8.13-.62-10.26-.41-2.48-1.93-3.65-6.68-3.93v-2.27h16.95v2.27Z"/>
    <path class="cls-1" d="M599.87,263.29v-2.07c3.31-.41,3.72-.76,3.72-5.65v-11.57c0-4.89-2.14-6.96-5.3-6.96-2.14,0-4.13,1.1-5.99,2.62v16.47c0,4.41.41,4.68,3.65,5.1v2.07h-15.98v-2.07c4.41-.55,4.75-.76,4.75-5.31v-14.26c0-4.27-.34-4.48-3.86-5.17v-1.86c3.65-.48,7.72-1.45,11.44-2.69v5.24c1.38-.96,2.76-2,4.41-3.03,2-1.31,3.51-2,5.51-2,5.51,0,8.89,4,8.89,10.82v13.09c0,4.48.41,4.68,4.2,5.17v2.07h-15.43Z"/>
    <path class="cls-1" d="M618.68,263.29v-2.07c4.13-.48,4.55-.76,4.55-5.58v-13.85c0-4.41-.41-4.68-4-5.24v-1.93c3.93-.48,8.06-1.38,11.57-2.55v23.56c0,4.68.34,5.1,4.62,5.58v2.07h-16.74ZM622.13,222.85c0-2.48,2.07-4.41,4.41-4.41,2.48,0,4.41,1.93,4.41,4.41,0,2.34-1.93,4.34-4.48,4.34-2.27,0-4.34-2-4.34-4.34Z"/>
    <path class="cls-1" d="M670.14,247.58c0,11.09-8.06,16.54-15.64,16.54-10.33,0-15.78-7.72-15.78-15.29,0-11.23,8.82-16.67,15.98-16.67,9.23,0,15.43,7.1,15.43,15.43ZM647.34,246.41c0,8.54,3.1,15.16,7.92,15.16,3.24,0,6.27-2.2,6.27-12.12,0-9.03-2.76-14.81-7.72-14.81-3.38,0-6.48,3.93-6.48,11.78Z"/>
    <path class="cls-1" d="M693.36,263.29v-2.07c3.31-.41,3.72-.76,3.72-5.65v-11.57c0-4.89-2.14-6.96-5.3-6.96-2.14,0-4.13,1.1-5.99,2.62v16.47c0,4.41.41,4.68,3.65,5.1v2.07h-15.98v-2.07c4.41-.55,4.75-.76,4.75-5.31v-14.26c0-4.27-.34-4.48-3.86-5.17v-1.86c3.65-.48,7.72-1.45,11.44-2.69v5.24c1.38-.96,2.76-2,4.41-3.03,2-1.31,3.51-2,5.51-2,5.51,0,8.89,4,8.89,10.82v13.09c0,4.48.41,4.68,4.2,5.17v2.07h-15.43Z"/>
  </g>
</svg>