<?xml version="1.0" encoding="utf-8"?>
<!-- Generator: Adobe Illustrator 24.2.1, SVG Export Plug-In . SVG Version: 6.00 Build 0)  -->
<svg version="1.2" baseProfile="tiny" id="bul_pl_brown_shield_svg"
	 xmlns="http://www.w3.org/2000/svg" xmlns:xlink="http://www.w3.org/1999/xlink" x="0px" y="0px" viewBox="0 0 654 288"
	 overflow="visible" xml:space="preserve">
<g>
	<g>
		<g>
			<g>
				<g>
					<path fill="#FFFFFF" d="M58.3,39.2c0.3,0.5,0.7,1.2,1.3,2.1c1.5,2.5,3.9,12,6.9,15.1c1.6-1.1,4.4-2.5,6-3.1
						c-0.4-0.6-2.1-3.5-4-6c-3.6-4.8-6.3-7.4-6.5-7.8C61,39.5,59.4,39.6,58.3,39.2z"/>
					<path fill="#FFFFFF" d="M85.6,51.8c0.7-4.9-0.9-13.2-1.9-15.2c-1.2-0.3-2.5-0.7-3.6-1.2c-0.1,0.6-1.1,4-1.4,8.9
						c-0.2,2.6-0.1,6.7,0.4,7.5C80.8,51.6,83.4,51.6,85.6,51.8z"/>
					<path fill="#FFFFFF" d="M109.2,80.9c0-14.9-11.7-26.5-26.5-26.5c-14.7,0-26.5,11.9-26.5,26.5c0,0.7,0.2,2.1,0.4,3.6
						c7.6-1.8,17.8-1.5,22.3,2.1c7.3-4.2,17.8-4.4,25.5,0.1c1.5-0.8,3.1-1.3,4.7-1.8C109.1,83.4,109.2,81.9,109.2,80.9z M76.8,71.9
						c-0.1,1.7-1.5,3-3.2,2.9c-1.7-0.1-3-1.5-2.9-3.2l0-0.3c-0.3-0.4-1.7-0.9-3.7,0.4c-1,0.6-2.2,0.2-0.4-1.4
						c1.9-1.7,3.7-2.6,5.3-2.8l0.1,0c2.7-0.2,6.2,0.4,7.8,1c0.7,0.3,0,3.6-0.2,3.6c-0.6-0.1-1.8-0.6-2.8-0.4L76.8,71.9z M85.7,81.1
						c-0.5,1.6-6.1,2.1-7.1,0c-0.4-0.8-1-2.9-0.2-2.5c1.2,0.7,5.7,0.2,6.6,0c0.7-0.2,0.3-1.2,0.7-1.1C86.2,77.7,86.2,79.6,85.7,81.1
						z M98.8,72.4c-1.4-1.2-3.2-1.7-3.9-1.2l0,0.2c0.1,1.7-1.1,3.2-2.8,3.3c-1.7,0.1-3.2-1.1-3.3-2.8v-0.1c-1.1-0.3-2.9,0.3-3.1,0.2
						c-0.1-0.1-0.9-3.2,0.1-3.6c2.7-1.1,11.2-1.6,13.7,3.2C99.7,72.2,99.5,73,98.8,72.4z"/>
					<path fill="#FFFFFF" d="M100.4,38.9c-3.1,2.6-7.9,9-8.5,14.2c1.5,0.6,5.3,2.4,5.9,2.9c3.8-3.8,3.1-8,4.6-11.2
						c0.7-1.4,1.3-2.5,1.6-3.1C102.7,41,101.4,40,100.4,38.9z"/>
					<path fill="#FFFFFF" d="M119,49.1c-0.7,0.4-2.3,1.4-2.9,1.8c-3.7,2.8-11.7,6.5-13.5,8.5c1.5,1.3,3.6,3.6,4.6,5.6
						c0.9,0,3.5-2.1,8.6-8.1c1.6-1.9,3.4-2.9,6.5-4.7C121.1,51.3,120,50.2,119,49.1z"/>
					<path fill="#FFFFFF" d="M54.7,71.3c-1.7-1.7-5.2-3.2-9.6-2.8c-9.1,0.7-15.2,0.1-18.6-0.4c-5.9-0.8-9.6,0-12.5,0
						c-9,0,0.3,0.8,1.3,1.2c4.2,1.7,12.8,3.8,19.5,3.3c3.3-0.2,8.8,1.8,9.7,2.1c2.4,0.9,6.8,2.3,9.1,2.2
						C53.7,75.8,54.2,72.6,54.7,71.3z"/>
					<path fill="#FFFFFF" d="M62,60c-4.6-3.7-8.8-4.5-15.6-7.7c-1.5-0.7-4.1-2.4-4.2-2.5c-0.2-0.1-0.5-0.3-0.9-0.6
						c-0.4,1.3-1.2,3-1.9,3.9c1,1.4,8.6,10,18.2,12.6C58.6,64,60.4,61.9,62,60z"/>
					<path fill="#FFFFFF" d="M158.6,66.7c-0.5-0.1-2.2-0.3-3.3-0.3c-1.5,0-11,0.1-13.6,0.5c-5.3,0.8-15.6,0.4-21.3,0.2
						c-4.2-0.2-9.1,1.5-10.6,2.3c0,0,1.6,4.1,1.7,6.8c1.8,0.3,3.5-2,8.7-1.9c5.3,0.1,18.5-0.6,25.1-3.2c5-1.9,9.1-2.9,12.5-3.6
						C159.1,67.3,160.9,67,158.6,66.7z"/>
				</g>
				<path fill="#FFFFFF" d="M39.5,40.1c0.4-0.4,1-0.3,1.5-0.1c4.5,1.5,11,0.5,14-4.3c0.4-0.7,1.3-0.9,2-0.6c3.1,1.3,9.5,1.8,17.3-6
					c0.6-0.6,1.5-0.5,2.2,0c6.8,5.5,13.9,5.8,21.2,1c0.4-0.3,1-0.7,1.5-0.5c0.5,0.2,0.9,0.6,1,1.2c2.3,10.7,13.4,9.7,16.8,9.2
					c0.4-0.1,0.9,0,1.2,0.3c0.4,0.3,0.6,0.6,0.6,1.1c0.4,2.5,3.1,7.3,7.9,9.8c4.1,2.1,8.5,1.9,13.2-0.5c0.5-0.2,1-0.2,1.5,0
					c6,3.2,11.5,3.4,14.9,0.5c2.4-2,3.4-5.4,2.4-8.3c-1.1-3.2-4.3-5.3-8.8-5.5c-0.8,0-1.4-0.6-1.5-1.4c-0.4-2.6-1.8-4.7-4.2-6.1
					c-3.5-2.2-8.8-2.4-14-0.7c-0.5,0.1-1,0.1-1.4-0.2c-0.4-0.3-0.7-0.7-0.8-1.2c-0.3-2-1.2-4.7-3.7-6.2c-2.6-1.6-6.6-1.6-11.5,0.1
					c-0.8,0.3-1.6-0.1-2-0.8c-3.1-6-7.6-10-12.8-11.3c-4.7-1.2-9.9-0.3-14.3,2.5c-0.6,0.4-1.3,0.3-1.9-0.1
					c-4.4-3.3-9.7-4.4-14.5-2.9c-4.7,1.4-8.2,5.1-10,10.3c-0.1,0.4-0.5,0.8-0.9,0.9c-0.4,0.2-0.9,0.2-1.3,0
					c-7.2-2.9-13-2.8-16.9,0.2c-3.3,2.6-4.4,6.7-4.2,7.8c0.1,0.8-0.4,1.6-1.2,1.8l-1.7,0.4c-4,0.9-8.1,1.8-9.3,8.2
					C22,39.4,21.5,40,20.7,40c-6.9,0.7-11.4,3.2-12.3,7c-0.7,2.7,0.6,5.7,3,7.3c2.5,1.7,5.4,1.5,8.1-0.5c0.4-0.3,1-0.4,1.5-0.2
					c4,1.5,10.6,1.2,14.6-1.9c2.9-2.3,4-5.7,3.4-10.1C38.9,41,39.1,40.5,39.5,40.1z M148.7,40.6c4.1-0.9,9,2,7.6,7.5
					c-0.2,0.9-2.5,1-2.5,0c0.4-4.6-1.9-5-4.9-4.9C147.8,43.2,147.8,40.7,148.7,40.6z M131.2,32.4c4-2.3,12.1-1.9,14.6,5.4
					c0.4,1.2-1.2,3.3-2.2,1.5c-3.1-5.6-8-5.6-12.1-4C130.6,35.6,129.7,33.2,131.2,32.4z M114.1,24c3.7-1.3,10-1.9,11.6,4.3
					c0.5,1.7-1.6,2.5-2.1,1.3c-1.7-4.5-4.9-4.3-8.8-3.1C113.1,27.2,113.5,24.2,114.1,24z M84,17.1c2.7-4.3,16.6-8.4,23.7,3.9
					c0.8,1.3-0.3,2.1-1.1,2.7c-0.6,0.4-0.9-0.5-1.3-1.1c-6.1-9.6-17-7.1-20-2.6C84.8,20.8,83.2,18.4,84,17.1z M61.6,17.8
					C64,13.9,72.4,8,79.8,14.5c0.8,0.7-0.2,3.4-1.1,2.8c-6.8-4.7-12.1-0.9-15,2.5C62.4,21.4,61,18.7,61.6,17.8z M21.4,44.8
					c-2.8,0-5.1,0.1-7.1,2.2c-2.1,2.3-1.6,3.6-2,4c-0.6,0.6-2-0.4-2-1.6c0.1-5.4,6.7-7.6,10.6-7.1C22.4,42.5,22.8,44.8,21.4,44.8z
					 M33,35.7c-4.2,0.5-5.4,2.5-6.1,4.8c-0.3,0.9-2.6,0.2-2.3-1.5c1.1-5.1,6.7-6.4,8.7-5.9C34,33.2,33.8,35.6,33,35.7z M36.6,30.2
					c0.9-4.5,5.3-11.1,15.4-8.5c1.2,0.3,0.5,3.5-0.8,2.9c-7.4-2.9-11.1,2.7-12.3,7.1C38.7,32.3,36.2,32.1,36.6,30.2z"/>
				<g>
					<path fill="#FFFFFF" d="M16.1,85.7c-4.9-0.1-9,1.3-10.4,3.8c-2.6,4.6,0.5,8.6,2.3,9.7c4.2,2.6,8.3,0.9,8.6-0.7
						c-1.2-1.3-3.2-4.3-4.3-4.3c-1.6,0-1.5-2.2-0.3-2.5c2.8-0.9,5.6,4.5,9.7,7.4c3.6,2.6,8.7,0.7,8.7-0.4
						C28.2,96.7,25.5,85.9,16.1,85.7z"/>
					<path fill="#FFFFFF" d="M113.3,98.4c3.4,3.4,8,2,8.2,0.8c-0.4-0.7-2.5-3.8-3.8-4.5c-1-0.6-1.7-1.5-1.1-2.3
						c0.9-1.3,2.8-0.4,3.9,1c1.2,1.4,4.4,5.7,5.6,6.3c3,1.6,9.5,1.1,9-0.9c-1.8-2.9-3.1-8.6-8.4-11.2c-5.6-2.6-12.8-1.9-19.4,0.4
						C108.5,90.6,111.6,96.7,113.3,98.4z"/>
					<path fill="#FFFFFF" d="M74.1,87.6c-5.6-2.6-13.5-1.8-20.1,0.6c1.8,2.5,4.9,8.2,6.5,10.1c3.1,3.7,8.3,1.8,8.5,0.7
						c-0.4-0.7-3.2-4.3-4.2-4.9c-1-0.6-1.6-1.5-1-2.2c0.9-1.3,3.1,0,4.3,1.4c1.2,1.4,4.5,5.6,5.6,6.3c3.3,2.2,9.5,1.1,9-0.8
						C80.4,96,79.5,90.2,74.1,87.6z"/>
				</g>
			</g>
			<g>
				<g>
					<path fill="#FFFFFF" d="M32.2,130.4c-4,0.1-7.9,1.7-10.1,1.3v26.6c0,0,1.4,1.1,5.4,0c5.2-1.5,7.5,0.1,7.5,0.1v-26.9
						C34.9,131.6,34.3,130.4,32.2,130.4z"/>
					<path fill="#FFFFFF" d="M46.4,241.7c4,1.1,5.4,0,5.4,0v-26.6c-2.3,0.4-6.2-1.2-10.2-1.3c-2.1-0.1-2.7,1.2-2.7,1.2v26.8
						C38.9,241.9,41.2,240.3,46.4,241.7z"/>
					<path fill="#FFFFFF" d="M133.1,130.4c-2.1-0.1-2.7,1.2-2.7,1.2v26.9c0,0,2.3-1.6,7.5-0.1c4,1.1,5.4,0,5.4,0v-26.6
						C140.9,132.1,137,130.6,133.1,130.4z"/>
					<path fill="#FFFFFF" d="M41.7,130.4c-2.1-0.1-2.7,1.2-2.7,1.2v26.9c0,0,2.3-1.6,7.5-0.1c4,1.1,5.4,0,5.4,0v-26.6
						C49.6,132.1,45.7,130.6,41.7,130.4z"/>
					<path fill="#FFFFFF" d="M34.9,241.9V215c0,0-0.6-1.2-2.7-1.2c-4,0.1-7.9,1.7-10.1,1.3v26.6c0,0,1.4,1.1,5.4,0
						C32.6,240.3,34.9,241.9,34.9,241.9z"/>
					<path fill="#FFFFFF" d="M130.8,215v26.8c0,0,2.3-1.6,7.5-0.1c4,1.1,5.4,0,5.4,0v-26.6c-2.3,0.4-6.2-1.2-10.1-1.3
						C131.4,213.8,130.8,215,130.8,215z"/>
					<path fill="#FFFFFF" d="M123.5,130.4c-4,0.1-7.9,1.7-10.2,1.3v26.6c0,0,1.4,1.1,5.4,0c5.1-1.5,7.5,0.1,7.5,0.1v-26.9
						C126.3,131.6,125.7,130.4,123.5,130.4z"/>
					<path fill="#FFFFFF" d="M113.9,215.2v26.6c0,0,1.4,1.1,5.4,0c5.2-1.5,7.5,0.1,7.5,0.1V215c0,0-0.6-1.2-2.7-1.2
						C120.1,214,116.2,215.6,113.9,215.2z"/>
				</g>
				<g>
					<path fill="#FFFFFF" d="M160.4,118.6H96.6v57.9h63.8V118.6z M150.9,164.7h-18.3v2.3H125v-2.3h-18.3v-30.9h3.9v-5.6
						c4,1,10.4-1.2,13.3-1.2c3.2,0,4.9,1.4,4.9,1.4s1.7-1.4,4.9-1.4c2.9,0,9.4,2.2,13.3,1.2v5.6h3.9V164.7z"/>
					<path fill="#FFFFFF" d="M68.7,118.6H4.8v57.9h63.9V118.6z M59,164.7H40.7v2.3h-7.6v-2.3H14.8v-30.9h3.9v-5.6
						c4,1,10.4-1.2,13.3-1.2c3.2,0,4.9,1.4,4.9,1.4s1.7-1.4,4.8-1.4c2.9,0,9.4,2.2,13.3,1.2v5.6H59V164.7z"/>
					<path fill="#FFFFFF" d="M96.6,280c16.1-4.7,32-10.9,42.8-20.8c3.8-3.5,7-7.1,9.6-11.1h-16.5v2.3H125v-2.3h-18.3v-30.9h3.9v-5.6
						c4,1,10.4-1.2,13.3-1.2c3.2,0,4.9,1.4,4.9,1.4s1.7-1.4,4.8-1.4c2.9,0,9.4,2.2,13.3,1.2v5.6h3.9v28c5.9-10.2,8.7-22.6,9.6-40.1
						l-0.1-2.6H96.6V280z"/>
					<path fill="#FFFFFF" d="M14.8,244.9v-27.6h3.9v-5.6c4,1,10.4-1.2,13.3-1.2c3.2,0,4.9,1.4,4.9,1.4s1.7-1.4,4.8-1.4
						c2.9,0,9.4,2.2,13.3,1.2v5.6H59v30.9H40.7v2.3h-7.6v-2.3H16.8c2.6,3.9,5.7,7.6,9.3,11c10.2,9.5,26.1,16,42.6,20.8v-77.5H4.8
						l0.1,2.5C5.6,220.9,8.6,234,14.8,244.9z"/>
				</g>
			</g>
		</g>
		<g>
			<g>
				<path fill="#231F20" d="M167.5,65c-1-0.7-11.1-2-12.7-2c-1.5,0-10.3,0.1-13.7,0.6c-5.3,0.8-14.3,0.8-21.1,0
					c-2.5-0.3-5.2,0.3-7.5,1c0.4-0.4,0.9-0.8,1.5-1.4c2-2.1,4.3-6,8.3-8c1-0.5,2-1,2.9-1.5c3.4,1.7,8.7,2.8,15.3-0.3
					c9.8,4.9,15.7,1.6,17.8-0.2c2.5-2.1,4-5.3,4-8.5c0-1.1-0.2-2.2-0.5-3.3c-1.4-4.3-5.3-6.9-10.7-7.6c-0.3-1.1-0.8-2.2-1.4-3.2
					c0.6-0.8,1.2-1.5,1.6-2c0.5-0.6,2.1-3.3-2.2-1c-0.2,0.1-0.6,0.3-1.2,0.6c-0.6-0.6-1.3-1.2-2-1.6c-4-2.5-9.5-2.8-15.1-1.3
					c-0.8-3-2.3-5.5-4.6-7c-2.5-1.5-5.6-2-9.3-1.4c0.2-0.5,0.4-1,0.6-1.4c1.6-3.4,0.8-4.3-1-2.8c-1.9,1.7-3.2,2.9-4.1,3.9
					c-3.5-5.6-8-9.3-13.5-10.8C94.1,5,89.1,5.6,84.5,7.9c-0.3-2.3-0.6-4.2-0.9-5.3c-0.9-2.8-1.9-0.6-2,0.3c-0.2,1.2-0.5,2.7-0.8,4.6
					C76.2,5,71.2,4.3,66.4,5.8c-5.2,1.6-9.2,5.5-11.5,10.9c-1.9-0.7-3.6-1.1-5.2-1.4c-1-1.3-2.4-2.8-4.3-4.6
					c-1.3-1.2-2.4-0.6-1.6,1.8c0.3,0.9,0.6,1.7,0.8,2.5c-3.7,0.2-6.4,1.4-8.3,2.8c-3.6,2.8-5.1,6.8-5.4,9.3
					c-0.2,0.1-0.5,0.1-0.5,0.1c-3,0.7-7.1,1.8-9.7,5.9c-0.5-0.3-0.8-0.5-0.9-0.6c-7.6-5.1-4.1,1.5-1.2,4.3C8.6,38.3,5.7,43.1,5,46
					c-0.2,0.7-0.3,1.5-0.3,2.2c0,3.3,1.7,6.6,4.6,8.6c3.4,2.3,7.5,2.2,11.2-0.2c4.8,1.5,11.5,1.3,16.4-2.2c2.8,3,5.1,5.1,6.3,6.4
					c3,3,7.5,5.3,9.8,6.2c-2.3-0.9-6-1.8-9.8-1.3c-8.1,1.1-13.5-0.3-17-0.7c-5.7-0.6-11.6,0.4-14.5,0.4c-3.1,0-7.5,1.5-9.6,1.8
					c-2.3,0.3-2.2,1.9,1.1,2.7c3.2,0.9,9.1,1.4,10.8,2.1c5.2,2.3,13.8,4.1,20,3.6c4.3-0.3,8.7,1.8,9.8,2.1c2.2,0.7,7.5,2.1,9.7,2.1
					c0-0.1,0,3.1,0.2,4.6c-0.8,0.3-1.6,0.6-2.3,0.9c-2.4-1.5-13.1-5.8-26-0.4c-2.7-0.9-8.5-4.1-16.5-1.5c-9.8,3.2-8.2,12.2-5,16.3
					c4.4,5.6,12.5,4.4,14.8,1.6c5.3,3.5,10.6,2.3,14.5-0.1c2.6,1.5,15.2,4,24.8,0.1c1.3,1,6.6,3.7,13.3,0.3
					c3.9,2.3,10.4,2.5,13.7-0.4c1.2,1,4.8,2.5,12.5,2.4c9.2-0.1,11.4-1.5,12.6-2.6c2,0.9,7.2,3.6,13.6,0.9c3.5,2.2,10.4,2,14.1-0.4
					c6.8,3.1,19.2,1.7,22.3-0.5c5.6-3.9,2.9-11.7-3.3-15.4c-12-6.1-23.2-1.4-26.2,0.2c-3.5-2.4-11-3.9-18.7-2.5c0.1-0.9,0-2,0-3.1
					c0-0.1,0-0.2,0-0.4c1.5-0.5,3.7-2.1,8.1-2.4c6-0.4,20.2-0.2,27.3-3.9c4-2.1,18.1-4.8,20-5.9C169,66.5,168.5,65.7,167.5,65z
					 M115.9,56.9c-5.1,6-7.7,8.1-8.6,8.1c-1-2-3.1-4.3-4.6-5.6c1.8-2,9.8-5.8,13.5-8.5c0.5-0.4,2.2-1.4,2.9-1.8
					c1,1.1,2.1,2.2,3.4,3.1C119.2,54,117.5,55,115.9,56.9z M42.2,43.8c4.3,0.7,9.3-0.3,12.9-3.6c4.5,7.1,4.6,13.6,8.9,18
					c-5.4-5.3-10.2-5.2-18-9.4c-1.3-0.7-3.4-2-3.9-2.3c0,0,0,0,0,0c0.1-0.7,0.1-1.3,0.1-2.1C42.2,44.3,42.2,44.1,42.2,43.8z
					 M75.4,51.8l0.1,0.2c0,0-2.4-3.6-2.7-4c-0.8-1.2-1.9-2.5-3-3.9c-1.9-2.2-3.5-4.1-4.7-5.4c3.1-0.8,6.6-2.5,10.5-6.1
					c0.4,0.3,0.8,0.5,1.2,0.8c-0.2,1.2-0.4,2.3-0.5,3.1c-0.9,4.8-0.9,8.5-1,10.1C75.1,48,75.3,50.4,75.4,51.8z M68.6,47.4
					c1.9,2.5,3.6,5.4,4,6c-1.6,0.6-4.4,2-6,3.1c-3-3.1-5.4-12.6-6.9-15.1c-0.6-1-1-1.6-1.3-2.1c1,0.4,2.7,0.3,3.7,0.3
					C62.3,40,64.9,42.5,68.6,47.4z M82.6,54.4c14.9,0,26.5,11.7,26.5,26.5c0,1-0.1,2.5-0.3,3.9c-1.6,0.5-3.2,1-4.7,1.8
					c-7.7-4.5-18.2-4.2-25.5-0.1c-4.5-3.6-14.6-3.8-22.3-2.1c-0.2-1.4-0.4-2.9-0.4-3.6C56.1,66.3,68,54.4,82.6,54.4z M78.8,44.2
					c0.3-4.9,1.2-8.3,1.4-8.9c1,0.5,2.3,0.9,3.6,1.2c1,2.1,2.6,10.3,1.9,15.2c-2.2-0.2-4.9-0.2-6.4,0C78.7,50.9,78.6,46.9,78.8,44.2
					z M102.3,44.8c-1.5,3.2-0.7,7.4-4.6,11.2c-0.5-0.4-4.4-2.3-5.9-2.9c0.6-5.1,5.4-11.5,8.5-14.2c1,1.1,2.3,2.1,3.6,2.7
					C103.6,42.3,103,43.4,102.3,44.8z M106.4,43.8c0.1-0.2,0.3-0.5,0.4-0.8c2.9,0.9,6,1.2,9.1,0.9c0.3,1,0.8,2.1,1.4,3.2
					c0,0,0,0-0.1,0c-1.5,0.7-6.1,3.9-12.9,7.6c-1.7,1-2.8,1.9-3.4,2.5c0.7-1,1.6-2.3,2.2-3.8C104.3,50.4,104,47.9,106.4,43.8z
					 M90.1,47.6c-0.7,1.8-1,2.8-1.3,3.9c0.6-4-0.5-9.8-1.7-14.8c3.5,0.1,7-0.8,10.5-2.8c0.3,0.8,0.6,1.5,1,2.2
					C96.6,37.8,91.9,43,90.1,47.6z M35.6,51.7c-4,3.2-10.5,3.5-14.6,1.9c-0.5-0.2-1.1-0.1-1.5,0.2c-2.7,2-5.7,2.1-8.1,0.5
					c-2.4-1.6-3.7-4.7-3-7.3c1-3.8,5.5-6.3,12.3-7c0.7-0.1,1.3-0.6,1.4-1.3c1.2-6.3,5.3-7.2,9.3-8.2l1.7-0.4c0.8-0.2,1.3-1,1.2-1.8
					c-0.1-1.2,0.9-5.3,4.2-7.8c3.9-3,9.7-3.1,16.9-0.2c0.4,0.2,0.9,0.2,1.3,0c0.4-0.2,0.7-0.5,0.9-0.9c1.8-5.2,5.3-8.8,10-10.3
					c4.8-1.5,10.1-0.4,14.5,2.9c0.5,0.4,1.3,0.4,1.9,0.1c4.4-2.8,9.6-3.7,14.3-2.5c5.2,1.4,9.6,5.3,12.8,11.3c0.4,0.7,1.2,1,2,0.8
					c4.9-1.7,8.9-1.7,11.5-0.1c2.5,1.5,3.4,4.2,3.7,6.2c0.1,0.5,0.3,0.9,0.8,1.2c0.4,0.3,0.9,0.3,1.4,0.2c5.2-1.7,10.4-1.5,14,0.7
					c2.3,1.4,3.8,3.5,4.2,6.1c0.1,0.8,0.7,1.3,1.5,1.4c4.5,0.3,7.8,2.3,8.8,5.5c1,2.9,0,6.2-2.4,8.3c-3.4,2.9-8.9,2.7-14.9-0.5
					c-0.5-0.3-1-0.3-1.5,0c-4.7,2.4-9.2,2.6-13.2,0.5c-4.8-2.5-7.5-7.3-7.9-9.8c-0.1-0.4-0.3-0.8-0.6-1.1c-0.4-0.3-0.8-0.4-1.2-0.3
					c-3.4,0.5-14.5,1.5-16.8-9.2c-0.1-0.5-0.5-1-1-1.2c-0.5-0.2-1.1,0.2-1.5,0.5c-7.2,4.8-14.3,4.5-21.2-1c-0.6-0.5-1.6-0.6-2.2,0
					c-7.8,7.9-14.2,7.3-17.3,6c-0.7-0.3-1.6-0.1-2,0.6c-3,4.8-9.5,5.8-14,4.3c-0.5-0.2-1.1-0.2-1.5,0.1c-0.4,0.4-0.6,0.9-0.6,1.5
					C39.6,46,38.5,49.4,35.6,51.7z M39.4,53.2c0.7-1,1.5-2.7,1.9-3.9c0.4,0.3,0.8,0.5,0.9,0.6c0.1,0.1,2.7,1.8,4.2,2.5
					c6.7,3.2,11,4,15.6,7.7c-1.7,1.8-3.4,3.9-4.4,5.8C48,63.2,40.4,54.6,39.4,53.2z M44.4,74.7c-0.9-0.3-6.4-2.3-9.7-2.1
					C28,73.1,19.4,71,15.2,69.3c-1.1-0.4-10.3-1.2-1.3-1.2c3,0,6.6-0.8,12.5,0c3.5,0.5,9.5,1.1,18.6,0.4c4.5-0.4,7.9,1.1,9.6,2.8
					c-0.5,1.4-1,4.6-1.1,5.6C51.2,77,46.8,75.5,44.4,74.7z M21.7,99.1c-4.1-2.9-6.8-8.3-9.7-7.4c-1.2,0.4-1.3,2.5,0.3,2.5
					c1.1,0,3.1,3,4.3,4.3c-0.3,1.6-4.4,3.2-8.6,0.7c-1.9-1.1-5-5.1-2.3-9.7c1.4-2.5,5.5-3.9,10.4-3.8c9.5,0.2,12.1,11,14.3,13
					C30.4,99.8,25.3,101.7,21.7,99.1z M35.4,98.9c-3.6-1.6-6.4-9.8-7.4-10.9c-0.4-0.4,6.3-2.9,13.2-2.3c11.7,1,11.7,8.2,14.6,11.8
					C56.7,99,46.2,102,35.4,98.9z M73.6,99.7c-1.1-0.7-4.4-4.9-5.6-6.3c-1.2-1.4-3.4-2.7-4.3-1.4c-0.6,0.8,0,1.7,1,2.2
					c1.1,0.6,3.9,4.2,4.2,4.9c-0.2,1.1-5.4,3-8.5-0.7c-1.6-1.9-4.6-7.7-6.5-10.1c6.6-2.4,14.5-3.2,20.1-0.6
					c5.4,2.5,6.3,8.3,8.4,11.2C83.1,100.7,76.8,101.9,73.6,99.7z M88.2,99.5c-3.6-1.6-6.4-9.8-7.4-10.9c-0.4-0.4,6.3-2.8,13.2-2.3
					c11.7,1,11.7,8.2,14.6,11.8C109.5,99.5,99,102.6,88.2,99.5z M146.5,86c11.7,1,14.4,8.7,13.3,11.1c-1,2.2-8.2,5-19,2
					c-3.6-1.6-6.4-9.8-7.4-10.9C132.9,87.8,139.6,85.4,146.5,86z M126.7,87.8c5.4,2.5,6.6,8.3,8.4,11.2c0.5,1.9-6,2.5-9,0.9
					c-1.1-0.6-4.4-4.9-5.6-6.3c-1.2-1.4-3-2.3-3.9-1c-0.6,0.8,0.1,1.7,1.1,2.3c1.3,0.7,3.4,3.8,3.8,4.5c-0.2,1.1-4.8,2.6-8.2-0.8
					c-1.7-1.7-4.8-7.8-6-10.2C113.9,85.9,121.1,85.2,126.7,87.8z M158,67.5c-3.4,0.7-7.6,1.7-12.5,3.6c-6.7,2.6-19.8,3.3-25.1,3.2
					c-5.1-0.1-6.9,2.2-8.7,1.9c-0.1-2.8-1.7-6.8-1.7-6.8c1.5-0.8,6.4-2.4,10.6-2.3c5.7,0.2,16,0.6,21.3-0.2
					c2.6-0.4,12.1-0.4,13.6-0.5c1.1,0,2.8,0.2,3.3,0.3C160.9,67,159.1,67.3,158,67.5z"/>
				<g>
					<path fill="#231F20" d="M21.4,44.8c-2.8,0-5.1,0.1-7.1,2.2c-2.1,2.3-1.6,3.6-2,4c-0.6,0.6-2-0.4-2-1.6
						c0.1-5.4,6.7-7.6,10.6-7.1C22.4,42.5,22.8,44.8,21.4,44.8"/>
					<path fill="#231F20" d="M33,35.7c-4.2,0.5-5.4,2.5-6.1,4.8c-0.3,0.9-2.6,0.2-2.3-1.5c1.1-5.1,6.7-6.4,8.7-5.9
						C34,33.2,33.8,35.6,33,35.7"/>
					<path fill="#231F20" d="M51.1,24.6c-7.4-2.9-11.1,2.7-12.3,7.1c-0.2,0.6-2.6,0.4-2.3-1.5c0.9-4.5,5.3-11.1,15.4-8.5
						C53.2,22,52.4,25.1,51.1,24.6"/>
					<path fill="#231F20" d="M78.7,17.3c-6.8-4.7-12.1-0.9-15,2.5c-1.4,1.6-2.8-1-2.2-2C64,13.9,72.4,8,79.8,14.5
						C80.6,15.2,79.6,17.9,78.7,17.3"/>
					<path fill="#231F20" d="M106.6,23.6c-0.6,0.4-0.9-0.5-1.3-1.1c-6.1-9.6-17-7.1-20-2.6c-0.6,0.9-2.2-1.5-1.4-2.8
						c2.7-4.3,16.6-8.4,23.7,3.9C108.4,22.3,107.4,23.1,106.6,23.6"/>
					<path fill="#231F20" d="M123.7,29.6c-1.7-4.5-4.9-4.3-8.8-3.1c-1.8,0.6-1.3-2.4-0.8-2.6c3.7-1.3,10-1.9,11.6,4.3
						C126.2,30,124.1,30.9,123.7,29.6"/>
					<path fill="#231F20" d="M143.6,39.2c-3.1-5.6-8-5.6-12.1-4c-0.9,0.4-1.8-2-0.3-2.8c4-2.3,12.1-1.9,14.6,5.4
						C146.3,39,144.6,41.1,143.6,39.2"/>
					<path fill="#231F20" d="M156.3,48.1c-0.2,0.9-2.5,1-2.5,0c0.4-4.6-1.9-5-4.9-4.9c-1.1,0-1.1-2.4-0.2-2.6
						C152.8,39.6,157.7,42.6,156.3,48.1"/>
				</g>
				<g>
					<path fill="#231F20" d="M76.8,71.9c-0.1,1.7-1.5,3-3.2,2.9c-1.7-0.1-3-1.5-2.9-3.2l0-0.3c-0.3-0.4-1.7-0.9-3.7,0.4
						c-1,0.6-2.2,0.2-0.4-1.4c1.9-1.7,3.7-2.6,5.3-2.8l0.1,0c2.7-0.2,6.2,0.4,7.8,1c0.7,0.3,0,3.6-0.2,3.6c-0.6-0.1-1.8-0.6-2.8-0.4
						L76.8,71.9"/>
					<path fill="#231F20" d="M85.7,81.1c-0.5,1.6-6.1,2.1-7.1,0c-0.4-0.8-1-2.9-0.2-2.5c1.2,0.7,5.7,0.2,6.6,0
						c0.7-0.2,0.3-1.2,0.7-1.1C86.2,77.7,86.2,79.6,85.7,81.1"/>
					<path fill="#231F20" d="M98.8,72.4c-1.4-1.2-3.2-1.7-3.9-1.2l0,0.2c0.1,1.7-1.1,3.2-2.8,3.3c-1.7,0.1-3.2-1.1-3.3-2.8v-0.1
						c-1.1-0.3-2.9,0.3-3.1,0.2c-0.1-0.1-0.9-3.2,0.1-3.6c2.7-1.1,11.2-1.6,13.7,3.2C99.7,72.2,99.5,73,98.8,72.4"/>
				</g>
			</g>
			<g>
				<path fill="#231F20" d="M96.6,118.6h63.8v57.9H96.6V118.6z M4.8,118.6h63.9v57.9H4.8V118.6z M68.7,279.9
					c-16.4-4.8-32.4-11.3-42.6-20.8c-3.6-3.4-6.7-7.1-9.3-11h16.3v2.3h7.6v-2.3H59v-30.9h-3.9v-5.6c-4,0.9-10.4-1.2-13.3-1.2
					c-3.2,0-4.8,1.4-4.8,1.4s-1.6-1.4-4.9-1.4c-2.9,0-9.4,2.2-13.3,1.2v5.6h-3.9v27.6C8.6,234,5.6,220.9,5,204.9l-0.1-2.5h63.9
					V279.9z M22,241.8v-26.6c2.3,0.4,6.2-1.2,10.1-1.3c2.1-0.1,2.7,1.2,2.7,1.2v26.8c0,0-2.3-1.6-7.5-0.1
					C23.5,242.9,22,241.8,22,241.8z M38.9,241.9V215c0,0,0.6-1.2,2.7-1.2c4,0.1,7.9,1.7,10.2,1.3v26.6c0,0-1.4,1.1-5.4,0
					C41.2,240.3,38.9,241.9,38.9,241.9z M93.2,281l-10.6,2.7L72.1,281v-82.1H4.8v-18.8h67.2v-61.4h21.2v61.4h67.2v18.8H93.2V281z
					 M150.9,245.2v-28H147v-5.6c-4,0.9-10.4-1.2-13.3-1.2c-3.2,0-4.8,1.4-4.8,1.4s-1.6-1.4-4.9-1.4c-2.9,0-9.4,2.2-13.3,1.2v5.6
					h-3.9v30.9H125v2.3h7.6v-2.3h16.5c-2.7,4-5.8,7.6-9.6,11.1c-10.8,9.9-26.7,16.1-42.8,20.8v-77.5h63.8l0.1,2.6
					C159.6,222.6,156.8,235,150.9,245.2z M143.7,215.2v26.6c0,0-1.4,1.1-5.4,0c-5.2-1.5-7.5,0.1-7.5,0.1V215c0,0,0.6-1.2,2.7-1.2
					C137.5,214,141.4,215.6,143.7,215.2z M126.8,215v26.8c0,0-2.3-1.6-7.5-0.1c-4,1.1-5.4,0-5.4,0v-26.6c2.3,0.4,6.2-1.2,10.1-1.3
					C126.2,213.8,126.8,215,126.8,215z M0.9,114.7v85.7c0,28.3,7.1,47.9,22.2,61.7c15,13.7,37.5,20.6,59.5,25.8
					c22.6-5.3,44.3-12,59.5-25.8c15.1-13.8,22.2-33.4,22.2-61.7v-85.7H0.9z"/>
				<path fill="#231F20" d="M55.1,133.8v-5.6c-4,0.9-10.4-1.2-13.3-1.2c-3.2,0-4.8,1.4-4.8,1.4s-1.6-1.4-4.9-1.4
					c-2.9,0-9.4,2.2-13.3,1.2v5.6h-3.9v30.9h18.3v2.3h7.6v-2.3H59v-30.9H55.1z M34.9,158.5c0,0-2.3-1.6-7.5-0.1c-4,1.1-5.4,0-5.4,0
					v-26.6c2.3,0.4,6.2-1.2,10.1-1.3c2.1-0.1,2.7,1.2,2.7,1.2V158.5z M51.8,158.3c0,0-1.4,1.1-5.4,0c-5.2-1.5-7.5,0.1-7.5,0.1v-26.9
					c0,0,0.6-1.2,2.7-1.2c4,0.1,7.9,1.7,10.2,1.3V158.3z"/>
				<path fill="#231F20" d="M147,133.8v-5.6c-4,0.9-10.4-1.2-13.3-1.2c-3.2,0-4.9,1.4-4.9,1.4s-1.6-1.4-4.9-1.4
					c-2.9,0-9.4,2.2-13.3,1.2v5.6h-3.9v30.9H125v2.3h7.6v-2.3h18.3v-30.9H147z M126.3,158.5c0,0-2.3-1.6-7.5-0.1c-4,1.1-5.4,0-5.4,0
					v-26.6c2.3,0.4,6.2-1.2,10.2-1.3c2.1-0.1,2.7,1.2,2.7,1.2V158.5z M143.2,158.3c0,0-1.4,1.1-5.4,0c-5.2-1.5-7.5,0.1-7.5,0.1
					v-26.9c0,0,0.6-1.2,2.7-1.2c4,0.1,7.9,1.7,10.1,1.3V158.3z"/>
			</g>
		</g>
		<g>
			<polygon fill="#ED1C24" points="72.1,281 82.7,283.7 93.2,281 93.2,198.9 160.4,198.9 160.4,180.1 93.2,180.1 93.2,118.6 
				72.1,118.6 72.1,180.1 4.8,180.1 4.8,198.9 72.1,198.9 			"/>
			<g>
				<path fill="#ED1C24" d="M41.1,85.8c-6.8-0.6-13.6,1.9-13.2,2.3c1.1,1.1,3.9,9.3,7.4,10.9c10.8,3,21.3,0,20.3-1.3
					C52.8,94,52.8,86.8,41.1,85.8z"/>
				<path fill="#ED1C24" d="M93.9,86.4c-6.8-0.6-13.6,1.8-13.2,2.3c1.1,1.1,3.9,9.3,7.4,10.9c10.8,3.1,21.3,0,20.3-1.3
					C105.6,94.6,105.6,87.4,93.9,86.4z"/>
				<path fill="#ED1C24" d="M140.8,99.1c10.8,3,18,0.2,19-2c1.2-2.5-1.6-10.2-13.3-11.1c-6.8-0.6-13.6,1.8-13.2,2.3
					C134.4,89.3,137.2,97.5,140.8,99.1z"/>
			</g>
		</g>
	</g>
	<g>
		<path fill="#231F20" d="M243.4,208.3c-3.7,0.2-5.1,1.1-5.4,3.7c-0.2,1.7-0.4,4.3-0.4,10.1v5c0,7.3-1.1,12.6-4.6,16.4
			c-2.9,3-7.1,4.3-11.2,4.3c-3.7,0-7.2-0.9-9.9-2.9c-3.7-2.9-5.5-7.5-5.5-14.8v-15.4c0-5.6-0.6-5.8-5.4-6.3v-1.7h16v1.7
			c-4.8,0.3-5.3,0.7-5.3,6.3v14.1c0,10,4,15.7,11.7,15.7c8.9,0,11.7-7.5,11.7-17.7V222c0-5.7-0.2-8.3-0.4-10.2
			c-0.3-2.4-1.6-3.2-6-3.5v-1.7h14.8V208.3z"/>
		<path fill="#231F20" d="M261.5,246.8v-1.6c3.7-0.4,4.1-0.9,4.1-5.1v-10.3c0-4.3-1.5-7.1-5.6-7.1c-2.5,0-4.9,1.5-6.8,3.2v14.5
			c0,4.2,0.4,4.5,4,4.8v1.6h-13.5v-1.6c4.2-0.4,4.5-0.7,4.5-4.8v-12.8c0-4-0.4-4.2-3.7-4.8v-1.4c3-0.6,5.9-1.3,8.6-2.5v5
			c1.2-0.9,2.6-1.9,4.2-2.9c1.7-1.1,3.3-1.9,5.1-1.9c5,0,8,3.4,8,9.4v12c0,4.2,0.4,4.5,4,4.8v1.6H261.5z"/>
		<path fill="#231F20" d="M277.7,246.8v-1.6c3.9-0.4,4.3-0.7,4.3-5v-12.8c0-3.8-0.2-4.1-3.9-4.6v-1.5c3.2-0.5,6.1-1.3,8.8-2.4v21.3
			c0,4.2,0.4,4.6,4.4,5v1.6H277.7z M284.2,206.5c1.7,0,3.1,1.4,3.1,3.2c0,1.7-1.4,3.2-3.2,3.2c-1.6,0-3.1-1.5-3.1-3.1
			C281,207.9,282.5,206.5,284.2,206.5L284.2,206.5z"/>
		<path fill="#231F20" d="M321.6,221.4c-3.3,0.4-3.8,1-5.5,4.6c-2.1,4.6-5.3,12.3-8.8,21.4h-1.7c-2.7-7.4-5.6-14.4-8.6-21.6
			c-1.4-3.5-1.9-4-5.2-4.5v-1.6h12.7v1.6c-3.3,0.4-3.5,0.9-2.5,3.5c1.5,4.3,4.1,10.8,5.9,15.2c2.2-5.1,4.2-10.7,5.5-14.7
			c1-3,0.6-3.7-2.9-4.1v-1.6h11V221.4z"/>
		<path fill="#231F20" d="M344.6,241.6c-3.9,4.8-8.2,5.9-10.1,5.9c-7.6,0-12.1-6.2-12.1-13.2c0-4.2,1.5-8.1,4.1-10.8
			c2.5-2.8,5.9-4.5,9-4.5h0.1c5.1,0,9.3,4.6,9.3,9.4c0,1.2-0.2,1.7-1.4,2c-1,0.2-8.8,0.8-16.2,1.1c0.1,8.4,5,11.9,9.3,11.9
			c2.5,0,4.8-1,7.1-3.1L344.6,241.6z M334.1,221.4c-2.8,0-5.6,2.6-6.5,7.6c3.5,0,6.9-0.1,10.5-0.2c1.1,0,1.5-0.3,1.5-1.2
			C339.7,224.3,337.6,221.4,334.1,221.4L334.1,221.4z"/>
		<path fill="#231F20" d="M357.8,225.6c1.9-3.1,4.5-6.6,7.5-6.6c2.1,0,3.6,1.7,3.6,3.1c0,1.2-0.8,2.5-2,3c-0.7,0.3-1.2,0.2-1.6-0.1
			c-0.9-0.9-1.7-1.2-2.7-1.2c-1.6,0-3.6,1.8-5,5.3v11.3c0,4.1,0.3,4.5,5.1,4.8v1.6h-14.3v-1.6c3.8-0.4,4.3-0.7,4.3-4.8v-12.8
			c0-4.1-0.2-4.3-3.8-4.8v-1.4c3-0.5,5.8-1.2,8.7-2.5v6.7H357.8z"/>
		<path fill="#231F20" d="M387.3,227.2c-1.2-3.7-3.3-6.1-6.4-6.1c-2.4,0-4,1.8-4,4.3c0,2.7,2.5,4.2,5.2,5.3c4.7,1.9,7.9,4.1,7.9,8.4
			c0,5.6-5.3,8.6-10.2,8.6c-3.2,0-6-1.2-7.1-2.1c-0.4-0.9-1.1-5.1-1.1-7.3l1.7-0.2c1.1,4,3.8,7.6,7.6,7.6c2.3,0,4.4-1.7,4.4-4.3
			c0-2.7-1.8-4.2-4.9-5.6c-3.7-1.7-7.7-3.8-7.7-8.5c0-4.3,3.7-8.1,9.4-8.1c2.5,0,4.2,0.6,5.5,1.1c0.6,1.4,1.2,5,1.4,6.6L387.3,227.2
			z"/>
		<path fill="#231F20" d="M393.6,246.8v-1.6c3.9-0.4,4.3-0.7,4.3-5v-12.8c0-3.8-0.2-4.1-3.9-4.6v-1.5c3.2-0.5,6.1-1.3,8.8-2.4v21.3
			c0,4.2,0.4,4.6,4.4,5v1.6H393.6z M400.1,206.5c1.7,0,3.1,1.4,3.1,3.2c0,1.7-1.4,3.2-3.2,3.2c-1.6,0-3.1-1.5-3.1-3.1
			C396.9,207.9,398.4,206.5,400.1,206.5L400.1,206.5z"/>
		<path fill="#231F20" d="M421.8,246.8c-1.1,0.6-2,0.8-2.6,0.8c-3.9,0-6.1-2.4-6.1-7.3v-18h-4.3l-0.2-0.7l1.7-1.8h2.8v-4.5l4-4.2
			l0.9,0.1v8.5h7c0.6,0.7,0.4,2-0.4,2.5H418v15.9c0,5,2,5.9,3.7,5.9c1.5,0,3-0.6,3.8-1l0.6,1.5L421.8,246.8z"/>
		<path fill="#231F20" d="M456.2,221.4c-3.3,0.5-3.8,1-5.5,4.5c-1.6,3.3-3.5,8.4-7.8,18.7c-4.2,9.9-5.5,13.4-6.4,16.7
			c-0.3,1.2-1.1,1.5-2,1.5c-1.7,0-3.5-1.5-3.5-3c0-1,0.5-1.5,1.5-2.2c2-1.2,3.2-2.7,4.6-5.5c1.1-2.2,1.6-3.4,1.9-4.3
			c0.3-0.9,0.2-1.7-0.1-2.7c-2.5-7.1-5.3-14.6-7.1-19c-1.4-3.3-1.9-4.2-5.3-4.6v-1.6h12.5l0.1,1.6c-2.9,0.4-3.2,1.1-2.4,3.4
			l5.6,15.5c1.7-4.2,4.5-11.5,5.7-15.4c0.7-2.4,0.4-3-3.2-3.5v-1.6h11.2V221.4z"/>
		<path fill="#231F20" d="M501.7,237.1c-0.4,1.9-1.7,7.8-2.2,9.7h-28.1v-1.7c5.2-0.4,5.7-0.8,5.7-6.1v-24.8c0-5.3-0.4-5.6-5.5-6
			v-1.7h16.2v1.7c-4.9,0.4-5.5,0.7-5.5,6v24.5c0,3.3,0.3,4.6,1.4,5.2c1.2,0.7,3.3,0.8,5.9,0.8c3.4,0,5.5-0.3,6.9-1.9
			c1.1-1.2,2.2-3.2,3.2-6.1L501.7,237.1z"/>
		<path fill="#231F20" d="M504.8,246.8v-1.6c3.9-0.4,4.3-0.7,4.3-5v-12.8c0-3.8-0.2-4.1-3.9-4.6v-1.5c3.2-0.5,6.1-1.3,8.8-2.4v21.3
			c0,4.2,0.4,4.6,4.4,5v1.6H504.8z M511.3,206.5c1.7,0,3.1,1.4,3.1,3.2c0,1.7-1.4,3.2-3.2,3.2c-1.6,0-3.1-1.5-3.1-3.1
			C508.1,207.9,509.6,206.5,511.3,206.5L511.3,206.5z"/>
		<path fill="#231F20" d="M533.7,219.7c1-0.4,1.8-0.6,2.5-0.6c6.6,0,12.2,5.7,12.2,13c0,9.1-7.3,15.5-15.6,15.5
			c-2.5,0-5.7-0.6-9.1-2.2v-34.4c0-3.8-0.1-4.3-4.1-4.6v-1.5c2.9-0.4,6.7-1.3,9-2.2v19.2L533.7,219.7z M528.6,239.6
			c0,0.9,0.1,1.5,0.4,2.2c0.4,1.2,2.2,3.4,5.5,3.4c5.2,0,8.4-4.4,8.4-11.5c0-7.1-4.3-11.2-9.4-11.2c-1.7,0-3.7,0.5-4.8,1.2V239.6z"
			/>
		<path fill="#231F20" d="M561.3,225.6c1.9-3.1,4.5-6.6,7.5-6.6c2.1,0,3.6,1.7,3.6,3.1c0,1.2-0.8,2.5-2,3c-0.7,0.3-1.2,0.2-1.6-0.1
			c-0.9-0.9-1.7-1.2-2.7-1.2c-1.6,0-3.6,1.8-5,5.3v11.3c0,4.1,0.3,4.5,5.1,4.8v1.6H552v-1.6c3.8-0.4,4.3-0.7,4.3-4.8v-12.8
			c0-4.1-0.2-4.3-3.8-4.8v-1.4c3-0.5,5.8-1.2,8.7-2.5v6.7H561.3z"/>
		<path fill="#231F20" d="M594.5,247.6c-0.9,0-2.2-0.6-2.9-1.2c-0.8-0.8-1.2-1.7-1.5-2.8c-2.5,1.7-5.5,4-7.3,4
			c-4.4,0-7.4-3.7-7.4-7.6c0-3,1.6-4.9,5-6.1c3.7-1.2,8.2-2.9,9.6-4v-1.1c0-4.5-2-7-5.2-7c-1.2,0-2.1,0.4-2.7,1.2
			c-0.8,0.8-1.3,2.2-1.9,4c-0.3,1-0.9,1.4-1.8,1.4c-1.1,0-2.7-1.2-2.7-2.6c0-0.9,0.7-1.6,1.9-2.5c1.7-1.2,5.7-3.5,9.2-4.3
			c1.9,0,3.7,0.6,5.1,1.7c2.2,1.9,2.8,4.3,2.8,7.6v11.5c0,2.8,1.1,3.7,2.2,3.7c0.7,0,1.6-0.4,2.2-0.7l0.6,1.6L594.5,247.6z M590,232
			c-1.3,0.7-4.3,2-5.6,2.6c-2.4,1.1-3.8,2.2-3.8,4.5c0,3.2,2.5,4.7,4.4,4.7c1.6,0,3.8-1.1,5-2.2V232z"/>
		<path fill="#231F20" d="M610.9,225.6c1.9-3.1,4.5-6.6,7.5-6.6c2.1,0,3.6,1.7,3.6,3.1c0,1.2-0.8,2.5-2,3c-0.7,0.3-1.2,0.2-1.6-0.1
			c-0.9-0.9-1.7-1.2-2.7-1.2c-1.6,0-3.6,1.8-5,5.3v11.3c0,4.1,0.3,4.5,5.1,4.8v1.6h-14.3v-1.6c3.8-0.4,4.3-0.7,4.3-4.8v-12.8
			c0-4.1-0.2-4.3-3.8-4.8v-1.4c3-0.5,5.8-1.2,8.7-2.5v6.7H610.9z"/>
		<path fill="#231F20" d="M654,221.4c-3.3,0.5-3.8,1-5.5,4.5c-1.6,3.3-3.5,8.4-7.8,18.7c-4.2,9.9-5.5,13.4-6.4,16.7
			c-0.3,1.2-1.1,1.5-2,1.5c-1.7,0-3.5-1.5-3.5-3c0-1,0.5-1.5,1.5-2.2c2-1.2,3.2-2.7,4.6-5.5c1.1-2.2,1.6-3.4,1.9-4.3
			c0.3-0.9,0.2-1.7-0.1-2.7c-2.5-7.1-5.3-14.6-7.1-19c-1.4-3.3-1.9-4.2-5.3-4.6v-1.6H637l0.1,1.6c-2.9,0.4-3.2,1.1-2.4,3.4l5.6,15.5
			c1.7-4.2,4.5-11.5,5.7-15.4c0.7-2.4,0.4-3-3.2-3.5v-1.6H654V221.4z"/>
	</g>
	<g>
		<path fill="#231F20" d="M217.1,144.7v20.9c0,6.4,1.3,8.6,8.3,8.5c8,0,14.9-4,14.9-14.2c0-10.5-7.7-15.2-17.6-15.2H217.1z
			 M217.1,141.9h6c9.2,0,13.8-4.3,13.8-12.2c0-5.8-2.4-12.2-13.7-12.2c-3.2,0-4.5,0.3-5.3,0.6c-0.6,0.2-0.9,0.6-0.9,2.5V141.9z
			 M226.5,114.8c6.9,0,10.8,1.2,14,3.4c3.3,2.3,5,5.7,5,10.5c0,8.4-8,12.6-12.6,13.7v0.2c8.7,1.2,16.6,6.4,16.6,16.1
			c0,6.8-3.4,11.6-8.9,14.8c-4.9,2.7-11,3.7-18.3,3.7h-22.1v-2.2c8.1-0.6,8.8-1.3,8.8-11.7v-34.5c-0.1-10.5-0.7-11.1-8.3-11.7v-2.2
			H226.5z"/>
		<path fill="#231F20" d="M282.9,146.9h5.6c3.9,0,7-0.5,9.6-2.6c4.1-3.3,5.6-8,5.6-12.7c0-10.1-7.3-14.1-14.5-14.1
			c-3.3,0-4.6,0.2-5.4,0.5c-0.6,0.2-0.9,0.7-0.9,2.6V146.9z M282.9,163.2c0,10.4,0.8,11.1,8.6,11.7v2.2H266v-2.2
			c8.1-0.6,8.8-1.3,8.8-11.7v-34.5c0-10.5-0.8-11.1-8.4-11.7v-2.2h24.4c6.1,0,11.6,0.9,15.2,3.3c3.8,2.4,6.3,6.7,6.3,12.3
			c0,8-4.9,13.6-12.7,16.8c1.7,2.9,5.7,9.5,8.5,13.7c3.5,5.1,5.5,7.7,8.1,10.6c2,2.4,3.7,3.9,7.2,4.8l-0.2,1.8h-1.3
			c-11-0.3-14.4-3.7-18-8.9c-3-4.3-7-11.4-9.7-15.9c-1.5-2.5-3.1-3.4-6-3.4h-5.2V163.2z"/>
		<path fill="#231F20" d="M364.1,116.5c-11.3,0-20.9,9.3-20.9,27.3c0,18.5,9.7,31.6,23.7,31.6c11.5,0,20.9-8.9,20.9-26.8
			C387.8,127.9,377.8,116.5,364.1,116.5 M397.1,145.1c0,20-13.9,33.5-32.2,33.5c-18.1,0-31-13.8-31-31.9c0-16.1,11.3-33.3,32.7-33.3
			C383.2,113.3,397.1,126.2,397.1,145.1"/>
		<path fill="#231F20" d="M429.9,117l-3,0.4c-4.3,0.6-4.9,1.4-3.6,5.7l13,40.9h0.2l15.3-48.2h2.3l17.4,48.1h0.2
			c3.9-12.1,9.5-32.3,11.1-39.2c1.3-5.6,0.8-6.7-3.5-7.2l-2.8-0.4v-2.2h20.3v2.2c-6.3,0.8-7,1.2-10.2,9.9
			c-0.9,2.4-7.9,24.5-15.9,50.8h-2.6L451,130.8l-0.2,0.2l-15.6,46.7h-2.7l-16.6-51.5c-2.6-8-4-8.6-9.5-9.2v-2.2h23.5V117z"/>
		<path fill="#231F20" d="M566.8,177.8h-2.5l-41.7-50.6h-0.2v24.5c0,10.1,0.4,15.3,0.8,18.2c0.5,3.4,3.1,4.7,9.4,5v2.2h-23v-2.2
			c5.3-0.2,7.8-1.6,8.3-5c0.4-3,0.8-8.2,0.8-18.2v-20.8c0-6.9-0.1-8.5-1.8-10.7c-1.8-2.3-4.4-3-8.4-3.3v-2.2h14l40.4,48.4h0.2v-22.9
			c0-10.1-0.4-15.2-0.8-18.2c-0.5-3.4-3.1-4.7-9.4-5v-2.2h23v2.2c-5.3,0.2-7.8,1.6-8.2,5c-0.4,3-0.8,8.2-0.8,18.2V177.8z"/>
	</g>
</g>
</svg>
